G04 #@! TF.FileFunction,Copper,L1,Top,Signal*
%FSLAX45Y45*%
G04 Gerber Fmt 4.5, Leading zero omitted, Abs format (unit mm)*
G04 Created by KiCad (PCBNEW (after 2015-may-01 BZR unknown)-product) date 21-May-15 9:37:35 AM*
%MOMM*%
G01*
G04 APERTURE LIST*
%ADD10C,0.100000*%
%ADD11R,0.900000X0.500000*%
%ADD12R,2.286000X1.143000*%
%ADD13R,9.999980X10.800080*%
%ADD14R,2.400300X3.500120*%
%ADD15R,2.400300X4.000500*%
%ADD16R,2.000000X2.500000*%
%ADD17R,0.797560X0.797560*%
%ADD18O,3.500120X1.699260*%
%ADD19R,0.500000X0.900000*%
%ADD20R,2.000000X0.700000*%
%ADD21R,1.100000X2.400000*%
%ADD22O,1.100000X2.400000*%
%ADD23C,6.500000*%
%ADD24O,2.000000X3.000000*%
%ADD25R,2.000000X3.000000*%
%ADD26R,3.000000X5.000000*%
%ADD27C,2.700000*%
%ADD28R,2.700000X2.700000*%
%ADD29R,0.800100X0.800100*%
%ADD30R,1.727200X1.727200*%
%ADD31O,1.727200X1.727200*%
%ADD32C,0.600000*%
%ADD33C,1.200000*%
%ADD34C,0.250000*%
%ADD35C,1.250000*%
%ADD36C,0.750000*%
%ADD37C,0.254000*%
G04 APERTURE END LIST*
D10*
D11*
X10250000Y-8200000D03*
X10250000Y-8050000D03*
D12*
X10450000Y-9439852D03*
D13*
X9370500Y-9269926D03*
D12*
X10450000Y-9100000D03*
X10450000Y-9269926D03*
X10450000Y-9610032D03*
X10450000Y-8929820D03*
D14*
X12400000Y-11125120D03*
X12400000Y-10474880D03*
D15*
X10100000Y-11400050D03*
X10100000Y-10599950D03*
X9000000Y-11400050D03*
X9000000Y-10599950D03*
X7900000Y-11400050D03*
X7900000Y-10599950D03*
D16*
X10130000Y-10100000D03*
X10470000Y-10100000D03*
D17*
X6900000Y-8674930D03*
X6900000Y-8525070D03*
X6900000Y-10825070D03*
X6900000Y-10974930D03*
X10675000Y-8050070D03*
X10675000Y-8199930D03*
X10050000Y-8199930D03*
X10050000Y-8050070D03*
D18*
X8548500Y-9223100D03*
X8548500Y-9477100D03*
X8548500Y-8969100D03*
D19*
X12325000Y-11550000D03*
X12175000Y-11550000D03*
D11*
X7075000Y-8525000D03*
X7075000Y-8675000D03*
X7075000Y-10975000D03*
X7075000Y-10825000D03*
X9400000Y-8050000D03*
X9400000Y-8200000D03*
X10875000Y-8200000D03*
X10875000Y-8050000D03*
X9850000Y-8200000D03*
X9850000Y-8050000D03*
X9625000Y-8200000D03*
X9625000Y-8050000D03*
X10475000Y-8200000D03*
X10475000Y-8050000D03*
D20*
X11620000Y-8025000D03*
X11620000Y-8175000D03*
X11280000Y-8175000D03*
X11280000Y-8025000D03*
D21*
X12350000Y-8500000D03*
D22*
X12150000Y-8500000D03*
X11950000Y-8500000D03*
X11750000Y-8500000D03*
X11550000Y-8500000D03*
X11350000Y-8500000D03*
X11150000Y-8500000D03*
X10950000Y-8500000D03*
X10950000Y-10100000D03*
X11150000Y-10100000D03*
X11350000Y-10100000D03*
X11550000Y-10100000D03*
X11750000Y-10100000D03*
X11950000Y-10100000D03*
X12150000Y-10100000D03*
X12350000Y-10100000D03*
D23*
X13100000Y-8000000D03*
X6900000Y-8000000D03*
X6900000Y-11500000D03*
X13100000Y-11500000D03*
D24*
X8021000Y-8325000D03*
X8529000Y-8325000D03*
X9037000Y-8325000D03*
D25*
X7513000Y-8325000D03*
D26*
X11750000Y-11000000D03*
X10850000Y-11000000D03*
D27*
X6900000Y-9540500D03*
D28*
X6900000Y-9159500D03*
D27*
X6900000Y-10340500D03*
D28*
X6900000Y-9959500D03*
D29*
X7550076Y-8845000D03*
X7550076Y-8655000D03*
X7350178Y-8750000D03*
D30*
X12000000Y-8100000D03*
D31*
X12000000Y-7846000D03*
X12254000Y-8100000D03*
X12254000Y-7846000D03*
X12508000Y-8100000D03*
D32*
X11425000Y-11450000D03*
X11800000Y-11450000D03*
X10100000Y-10950000D03*
X7900000Y-10950000D03*
X9000000Y-10950000D03*
X9950000Y-7975000D03*
X12400000Y-10800000D03*
D33*
X8020000Y-9580000D03*
D32*
X7800000Y-7820000D03*
X12280000Y-9080000D03*
X12160000Y-9040000D03*
X9320000Y-8620000D03*
X9725000Y-8400000D03*
X9400000Y-7940000D03*
D34*
X11160000Y-8780000D02*
X12105000Y-8780000D01*
X10950000Y-8570000D02*
X11160000Y-8780000D01*
X10950000Y-8500000D02*
X10950000Y-8570000D01*
X12105000Y-8780000D02*
X11950000Y-8625000D01*
X10950000Y-8500000D02*
X10820000Y-8500000D01*
X10563860Y-8503860D02*
X10260000Y-8200000D01*
X10596140Y-8503860D02*
X10563860Y-8503860D01*
X10600000Y-8500000D02*
X10596140Y-8503860D01*
X10820000Y-8500000D02*
X10600000Y-8500000D01*
X10260000Y-8200000D02*
X10250000Y-8200000D01*
X10450000Y-9100000D02*
X10540000Y-9100000D01*
X10550000Y-9100000D02*
X10450000Y-9100000D01*
X6675000Y-10625000D02*
X6675000Y-10650000D01*
X6675000Y-8900000D02*
X6675000Y-10625000D01*
X6900000Y-8675000D02*
X6675000Y-8900000D01*
X6850070Y-10825070D02*
X6900000Y-10825070D01*
X6675000Y-10650000D02*
X6850070Y-10825070D01*
X6900000Y-8674930D02*
X6900000Y-8675000D01*
X11280000Y-8025000D02*
X11350000Y-8025000D01*
X12000000Y-8100000D02*
X11975000Y-8100000D01*
X11975000Y-8100000D02*
X11775000Y-7900000D01*
X11405000Y-7900000D02*
X11280000Y-8025000D01*
X11775000Y-7900000D02*
X11405000Y-7900000D01*
X11950000Y-8500000D02*
X11950000Y-8150000D01*
X11950000Y-8150000D02*
X12000000Y-8100000D01*
X12400000Y-11125120D02*
X12400000Y-10950000D01*
X11950000Y-8625000D02*
X11950000Y-8500000D01*
X12500000Y-9175000D02*
X12105000Y-8780000D01*
X12500000Y-10200000D02*
X12500000Y-9175000D01*
X12600000Y-10300000D02*
X12500000Y-10200000D01*
X12600000Y-10750000D02*
X12600000Y-10300000D01*
X12400000Y-10950000D02*
X12600000Y-10750000D01*
X12325000Y-11550000D02*
X12325000Y-11200120D01*
X12325000Y-11200120D02*
X12400000Y-11125120D01*
X11750000Y-11000000D02*
X12274880Y-11000000D01*
X12274880Y-11000000D02*
X12400000Y-11125120D01*
X11750000Y-10425000D02*
X11650000Y-10325000D01*
X11650000Y-10325000D02*
X11650000Y-9950000D01*
X11650000Y-9950000D02*
X10800000Y-9100000D01*
X10800000Y-9100000D02*
X10450000Y-9100000D01*
X11750000Y-11000000D02*
X11750000Y-10425000D01*
X6975000Y-10725000D02*
X7175000Y-10725000D01*
X7175000Y-10725000D02*
X7700000Y-11250000D01*
X7700000Y-11250000D02*
X7700000Y-11600000D01*
X7700000Y-11600000D02*
X7750000Y-11650000D01*
X7750000Y-11650000D02*
X10750000Y-11650000D01*
X10750000Y-11650000D02*
X10825000Y-11650000D01*
X10825000Y-11650000D02*
X11025000Y-11450000D01*
X11025000Y-11450000D02*
X11425000Y-11450000D01*
X11800000Y-11450000D02*
X11750000Y-11400000D01*
X11750000Y-11400000D02*
X11750000Y-11000000D01*
X6900000Y-10800000D02*
X6975000Y-10725000D01*
X6900000Y-10825070D02*
X6900000Y-10800000D01*
X10050000Y-8199930D02*
X10100070Y-8199930D01*
X10100070Y-8199930D02*
X10250000Y-8050000D01*
X10470000Y-10100000D02*
X10470000Y-10145000D01*
X10470000Y-10145000D02*
X10850000Y-10525000D01*
X10850000Y-10525000D02*
X10850000Y-11000000D01*
X10470000Y-10100000D02*
X10475000Y-10100000D01*
X10475000Y-10100000D02*
X10675000Y-9900000D01*
X10675000Y-9900000D02*
X10675000Y-9550000D01*
X10675000Y-9550000D02*
X10564852Y-9439852D01*
X10564852Y-9439852D02*
X10450000Y-9439852D01*
X10100000Y-10599950D02*
X10100000Y-10950000D01*
X7900000Y-10599950D02*
X7900000Y-10950000D01*
X9000000Y-10599950D02*
X9000000Y-10950000D01*
X9975000Y-7975000D02*
X9950000Y-7975000D01*
X10050000Y-8050000D02*
X9975000Y-7975000D01*
X10050000Y-8050070D02*
X10050000Y-8050000D01*
X12400000Y-10825000D02*
X12400000Y-10800000D01*
X12400000Y-10474880D02*
X12400000Y-10825000D01*
D35*
X6900000Y-10340500D02*
X7000500Y-10340500D01*
X7000500Y-10340500D02*
X7900000Y-11240000D01*
X7900000Y-11240000D02*
X7900000Y-11400050D01*
X8300000Y-10580000D02*
X8300000Y-9860000D01*
X8300000Y-9860000D02*
X8020000Y-9580000D01*
X9000000Y-11280000D02*
X8300000Y-10580000D01*
X9000000Y-11400050D02*
X9000000Y-11280000D01*
X9000000Y-11400050D02*
X7900000Y-11400050D01*
X10100000Y-11400050D02*
X9000000Y-11400050D01*
D36*
X10100000Y-11400050D02*
X10100000Y-11360000D01*
X10100000Y-11360000D02*
X9800000Y-11060000D01*
X9800000Y-11060000D02*
X9800000Y-10060000D01*
X9800000Y-10060000D02*
X10249968Y-9610032D01*
X10249968Y-9610032D02*
X10450000Y-9610032D01*
D34*
X7820000Y-7820000D02*
X7800000Y-7820000D01*
X10675000Y-8015000D02*
X10480000Y-7820000D01*
X10480000Y-7820000D02*
X7820000Y-7820000D01*
X10675000Y-8050070D02*
X10675000Y-8015000D01*
X7075000Y-8525000D02*
X6900070Y-8525000D01*
X6900070Y-8525000D02*
X6900000Y-8525070D01*
X6900000Y-10974930D02*
X7074930Y-10974930D01*
X7074930Y-10974930D02*
X7075000Y-10975000D01*
X10475000Y-8200000D02*
X10674930Y-8200000D01*
X10674930Y-8200000D02*
X10675000Y-8199930D01*
X12280000Y-9080000D02*
X12340000Y-9140000D01*
X12350000Y-10100000D02*
X12350000Y-9150000D01*
X12350000Y-9150000D02*
X12340000Y-9140000D01*
X12340000Y-9140000D02*
X12300000Y-9100000D01*
X12150000Y-9050000D02*
X12160000Y-9040000D01*
X12150000Y-10100000D02*
X12150000Y-9050000D01*
X12508000Y-8100000D02*
X12508000Y-9108000D01*
X12260000Y-11660000D02*
X12175000Y-11575000D01*
X12380000Y-11660000D02*
X12260000Y-11660000D01*
X12660000Y-11380000D02*
X12380000Y-11660000D01*
X12660000Y-11300000D02*
X12660000Y-11380000D01*
X12650000Y-10275000D02*
X12660000Y-11300000D01*
X12550000Y-10175000D02*
X12650000Y-10275000D01*
X12545000Y-9145000D02*
X12550000Y-10175000D01*
X12508000Y-9108000D02*
X12545000Y-9145000D01*
X12175000Y-11575000D02*
X12175000Y-11550000D01*
X12175000Y-11550000D02*
X11750000Y-11550000D01*
X11550000Y-10450000D02*
X11550000Y-10100000D01*
X11475000Y-10525000D02*
X11550000Y-10450000D01*
X11475000Y-11275000D02*
X11475000Y-10525000D01*
X11750000Y-11550000D02*
X11475000Y-11275000D01*
X7550076Y-8845000D02*
X7545000Y-8845000D01*
X7545000Y-8845000D02*
X7450000Y-8750000D01*
X7450000Y-8750000D02*
X7450000Y-8625000D01*
X7450000Y-8625000D02*
X7325000Y-8500000D01*
X7325000Y-8500000D02*
X7325000Y-8150000D01*
X7325000Y-8150000D02*
X7575000Y-7900000D01*
X7575000Y-7900000D02*
X9000000Y-7900000D01*
X9000000Y-7900000D02*
X9225000Y-8125000D01*
X9225000Y-8125000D02*
X9275000Y-8175000D01*
X9275000Y-8175000D02*
X9375000Y-8175000D01*
X9375000Y-8175000D02*
X9400000Y-8200000D01*
X6627500Y-10222500D02*
X6627500Y-10677500D01*
X7000000Y-10900000D02*
X7075000Y-10825000D01*
X6825000Y-10900000D02*
X7000000Y-10900000D01*
X6800000Y-10875000D02*
X6825000Y-10900000D01*
X6800000Y-10850000D02*
X6800000Y-10875000D01*
X6627500Y-10677500D02*
X6800000Y-10850000D01*
X6800000Y-8600000D02*
X6675000Y-8725000D01*
X6975000Y-8600000D02*
X6800000Y-8600000D01*
X7050000Y-8675000D02*
X6975000Y-8600000D01*
X6625000Y-10220000D02*
X6627500Y-10222500D01*
X6627500Y-10222500D02*
X6630000Y-10225000D01*
X6625000Y-8775000D02*
X6625000Y-10220000D01*
X6675000Y-8725000D02*
X6625000Y-8775000D01*
X7075000Y-8675000D02*
X7050000Y-8675000D01*
X7075000Y-8675000D02*
X7275178Y-8675000D01*
X7275178Y-8675000D02*
X7350178Y-8750000D01*
X9625000Y-8200000D02*
X9625000Y-8315000D01*
X9625000Y-8315000D02*
X9320000Y-8620000D01*
X9850000Y-8200000D02*
X9625000Y-8200000D01*
X11750000Y-9825000D02*
X10425000Y-8500000D01*
X10425000Y-8500000D02*
X10025000Y-8500000D01*
X10025000Y-8500000D02*
X9825000Y-8500000D01*
X9825000Y-8500000D02*
X9725000Y-8400000D01*
X11750000Y-10100000D02*
X11750000Y-9825000D01*
X9400000Y-7940000D02*
X9400000Y-8050000D01*
X11150000Y-8305000D02*
X11145000Y-8305000D01*
X11040000Y-8200000D02*
X10875000Y-8200000D01*
X11145000Y-8305000D02*
X11040000Y-8200000D01*
X11150000Y-8500000D02*
X11150000Y-8305000D01*
X11150000Y-8305000D02*
X11280000Y-8175000D01*
X10125000Y-8450000D02*
X9975000Y-8300000D01*
X11950000Y-9961360D02*
X10438640Y-8450000D01*
X10438640Y-8450000D02*
X10125000Y-8450000D01*
X11950000Y-10100000D02*
X11950000Y-9961360D01*
X9960000Y-8160000D02*
X9850000Y-8050000D01*
X9960000Y-8280000D02*
X9960000Y-8160000D01*
X9975000Y-8295000D02*
X9960000Y-8280000D01*
X9975000Y-8300000D02*
X9975000Y-8295000D01*
D35*
X6900000Y-9159500D02*
X7460500Y-9159500D01*
X8021000Y-8599000D02*
X8021000Y-8325000D01*
X7460500Y-9159500D02*
X8021000Y-8599000D01*
X8529000Y-8325000D02*
X8529000Y-8351000D01*
X8529000Y-8351000D02*
X7339500Y-9540500D01*
X7339500Y-9540500D02*
X6900000Y-9540500D01*
X6900000Y-9959500D02*
X7260500Y-9959500D01*
X7996900Y-9223100D02*
X8548500Y-9223100D01*
X7260500Y-9959500D02*
X7996900Y-9223100D01*
D34*
X10475000Y-8050000D02*
X10325000Y-7900000D01*
X8800000Y-9100000D02*
X8676900Y-9223100D01*
X8800000Y-8675000D02*
X8800000Y-9100000D01*
X8875000Y-8600000D02*
X8800000Y-8675000D01*
X9200000Y-8600000D02*
X8875000Y-8600000D01*
X9525000Y-8275000D02*
X9200000Y-8600000D01*
X9525000Y-8000000D02*
X9525000Y-8275000D01*
X9625000Y-7900000D02*
X9525000Y-8000000D01*
X9800000Y-7900000D02*
X9625000Y-7900000D01*
X10325000Y-7900000D02*
X9800000Y-7900000D01*
X8676900Y-9223100D02*
X8548500Y-9223100D01*
D37*
G36*
X9453005Y-8267799D02*
X9200500Y-8520304D01*
X9200500Y-8387700D01*
X9200500Y-8337700D01*
X9200500Y-8312300D01*
X9200500Y-8262300D01*
X9183194Y-8200698D01*
X9143632Y-8150408D01*
X9087836Y-8119086D01*
X9075043Y-8115988D01*
X9049700Y-8127922D01*
X9049700Y-8312300D01*
X9200500Y-8312300D01*
X9200500Y-8337700D01*
X9049700Y-8337700D01*
X9049700Y-8522078D01*
X9075043Y-8534012D01*
X9087836Y-8530914D01*
X9143632Y-8499592D01*
X9183194Y-8449302D01*
X9200500Y-8387700D01*
X9200500Y-8520304D01*
X9176804Y-8544000D01*
X9024300Y-8544000D01*
X9024300Y-8522078D01*
X9024300Y-8337700D01*
X9024300Y-8312300D01*
X9024300Y-8127922D01*
X8998957Y-8115988D01*
X8986165Y-8119086D01*
X8930368Y-8150408D01*
X8890806Y-8200698D01*
X8873500Y-8262300D01*
X8873500Y-8312300D01*
X9024300Y-8312300D01*
X9024300Y-8337700D01*
X8873500Y-8337700D01*
X8873500Y-8387700D01*
X8890806Y-8449302D01*
X8930368Y-8499592D01*
X8986165Y-8530914D01*
X8998957Y-8534012D01*
X9024300Y-8522078D01*
X9024300Y-8544000D01*
X8875000Y-8544000D01*
X8853570Y-8548263D01*
X8835402Y-8560402D01*
X8760402Y-8635402D01*
X8748263Y-8653570D01*
X8744000Y-8675000D01*
X8744000Y-8866304D01*
X8707091Y-8836798D01*
X8651243Y-8820637D01*
X8561200Y-8820637D01*
X8561200Y-8956400D01*
X8563200Y-8956400D01*
X8563200Y-8981800D01*
X8561200Y-8981800D01*
X8561200Y-8983800D01*
X8535800Y-8983800D01*
X8535800Y-8981800D01*
X8535800Y-8956400D01*
X8535800Y-8820637D01*
X8445757Y-8820637D01*
X8389909Y-8836798D01*
X8344498Y-8873101D01*
X8316435Y-8924019D01*
X8314346Y-8933417D01*
X8326479Y-8956400D01*
X8535800Y-8956400D01*
X8535800Y-8981800D01*
X8326479Y-8981800D01*
X8314346Y-9004783D01*
X8316435Y-9014181D01*
X8344498Y-9065099D01*
X8389909Y-9101402D01*
X8403598Y-9105363D01*
X8386032Y-9117100D01*
X7996900Y-9117100D01*
X7956336Y-9125169D01*
X7921947Y-9148147D01*
X7216593Y-9853500D01*
X7079352Y-9853500D01*
X7079352Y-9824500D01*
X7076134Y-9807914D01*
X7066558Y-9793336D01*
X7052101Y-9783577D01*
X7035000Y-9780148D01*
X6765000Y-9780148D01*
X6748414Y-9783366D01*
X6733836Y-9792942D01*
X6731000Y-9797143D01*
X6731000Y-9598917D01*
X6748587Y-9641480D01*
X6798756Y-9691737D01*
X6864338Y-9718969D01*
X6935350Y-9719031D01*
X7000980Y-9691913D01*
X7046472Y-9646500D01*
X7339500Y-9646500D01*
X7380064Y-9638431D01*
X7380064Y-9638431D01*
X7414453Y-9615453D01*
X8511164Y-8518743D01*
X8529000Y-8522291D01*
X8583915Y-8511368D01*
X8630470Y-8480261D01*
X8661577Y-8433706D01*
X8672500Y-8378791D01*
X8672500Y-8271209D01*
X8661577Y-8216294D01*
X8630470Y-8169739D01*
X8583915Y-8138632D01*
X8529000Y-8127709D01*
X8474085Y-8138632D01*
X8427530Y-8169739D01*
X8396423Y-8216294D01*
X8385500Y-8271209D01*
X8385500Y-8344593D01*
X8125983Y-8604110D01*
X8127000Y-8599000D01*
X8127000Y-8473481D01*
X8153577Y-8433706D01*
X8164500Y-8378791D01*
X8164500Y-8271209D01*
X8153577Y-8216294D01*
X8122470Y-8169739D01*
X8075915Y-8138632D01*
X8021000Y-8127709D01*
X7966085Y-8138632D01*
X7919530Y-8169739D01*
X7888423Y-8216294D01*
X7877500Y-8271209D01*
X7877500Y-8378791D01*
X7888423Y-8433706D01*
X7915000Y-8473481D01*
X7915000Y-8555093D01*
X7653581Y-8816512D01*
X7653581Y-8707636D01*
X7653581Y-8683575D01*
X7653581Y-8626425D01*
X7653581Y-8602364D01*
X7643914Y-8579025D01*
X7626051Y-8561162D01*
X7602712Y-8551495D01*
X7578651Y-8551495D01*
X7562776Y-8567370D01*
X7562776Y-8642300D01*
X7637706Y-8642300D01*
X7653581Y-8626425D01*
X7653581Y-8683575D01*
X7637706Y-8667700D01*
X7562776Y-8667700D01*
X7562776Y-8742630D01*
X7578651Y-8758505D01*
X7602712Y-8758505D01*
X7626051Y-8748838D01*
X7643914Y-8730975D01*
X7653581Y-8707636D01*
X7653581Y-8816512D01*
X7634433Y-8835660D01*
X7634433Y-8804995D01*
X7631215Y-8788409D01*
X7621639Y-8773831D01*
X7607182Y-8764072D01*
X7590081Y-8760643D01*
X7539839Y-8760643D01*
X7529601Y-8750405D01*
X7537376Y-8742630D01*
X7537376Y-8667700D01*
X7535376Y-8667700D01*
X7535376Y-8642300D01*
X7537376Y-8642300D01*
X7537376Y-8567370D01*
X7521501Y-8551495D01*
X7497440Y-8551495D01*
X7474101Y-8561162D01*
X7469730Y-8565534D01*
X7423548Y-8519352D01*
X7613000Y-8519352D01*
X7629586Y-8516134D01*
X7644164Y-8506558D01*
X7653923Y-8492101D01*
X7657352Y-8475000D01*
X7657352Y-8175000D01*
X7654134Y-8158414D01*
X7644558Y-8143836D01*
X7630101Y-8134077D01*
X7613000Y-8130648D01*
X7423548Y-8130648D01*
X7598196Y-7956000D01*
X8976804Y-7956000D01*
X9185402Y-8164598D01*
X9185402Y-8164598D01*
X9235402Y-8214598D01*
X9253570Y-8226737D01*
X9275000Y-8231000D01*
X9311812Y-8231000D01*
X9313866Y-8241586D01*
X9323442Y-8256164D01*
X9337899Y-8265923D01*
X9355000Y-8269352D01*
X9445000Y-8269352D01*
X9453005Y-8267799D01*
X9453005Y-8267799D01*
G37*
X9453005Y-8267799D02*
X9200500Y-8520304D01*
X9200500Y-8387700D01*
X9200500Y-8337700D01*
X9200500Y-8312300D01*
X9200500Y-8262300D01*
X9183194Y-8200698D01*
X9143632Y-8150408D01*
X9087836Y-8119086D01*
X9075043Y-8115988D01*
X9049700Y-8127922D01*
X9049700Y-8312300D01*
X9200500Y-8312300D01*
X9200500Y-8337700D01*
X9049700Y-8337700D01*
X9049700Y-8522078D01*
X9075043Y-8534012D01*
X9087836Y-8530914D01*
X9143632Y-8499592D01*
X9183194Y-8449302D01*
X9200500Y-8387700D01*
X9200500Y-8520304D01*
X9176804Y-8544000D01*
X9024300Y-8544000D01*
X9024300Y-8522078D01*
X9024300Y-8337700D01*
X9024300Y-8312300D01*
X9024300Y-8127922D01*
X8998957Y-8115988D01*
X8986165Y-8119086D01*
X8930368Y-8150408D01*
X8890806Y-8200698D01*
X8873500Y-8262300D01*
X8873500Y-8312300D01*
X9024300Y-8312300D01*
X9024300Y-8337700D01*
X8873500Y-8337700D01*
X8873500Y-8387700D01*
X8890806Y-8449302D01*
X8930368Y-8499592D01*
X8986165Y-8530914D01*
X8998957Y-8534012D01*
X9024300Y-8522078D01*
X9024300Y-8544000D01*
X8875000Y-8544000D01*
X8853570Y-8548263D01*
X8835402Y-8560402D01*
X8760402Y-8635402D01*
X8748263Y-8653570D01*
X8744000Y-8675000D01*
X8744000Y-8866304D01*
X8707091Y-8836798D01*
X8651243Y-8820637D01*
X8561200Y-8820637D01*
X8561200Y-8956400D01*
X8563200Y-8956400D01*
X8563200Y-8981800D01*
X8561200Y-8981800D01*
X8561200Y-8983800D01*
X8535800Y-8983800D01*
X8535800Y-8981800D01*
X8535800Y-8956400D01*
X8535800Y-8820637D01*
X8445757Y-8820637D01*
X8389909Y-8836798D01*
X8344498Y-8873101D01*
X8316435Y-8924019D01*
X8314346Y-8933417D01*
X8326479Y-8956400D01*
X8535800Y-8956400D01*
X8535800Y-8981800D01*
X8326479Y-8981800D01*
X8314346Y-9004783D01*
X8316435Y-9014181D01*
X8344498Y-9065099D01*
X8389909Y-9101402D01*
X8403598Y-9105363D01*
X8386032Y-9117100D01*
X7996900Y-9117100D01*
X7956336Y-9125169D01*
X7921947Y-9148147D01*
X7216593Y-9853500D01*
X7079352Y-9853500D01*
X7079352Y-9824500D01*
X7076134Y-9807914D01*
X7066558Y-9793336D01*
X7052101Y-9783577D01*
X7035000Y-9780148D01*
X6765000Y-9780148D01*
X6748414Y-9783366D01*
X6733836Y-9792942D01*
X6731000Y-9797143D01*
X6731000Y-9598917D01*
X6748587Y-9641480D01*
X6798756Y-9691737D01*
X6864338Y-9718969D01*
X6935350Y-9719031D01*
X7000980Y-9691913D01*
X7046472Y-9646500D01*
X7339500Y-9646500D01*
X7380064Y-9638431D01*
X7380064Y-9638431D01*
X7414453Y-9615453D01*
X8511164Y-8518743D01*
X8529000Y-8522291D01*
X8583915Y-8511368D01*
X8630470Y-8480261D01*
X8661577Y-8433706D01*
X8672500Y-8378791D01*
X8672500Y-8271209D01*
X8661577Y-8216294D01*
X8630470Y-8169739D01*
X8583915Y-8138632D01*
X8529000Y-8127709D01*
X8474085Y-8138632D01*
X8427530Y-8169739D01*
X8396423Y-8216294D01*
X8385500Y-8271209D01*
X8385500Y-8344593D01*
X8125983Y-8604110D01*
X8127000Y-8599000D01*
X8127000Y-8473481D01*
X8153577Y-8433706D01*
X8164500Y-8378791D01*
X8164500Y-8271209D01*
X8153577Y-8216294D01*
X8122470Y-8169739D01*
X8075915Y-8138632D01*
X8021000Y-8127709D01*
X7966085Y-8138632D01*
X7919530Y-8169739D01*
X7888423Y-8216294D01*
X7877500Y-8271209D01*
X7877500Y-8378791D01*
X7888423Y-8433706D01*
X7915000Y-8473481D01*
X7915000Y-8555093D01*
X7653581Y-8816512D01*
X7653581Y-8707636D01*
X7653581Y-8683575D01*
X7653581Y-8626425D01*
X7653581Y-8602364D01*
X7643914Y-8579025D01*
X7626051Y-8561162D01*
X7602712Y-8551495D01*
X7578651Y-8551495D01*
X7562776Y-8567370D01*
X7562776Y-8642300D01*
X7637706Y-8642300D01*
X7653581Y-8626425D01*
X7653581Y-8683575D01*
X7637706Y-8667700D01*
X7562776Y-8667700D01*
X7562776Y-8742630D01*
X7578651Y-8758505D01*
X7602712Y-8758505D01*
X7626051Y-8748838D01*
X7643914Y-8730975D01*
X7653581Y-8707636D01*
X7653581Y-8816512D01*
X7634433Y-8835660D01*
X7634433Y-8804995D01*
X7631215Y-8788409D01*
X7621639Y-8773831D01*
X7607182Y-8764072D01*
X7590081Y-8760643D01*
X7539839Y-8760643D01*
X7529601Y-8750405D01*
X7537376Y-8742630D01*
X7537376Y-8667700D01*
X7535376Y-8667700D01*
X7535376Y-8642300D01*
X7537376Y-8642300D01*
X7537376Y-8567370D01*
X7521501Y-8551495D01*
X7497440Y-8551495D01*
X7474101Y-8561162D01*
X7469730Y-8565534D01*
X7423548Y-8519352D01*
X7613000Y-8519352D01*
X7629586Y-8516134D01*
X7644164Y-8506558D01*
X7653923Y-8492101D01*
X7657352Y-8475000D01*
X7657352Y-8175000D01*
X7654134Y-8158414D01*
X7644558Y-8143836D01*
X7630101Y-8134077D01*
X7613000Y-8130648D01*
X7423548Y-8130648D01*
X7598196Y-7956000D01*
X8976804Y-7956000D01*
X9185402Y-8164598D01*
X9185402Y-8164598D01*
X9235402Y-8214598D01*
X9253570Y-8226737D01*
X9275000Y-8231000D01*
X9311812Y-8231000D01*
X9313866Y-8241586D01*
X9323442Y-8256164D01*
X9337899Y-8265923D01*
X9355000Y-8269352D01*
X9445000Y-8269352D01*
X9453005Y-8267799D01*
G36*
X12014700Y-7858700D02*
X12012700Y-7858700D01*
X12012700Y-7860700D01*
X11987300Y-7860700D01*
X11987300Y-7858700D01*
X11866553Y-7858700D01*
X11854503Y-7881903D01*
X11870738Y-7916542D01*
X11814598Y-7860402D01*
X11796430Y-7848263D01*
X11775000Y-7844000D01*
X11405000Y-7844000D01*
X11383570Y-7848263D01*
X11365402Y-7860402D01*
X11280156Y-7945648D01*
X11180000Y-7945648D01*
X11163414Y-7948866D01*
X11148836Y-7958442D01*
X11139077Y-7972899D01*
X11135648Y-7990000D01*
X11135648Y-8060000D01*
X11138866Y-8076586D01*
X11148442Y-8091164D01*
X11161608Y-8100052D01*
X11148836Y-8108442D01*
X11139077Y-8122899D01*
X11135648Y-8140000D01*
X11135648Y-8210000D01*
X11137201Y-8218005D01*
X11079598Y-8160402D01*
X11061430Y-8148263D01*
X11040000Y-8144000D01*
X10964352Y-8144000D01*
X10964352Y-8075000D01*
X10964352Y-8025000D01*
X10961134Y-8008414D01*
X10951558Y-7993836D01*
X10937101Y-7984077D01*
X10920000Y-7980648D01*
X10830000Y-7980648D01*
X10813414Y-7983866D01*
X10798836Y-7993442D01*
X10789077Y-8007899D01*
X10785648Y-8025000D01*
X10785648Y-8075000D01*
X10788866Y-8091586D01*
X10798442Y-8106164D01*
X10812899Y-8115923D01*
X10830000Y-8119352D01*
X10920000Y-8119352D01*
X10936586Y-8116134D01*
X10951164Y-8106558D01*
X10960923Y-8092101D01*
X10964352Y-8075000D01*
X10964352Y-8144000D01*
X10951666Y-8144000D01*
X10951558Y-8143836D01*
X10937101Y-8134077D01*
X10920000Y-8130648D01*
X10830000Y-8130648D01*
X10813414Y-8133866D01*
X10798836Y-8143442D01*
X10789077Y-8157899D01*
X10785648Y-8175000D01*
X10785648Y-8225000D01*
X10788866Y-8241586D01*
X10798442Y-8256164D01*
X10812899Y-8265923D01*
X10830000Y-8269352D01*
X10920000Y-8269352D01*
X10936586Y-8266134D01*
X10951164Y-8256558D01*
X10951541Y-8256000D01*
X11016804Y-8256000D01*
X11094000Y-8333196D01*
X11094000Y-8353026D01*
X11080350Y-8362147D01*
X11058998Y-8394103D01*
X11051500Y-8431797D01*
X11051500Y-8568203D01*
X11057484Y-8598288D01*
X11044999Y-8585803D01*
X11048500Y-8568203D01*
X11048500Y-8431797D01*
X11041002Y-8394103D01*
X11019650Y-8362147D01*
X10987694Y-8340795D01*
X10950000Y-8333297D01*
X10912306Y-8340795D01*
X10880350Y-8362147D01*
X10858998Y-8394103D01*
X10851500Y-8431797D01*
X10851500Y-8444000D01*
X10820000Y-8444000D01*
X10600000Y-8444000D01*
X10585984Y-8446788D01*
X10339352Y-8200156D01*
X10339352Y-8175000D01*
X10336134Y-8158414D01*
X10326558Y-8143836D01*
X10312101Y-8134077D01*
X10295000Y-8130648D01*
X10248548Y-8130648D01*
X10259844Y-8119352D01*
X10295000Y-8119352D01*
X10311586Y-8116134D01*
X10326164Y-8106558D01*
X10335923Y-8092101D01*
X10339352Y-8075000D01*
X10339352Y-8025000D01*
X10336134Y-8008414D01*
X10326558Y-7993836D01*
X10312101Y-7984077D01*
X10295000Y-7980648D01*
X10205000Y-7980648D01*
X10188414Y-7983866D01*
X10173836Y-7993442D01*
X10164077Y-8007899D01*
X10160648Y-8025000D01*
X10160648Y-8060156D01*
X10147769Y-8073035D01*
X10137503Y-8062770D01*
X10062700Y-8062770D01*
X10062700Y-8064770D01*
X10037300Y-8064770D01*
X10037300Y-8062770D01*
X9962497Y-8062770D01*
X9952232Y-8073035D01*
X9939352Y-8060156D01*
X9939352Y-8025000D01*
X9936134Y-8008414D01*
X9926558Y-7993836D01*
X9912101Y-7984077D01*
X9895000Y-7980648D01*
X9805000Y-7980648D01*
X9788414Y-7983866D01*
X9773836Y-7993442D01*
X9764077Y-8007899D01*
X9760648Y-8025000D01*
X9760648Y-8075000D01*
X9763866Y-8091586D01*
X9773442Y-8106164D01*
X9787899Y-8115923D01*
X9805000Y-8119352D01*
X9840156Y-8119352D01*
X9851452Y-8130648D01*
X9805000Y-8130648D01*
X9788414Y-8133866D01*
X9773836Y-8143442D01*
X9773459Y-8144000D01*
X9701666Y-8144000D01*
X9701558Y-8143836D01*
X9689462Y-8135671D01*
X9705970Y-8128833D01*
X9723833Y-8110970D01*
X9733500Y-8087631D01*
X9733500Y-8078375D01*
X9717625Y-8062500D01*
X9637700Y-8062500D01*
X9637700Y-8064700D01*
X9612300Y-8064700D01*
X9612300Y-8062500D01*
X9610300Y-8062500D01*
X9610300Y-8037500D01*
X9612300Y-8037500D01*
X9612300Y-8035300D01*
X9637700Y-8035300D01*
X9637700Y-8037500D01*
X9717625Y-8037500D01*
X9733500Y-8021625D01*
X9733500Y-8012369D01*
X9723833Y-7989030D01*
X9705970Y-7971167D01*
X9682631Y-7961500D01*
X9657369Y-7961500D01*
X9653575Y-7961500D01*
X9637700Y-7977375D01*
X9637700Y-7966496D01*
X9648196Y-7956000D01*
X9800000Y-7956000D01*
X9975020Y-7956000D01*
X9974152Y-7956359D01*
X9956289Y-7974222D01*
X9946622Y-7997561D01*
X9946622Y-8021495D01*
X9962497Y-8037370D01*
X10037300Y-8037370D01*
X10037300Y-8035370D01*
X10062700Y-8035370D01*
X10062700Y-8037370D01*
X10137503Y-8037370D01*
X10153378Y-8021495D01*
X10153378Y-7997561D01*
X10143711Y-7974222D01*
X10125848Y-7956359D01*
X10124980Y-7956000D01*
X10301804Y-7956000D01*
X10385648Y-8039844D01*
X10385648Y-8075000D01*
X10388866Y-8091586D01*
X10398442Y-8106164D01*
X10412899Y-8115923D01*
X10430000Y-8119352D01*
X10520000Y-8119352D01*
X10536586Y-8116134D01*
X10551164Y-8106558D01*
X10560923Y-8092101D01*
X10564352Y-8075000D01*
X10564352Y-8025000D01*
X10561134Y-8008414D01*
X10551558Y-7993836D01*
X10537101Y-7984077D01*
X10520000Y-7980648D01*
X10484844Y-7980648D01*
X10380196Y-7876000D01*
X10456804Y-7876000D01*
X10590808Y-8010003D01*
X10590770Y-8010192D01*
X10590770Y-8089948D01*
X10593988Y-8106534D01*
X10603564Y-8121112D01*
X10609301Y-8124984D01*
X10603958Y-8128494D01*
X10594199Y-8142951D01*
X10593989Y-8144000D01*
X10551666Y-8144000D01*
X10551558Y-8143836D01*
X10537101Y-8134077D01*
X10520000Y-8130648D01*
X10430000Y-8130648D01*
X10413414Y-8133866D01*
X10398836Y-8143442D01*
X10389077Y-8157899D01*
X10385648Y-8175000D01*
X10385648Y-8225000D01*
X10388866Y-8241586D01*
X10398442Y-8256164D01*
X10412899Y-8265923D01*
X10430000Y-8269352D01*
X10520000Y-8269352D01*
X10536586Y-8266134D01*
X10551164Y-8256558D01*
X10551541Y-8256000D01*
X10593911Y-8256000D01*
X10593988Y-8256394D01*
X10603564Y-8270972D01*
X10618021Y-8280731D01*
X10635122Y-8284160D01*
X10714878Y-8284160D01*
X10731464Y-8280942D01*
X10746042Y-8271366D01*
X10755801Y-8256909D01*
X10759230Y-8239808D01*
X10759230Y-8160052D01*
X10756012Y-8143466D01*
X10746436Y-8128888D01*
X10740699Y-8125015D01*
X10746042Y-8121506D01*
X10755801Y-8107049D01*
X10759230Y-8089948D01*
X10759230Y-8010192D01*
X10756012Y-7993606D01*
X10746436Y-7979028D01*
X10731979Y-7969269D01*
X10714878Y-7965840D01*
X10705036Y-7965840D01*
X10519598Y-7780402D01*
X10501430Y-7768263D01*
X10480000Y-7764000D01*
X7847952Y-7764000D01*
X7841689Y-7757726D01*
X7814684Y-7746513D01*
X7785444Y-7746487D01*
X7758420Y-7757653D01*
X7737726Y-7778311D01*
X7726513Y-7805316D01*
X7726487Y-7834556D01*
X7730389Y-7844000D01*
X7575000Y-7844000D01*
X7553570Y-7848263D01*
X7535402Y-7860402D01*
X7285402Y-8110402D01*
X7273263Y-8128570D01*
X7269000Y-8150000D01*
X7269000Y-8500000D01*
X7273263Y-8521430D01*
X7285402Y-8539598D01*
X7394000Y-8648196D01*
X7394000Y-8666408D01*
X7390183Y-8665643D01*
X7345017Y-8665643D01*
X7314776Y-8635402D01*
X7296608Y-8623263D01*
X7275178Y-8619000D01*
X7151666Y-8619000D01*
X7151558Y-8618836D01*
X7137101Y-8609077D01*
X7120000Y-8605648D01*
X7059844Y-8605648D01*
X7048548Y-8594352D01*
X7120000Y-8594352D01*
X7136586Y-8591134D01*
X7151164Y-8581558D01*
X7160923Y-8567101D01*
X7164352Y-8550000D01*
X7164352Y-8500000D01*
X7161134Y-8483414D01*
X7151558Y-8468836D01*
X7137101Y-8459077D01*
X7120000Y-8455648D01*
X7030000Y-8455648D01*
X7013414Y-8458866D01*
X6998836Y-8468442D01*
X6998459Y-8469000D01*
X6981089Y-8469000D01*
X6981012Y-8468606D01*
X6971436Y-8454028D01*
X6956979Y-8444269D01*
X6939878Y-8440840D01*
X6860122Y-8440840D01*
X6843536Y-8444058D01*
X6828958Y-8453634D01*
X6819199Y-8468091D01*
X6815770Y-8485192D01*
X6815770Y-8544000D01*
X6800000Y-8544000D01*
X6778570Y-8548263D01*
X6760402Y-8560402D01*
X6635402Y-8685402D01*
X6612700Y-8708104D01*
X6612700Y-8362700D01*
X6812566Y-8362700D01*
X6826379Y-8368436D01*
X6972978Y-8368564D01*
X6987169Y-8362700D01*
X7262700Y-8362700D01*
X7262700Y-8087434D01*
X7268436Y-8073621D01*
X7268564Y-7927022D01*
X7262700Y-7912831D01*
X7262700Y-7712700D01*
X11934652Y-7712700D01*
X11922505Y-7717731D01*
X11879318Y-7757151D01*
X11854503Y-7810097D01*
X11866553Y-7833300D01*
X11987300Y-7833300D01*
X11987300Y-7831300D01*
X12012700Y-7831300D01*
X12012700Y-7833300D01*
X12014700Y-7833300D01*
X12014700Y-7858700D01*
X12014700Y-7858700D01*
G37*
X12014700Y-7858700D02*
X12012700Y-7858700D01*
X12012700Y-7860700D01*
X11987300Y-7860700D01*
X11987300Y-7858700D01*
X11866553Y-7858700D01*
X11854503Y-7881903D01*
X11870738Y-7916542D01*
X11814598Y-7860402D01*
X11796430Y-7848263D01*
X11775000Y-7844000D01*
X11405000Y-7844000D01*
X11383570Y-7848263D01*
X11365402Y-7860402D01*
X11280156Y-7945648D01*
X11180000Y-7945648D01*
X11163414Y-7948866D01*
X11148836Y-7958442D01*
X11139077Y-7972899D01*
X11135648Y-7990000D01*
X11135648Y-8060000D01*
X11138866Y-8076586D01*
X11148442Y-8091164D01*
X11161608Y-8100052D01*
X11148836Y-8108442D01*
X11139077Y-8122899D01*
X11135648Y-8140000D01*
X11135648Y-8210000D01*
X11137201Y-8218005D01*
X11079598Y-8160402D01*
X11061430Y-8148263D01*
X11040000Y-8144000D01*
X10964352Y-8144000D01*
X10964352Y-8075000D01*
X10964352Y-8025000D01*
X10961134Y-8008414D01*
X10951558Y-7993836D01*
X10937101Y-7984077D01*
X10920000Y-7980648D01*
X10830000Y-7980648D01*
X10813414Y-7983866D01*
X10798836Y-7993442D01*
X10789077Y-8007899D01*
X10785648Y-8025000D01*
X10785648Y-8075000D01*
X10788866Y-8091586D01*
X10798442Y-8106164D01*
X10812899Y-8115923D01*
X10830000Y-8119352D01*
X10920000Y-8119352D01*
X10936586Y-8116134D01*
X10951164Y-8106558D01*
X10960923Y-8092101D01*
X10964352Y-8075000D01*
X10964352Y-8144000D01*
X10951666Y-8144000D01*
X10951558Y-8143836D01*
X10937101Y-8134077D01*
X10920000Y-8130648D01*
X10830000Y-8130648D01*
X10813414Y-8133866D01*
X10798836Y-8143442D01*
X10789077Y-8157899D01*
X10785648Y-8175000D01*
X10785648Y-8225000D01*
X10788866Y-8241586D01*
X10798442Y-8256164D01*
X10812899Y-8265923D01*
X10830000Y-8269352D01*
X10920000Y-8269352D01*
X10936586Y-8266134D01*
X10951164Y-8256558D01*
X10951541Y-8256000D01*
X11016804Y-8256000D01*
X11094000Y-8333196D01*
X11094000Y-8353026D01*
X11080350Y-8362147D01*
X11058998Y-8394103D01*
X11051500Y-8431797D01*
X11051500Y-8568203D01*
X11057484Y-8598288D01*
X11044999Y-8585803D01*
X11048500Y-8568203D01*
X11048500Y-8431797D01*
X11041002Y-8394103D01*
X11019650Y-8362147D01*
X10987694Y-8340795D01*
X10950000Y-8333297D01*
X10912306Y-8340795D01*
X10880350Y-8362147D01*
X10858998Y-8394103D01*
X10851500Y-8431797D01*
X10851500Y-8444000D01*
X10820000Y-8444000D01*
X10600000Y-8444000D01*
X10585984Y-8446788D01*
X10339352Y-8200156D01*
X10339352Y-8175000D01*
X10336134Y-8158414D01*
X10326558Y-8143836D01*
X10312101Y-8134077D01*
X10295000Y-8130648D01*
X10248548Y-8130648D01*
X10259844Y-8119352D01*
X10295000Y-8119352D01*
X10311586Y-8116134D01*
X10326164Y-8106558D01*
X10335923Y-8092101D01*
X10339352Y-8075000D01*
X10339352Y-8025000D01*
X10336134Y-8008414D01*
X10326558Y-7993836D01*
X10312101Y-7984077D01*
X10295000Y-7980648D01*
X10205000Y-7980648D01*
X10188414Y-7983866D01*
X10173836Y-7993442D01*
X10164077Y-8007899D01*
X10160648Y-8025000D01*
X10160648Y-8060156D01*
X10147769Y-8073035D01*
X10137503Y-8062770D01*
X10062700Y-8062770D01*
X10062700Y-8064770D01*
X10037300Y-8064770D01*
X10037300Y-8062770D01*
X9962497Y-8062770D01*
X9952232Y-8073035D01*
X9939352Y-8060156D01*
X9939352Y-8025000D01*
X9936134Y-8008414D01*
X9926558Y-7993836D01*
X9912101Y-7984077D01*
X9895000Y-7980648D01*
X9805000Y-7980648D01*
X9788414Y-7983866D01*
X9773836Y-7993442D01*
X9764077Y-8007899D01*
X9760648Y-8025000D01*
X9760648Y-8075000D01*
X9763866Y-8091586D01*
X9773442Y-8106164D01*
X9787899Y-8115923D01*
X9805000Y-8119352D01*
X9840156Y-8119352D01*
X9851452Y-8130648D01*
X9805000Y-8130648D01*
X9788414Y-8133866D01*
X9773836Y-8143442D01*
X9773459Y-8144000D01*
X9701666Y-8144000D01*
X9701558Y-8143836D01*
X9689462Y-8135671D01*
X9705970Y-8128833D01*
X9723833Y-8110970D01*
X9733500Y-8087631D01*
X9733500Y-8078375D01*
X9717625Y-8062500D01*
X9637700Y-8062500D01*
X9637700Y-8064700D01*
X9612300Y-8064700D01*
X9612300Y-8062500D01*
X9610300Y-8062500D01*
X9610300Y-8037500D01*
X9612300Y-8037500D01*
X9612300Y-8035300D01*
X9637700Y-8035300D01*
X9637700Y-8037500D01*
X9717625Y-8037500D01*
X9733500Y-8021625D01*
X9733500Y-8012369D01*
X9723833Y-7989030D01*
X9705970Y-7971167D01*
X9682631Y-7961500D01*
X9657369Y-7961500D01*
X9653575Y-7961500D01*
X9637700Y-7977375D01*
X9637700Y-7966496D01*
X9648196Y-7956000D01*
X9800000Y-7956000D01*
X9975020Y-7956000D01*
X9974152Y-7956359D01*
X9956289Y-7974222D01*
X9946622Y-7997561D01*
X9946622Y-8021495D01*
X9962497Y-8037370D01*
X10037300Y-8037370D01*
X10037300Y-8035370D01*
X10062700Y-8035370D01*
X10062700Y-8037370D01*
X10137503Y-8037370D01*
X10153378Y-8021495D01*
X10153378Y-7997561D01*
X10143711Y-7974222D01*
X10125848Y-7956359D01*
X10124980Y-7956000D01*
X10301804Y-7956000D01*
X10385648Y-8039844D01*
X10385648Y-8075000D01*
X10388866Y-8091586D01*
X10398442Y-8106164D01*
X10412899Y-8115923D01*
X10430000Y-8119352D01*
X10520000Y-8119352D01*
X10536586Y-8116134D01*
X10551164Y-8106558D01*
X10560923Y-8092101D01*
X10564352Y-8075000D01*
X10564352Y-8025000D01*
X10561134Y-8008414D01*
X10551558Y-7993836D01*
X10537101Y-7984077D01*
X10520000Y-7980648D01*
X10484844Y-7980648D01*
X10380196Y-7876000D01*
X10456804Y-7876000D01*
X10590808Y-8010003D01*
X10590770Y-8010192D01*
X10590770Y-8089948D01*
X10593988Y-8106534D01*
X10603564Y-8121112D01*
X10609301Y-8124984D01*
X10603958Y-8128494D01*
X10594199Y-8142951D01*
X10593989Y-8144000D01*
X10551666Y-8144000D01*
X10551558Y-8143836D01*
X10537101Y-8134077D01*
X10520000Y-8130648D01*
X10430000Y-8130648D01*
X10413414Y-8133866D01*
X10398836Y-8143442D01*
X10389077Y-8157899D01*
X10385648Y-8175000D01*
X10385648Y-8225000D01*
X10388866Y-8241586D01*
X10398442Y-8256164D01*
X10412899Y-8265923D01*
X10430000Y-8269352D01*
X10520000Y-8269352D01*
X10536586Y-8266134D01*
X10551164Y-8256558D01*
X10551541Y-8256000D01*
X10593911Y-8256000D01*
X10593988Y-8256394D01*
X10603564Y-8270972D01*
X10618021Y-8280731D01*
X10635122Y-8284160D01*
X10714878Y-8284160D01*
X10731464Y-8280942D01*
X10746042Y-8271366D01*
X10755801Y-8256909D01*
X10759230Y-8239808D01*
X10759230Y-8160052D01*
X10756012Y-8143466D01*
X10746436Y-8128888D01*
X10740699Y-8125015D01*
X10746042Y-8121506D01*
X10755801Y-8107049D01*
X10759230Y-8089948D01*
X10759230Y-8010192D01*
X10756012Y-7993606D01*
X10746436Y-7979028D01*
X10731979Y-7969269D01*
X10714878Y-7965840D01*
X10705036Y-7965840D01*
X10519598Y-7780402D01*
X10501430Y-7768263D01*
X10480000Y-7764000D01*
X7847952Y-7764000D01*
X7841689Y-7757726D01*
X7814684Y-7746513D01*
X7785444Y-7746487D01*
X7758420Y-7757653D01*
X7737726Y-7778311D01*
X7726513Y-7805316D01*
X7726487Y-7834556D01*
X7730389Y-7844000D01*
X7575000Y-7844000D01*
X7553570Y-7848263D01*
X7535402Y-7860402D01*
X7285402Y-8110402D01*
X7273263Y-8128570D01*
X7269000Y-8150000D01*
X7269000Y-8500000D01*
X7273263Y-8521430D01*
X7285402Y-8539598D01*
X7394000Y-8648196D01*
X7394000Y-8666408D01*
X7390183Y-8665643D01*
X7345017Y-8665643D01*
X7314776Y-8635402D01*
X7296608Y-8623263D01*
X7275178Y-8619000D01*
X7151666Y-8619000D01*
X7151558Y-8618836D01*
X7137101Y-8609077D01*
X7120000Y-8605648D01*
X7059844Y-8605648D01*
X7048548Y-8594352D01*
X7120000Y-8594352D01*
X7136586Y-8591134D01*
X7151164Y-8581558D01*
X7160923Y-8567101D01*
X7164352Y-8550000D01*
X7164352Y-8500000D01*
X7161134Y-8483414D01*
X7151558Y-8468836D01*
X7137101Y-8459077D01*
X7120000Y-8455648D01*
X7030000Y-8455648D01*
X7013414Y-8458866D01*
X6998836Y-8468442D01*
X6998459Y-8469000D01*
X6981089Y-8469000D01*
X6981012Y-8468606D01*
X6971436Y-8454028D01*
X6956979Y-8444269D01*
X6939878Y-8440840D01*
X6860122Y-8440840D01*
X6843536Y-8444058D01*
X6828958Y-8453634D01*
X6819199Y-8468091D01*
X6815770Y-8485192D01*
X6815770Y-8544000D01*
X6800000Y-8544000D01*
X6778570Y-8548263D01*
X6760402Y-8560402D01*
X6635402Y-8685402D01*
X6612700Y-8708104D01*
X6612700Y-8362700D01*
X6812566Y-8362700D01*
X6826379Y-8368436D01*
X6972978Y-8368564D01*
X6987169Y-8362700D01*
X7262700Y-8362700D01*
X7262700Y-8087434D01*
X7268436Y-8073621D01*
X7268564Y-7927022D01*
X7262700Y-7912831D01*
X7262700Y-7712700D01*
X11934652Y-7712700D01*
X11922505Y-7717731D01*
X11879318Y-7757151D01*
X11854503Y-7810097D01*
X11866553Y-7833300D01*
X11987300Y-7833300D01*
X11987300Y-7831300D01*
X12012700Y-7831300D01*
X12012700Y-7833300D01*
X12014700Y-7833300D01*
X12014700Y-7858700D01*
G36*
X12544000Y-10726804D02*
X12387300Y-10883504D01*
X12387300Y-10697511D01*
X12387300Y-10487580D01*
X12232360Y-10487580D01*
X12216485Y-10503455D01*
X12216485Y-10662517D01*
X12226152Y-10685856D01*
X12244015Y-10703719D01*
X12267354Y-10713386D01*
X12292616Y-10713386D01*
X12371425Y-10713386D01*
X12387300Y-10697511D01*
X12387300Y-10883504D01*
X12365042Y-10905762D01*
X12279985Y-10905762D01*
X12263399Y-10908980D01*
X12248821Y-10918556D01*
X12239062Y-10933013D01*
X12236859Y-10944000D01*
X11944352Y-10944000D01*
X11944352Y-10750000D01*
X11941134Y-10733414D01*
X11931558Y-10718836D01*
X11917101Y-10709077D01*
X11900000Y-10705648D01*
X11806000Y-10705648D01*
X11806000Y-10425001D01*
X11806000Y-10425000D01*
X11806000Y-10425000D01*
X11801737Y-10403570D01*
X11789598Y-10385402D01*
X11789598Y-10385402D01*
X11789598Y-10385402D01*
X11706000Y-10301804D01*
X11706000Y-10254992D01*
X11712306Y-10259205D01*
X11750000Y-10266703D01*
X11787694Y-10259205D01*
X11819650Y-10237853D01*
X11841002Y-10205898D01*
X11848500Y-10168203D01*
X11848500Y-10031797D01*
X11841002Y-9994103D01*
X11819650Y-9962147D01*
X11806000Y-9953026D01*
X11806000Y-9896556D01*
X11876841Y-9967398D01*
X11858998Y-9994103D01*
X11851500Y-10031797D01*
X11851500Y-10168203D01*
X11858998Y-10205898D01*
X11880350Y-10237853D01*
X11912306Y-10259205D01*
X11950000Y-10266703D01*
X11987694Y-10259205D01*
X12019650Y-10237853D01*
X12041002Y-10205898D01*
X12048500Y-10168203D01*
X12048500Y-10031797D01*
X12041002Y-9994103D01*
X12019650Y-9962147D01*
X12004088Y-9951749D01*
X12001737Y-9939930D01*
X11989598Y-9921762D01*
X10623836Y-8556000D01*
X10820000Y-8556000D01*
X10851500Y-8556000D01*
X10851500Y-8568203D01*
X10858998Y-8605898D01*
X10880350Y-8637853D01*
X10912306Y-8659205D01*
X10950000Y-8666703D01*
X10964603Y-8663799D01*
X11120402Y-8819598D01*
X11120402Y-8819598D01*
X11138570Y-8831737D01*
X11160000Y-8836000D01*
X12081804Y-8836000D01*
X12256137Y-9010333D01*
X12238420Y-9017653D01*
X12232667Y-9023397D01*
X12222347Y-8998420D01*
X12201689Y-8977726D01*
X12174684Y-8966513D01*
X12145444Y-8966487D01*
X12118420Y-8977653D01*
X12097726Y-8998311D01*
X12086513Y-9025316D01*
X12086487Y-9054556D01*
X12094000Y-9072738D01*
X12094000Y-9953026D01*
X12080350Y-9962147D01*
X12058998Y-9994103D01*
X12051500Y-10031797D01*
X12051500Y-10168203D01*
X12058998Y-10205898D01*
X12080350Y-10237853D01*
X12112306Y-10259205D01*
X12150000Y-10266703D01*
X12187694Y-10259205D01*
X12219650Y-10237853D01*
X12241002Y-10205898D01*
X12248500Y-10168203D01*
X12248500Y-10031797D01*
X12241002Y-9994103D01*
X12219650Y-9962147D01*
X12206000Y-9953026D01*
X12206000Y-9097934D01*
X12207333Y-9096603D01*
X12217653Y-9121580D01*
X12238311Y-9142274D01*
X12265316Y-9153487D01*
X12274299Y-9153495D01*
X12294000Y-9173196D01*
X12294000Y-9953026D01*
X12280350Y-9962147D01*
X12258998Y-9994103D01*
X12251500Y-10031797D01*
X12251500Y-10168203D01*
X12258998Y-10205898D01*
X12279362Y-10236374D01*
X12267354Y-10236374D01*
X12244015Y-10246041D01*
X12226152Y-10263904D01*
X12216485Y-10287243D01*
X12216485Y-10446305D01*
X12232360Y-10462180D01*
X12387300Y-10462180D01*
X12387300Y-10460180D01*
X12412700Y-10460180D01*
X12412700Y-10462180D01*
X12414700Y-10462180D01*
X12414700Y-10487580D01*
X12412700Y-10487580D01*
X12412700Y-10697511D01*
X12428575Y-10713386D01*
X12507384Y-10713386D01*
X12532646Y-10713386D01*
X12544000Y-10708683D01*
X12544000Y-10726804D01*
X12544000Y-10726804D01*
G37*
X12544000Y-10726804D02*
X12387300Y-10883504D01*
X12387300Y-10697511D01*
X12387300Y-10487580D01*
X12232360Y-10487580D01*
X12216485Y-10503455D01*
X12216485Y-10662517D01*
X12226152Y-10685856D01*
X12244015Y-10703719D01*
X12267354Y-10713386D01*
X12292616Y-10713386D01*
X12371425Y-10713386D01*
X12387300Y-10697511D01*
X12387300Y-10883504D01*
X12365042Y-10905762D01*
X12279985Y-10905762D01*
X12263399Y-10908980D01*
X12248821Y-10918556D01*
X12239062Y-10933013D01*
X12236859Y-10944000D01*
X11944352Y-10944000D01*
X11944352Y-10750000D01*
X11941134Y-10733414D01*
X11931558Y-10718836D01*
X11917101Y-10709077D01*
X11900000Y-10705648D01*
X11806000Y-10705648D01*
X11806000Y-10425001D01*
X11806000Y-10425000D01*
X11806000Y-10425000D01*
X11801737Y-10403570D01*
X11789598Y-10385402D01*
X11789598Y-10385402D01*
X11789598Y-10385402D01*
X11706000Y-10301804D01*
X11706000Y-10254992D01*
X11712306Y-10259205D01*
X11750000Y-10266703D01*
X11787694Y-10259205D01*
X11819650Y-10237853D01*
X11841002Y-10205898D01*
X11848500Y-10168203D01*
X11848500Y-10031797D01*
X11841002Y-9994103D01*
X11819650Y-9962147D01*
X11806000Y-9953026D01*
X11806000Y-9896556D01*
X11876841Y-9967398D01*
X11858998Y-9994103D01*
X11851500Y-10031797D01*
X11851500Y-10168203D01*
X11858998Y-10205898D01*
X11880350Y-10237853D01*
X11912306Y-10259205D01*
X11950000Y-10266703D01*
X11987694Y-10259205D01*
X12019650Y-10237853D01*
X12041002Y-10205898D01*
X12048500Y-10168203D01*
X12048500Y-10031797D01*
X12041002Y-9994103D01*
X12019650Y-9962147D01*
X12004088Y-9951749D01*
X12001737Y-9939930D01*
X11989598Y-9921762D01*
X10623836Y-8556000D01*
X10820000Y-8556000D01*
X10851500Y-8556000D01*
X10851500Y-8568203D01*
X10858998Y-8605898D01*
X10880350Y-8637853D01*
X10912306Y-8659205D01*
X10950000Y-8666703D01*
X10964603Y-8663799D01*
X11120402Y-8819598D01*
X11120402Y-8819598D01*
X11138570Y-8831737D01*
X11160000Y-8836000D01*
X12081804Y-8836000D01*
X12256137Y-9010333D01*
X12238420Y-9017653D01*
X12232667Y-9023397D01*
X12222347Y-8998420D01*
X12201689Y-8977726D01*
X12174684Y-8966513D01*
X12145444Y-8966487D01*
X12118420Y-8977653D01*
X12097726Y-8998311D01*
X12086513Y-9025316D01*
X12086487Y-9054556D01*
X12094000Y-9072738D01*
X12094000Y-9953026D01*
X12080350Y-9962147D01*
X12058998Y-9994103D01*
X12051500Y-10031797D01*
X12051500Y-10168203D01*
X12058998Y-10205898D01*
X12080350Y-10237853D01*
X12112306Y-10259205D01*
X12150000Y-10266703D01*
X12187694Y-10259205D01*
X12219650Y-10237853D01*
X12241002Y-10205898D01*
X12248500Y-10168203D01*
X12248500Y-10031797D01*
X12241002Y-9994103D01*
X12219650Y-9962147D01*
X12206000Y-9953026D01*
X12206000Y-9097934D01*
X12207333Y-9096603D01*
X12217653Y-9121580D01*
X12238311Y-9142274D01*
X12265316Y-9153487D01*
X12274299Y-9153495D01*
X12294000Y-9173196D01*
X12294000Y-9953026D01*
X12280350Y-9962147D01*
X12258998Y-9994103D01*
X12251500Y-10031797D01*
X12251500Y-10168203D01*
X12258998Y-10205898D01*
X12279362Y-10236374D01*
X12267354Y-10236374D01*
X12244015Y-10246041D01*
X12226152Y-10263904D01*
X12216485Y-10287243D01*
X12216485Y-10446305D01*
X12232360Y-10462180D01*
X12387300Y-10462180D01*
X12387300Y-10460180D01*
X12412700Y-10460180D01*
X12412700Y-10462180D01*
X12414700Y-10462180D01*
X12414700Y-10487580D01*
X12412700Y-10487580D01*
X12412700Y-10697511D01*
X12428575Y-10713386D01*
X12507384Y-10713386D01*
X12532646Y-10713386D01*
X12544000Y-10708683D01*
X12544000Y-10726804D01*
G36*
X13387300Y-11137300D02*
X13187434Y-11137300D01*
X13173621Y-11131564D01*
X13027022Y-11131436D01*
X13012831Y-11137300D01*
X12737300Y-11137300D01*
X12737300Y-11412566D01*
X12731564Y-11426379D01*
X12731436Y-11572978D01*
X12737300Y-11587169D01*
X12737300Y-11787300D01*
X7262700Y-11787300D01*
X7262700Y-11587434D01*
X7268436Y-11573621D01*
X7268564Y-11427022D01*
X7262700Y-11412831D01*
X7262700Y-11137300D01*
X6987434Y-11137300D01*
X6973621Y-11131564D01*
X6827022Y-11131436D01*
X6812831Y-11137300D01*
X6612700Y-11137300D01*
X6612700Y-10741896D01*
X6744000Y-10873196D01*
X6744000Y-10875000D01*
X6748263Y-10896430D01*
X6760402Y-10914598D01*
X6785402Y-10939598D01*
X6803570Y-10951737D01*
X6815770Y-10954164D01*
X6815770Y-11014808D01*
X6818988Y-11031394D01*
X6828564Y-11045972D01*
X6843021Y-11055731D01*
X6860122Y-11059160D01*
X6939878Y-11059160D01*
X6956464Y-11055942D01*
X6971042Y-11046366D01*
X6980801Y-11031909D01*
X6980997Y-11030930D01*
X6998288Y-11030930D01*
X6998442Y-11031164D01*
X7012899Y-11040923D01*
X7030000Y-11044352D01*
X7120000Y-11044352D01*
X7136586Y-11041134D01*
X7151164Y-11031558D01*
X7160923Y-11017101D01*
X7164352Y-11000000D01*
X7164352Y-10950000D01*
X7161134Y-10933414D01*
X7151558Y-10918836D01*
X7137101Y-10909077D01*
X7120000Y-10905648D01*
X7073548Y-10905648D01*
X7084844Y-10894352D01*
X7120000Y-10894352D01*
X7136586Y-10891134D01*
X7151164Y-10881558D01*
X7160923Y-10867101D01*
X7164352Y-10850000D01*
X7164352Y-10800000D01*
X7162799Y-10791995D01*
X7644000Y-11273196D01*
X7644000Y-11600000D01*
X7648263Y-11621430D01*
X7660402Y-11639598D01*
X7710402Y-11689598D01*
X7728570Y-11701737D01*
X7750000Y-11706000D01*
X10750000Y-11706000D01*
X10825000Y-11706000D01*
X10846430Y-11701737D01*
X10864598Y-11689598D01*
X11048196Y-11506000D01*
X11377048Y-11506000D01*
X11383311Y-11512274D01*
X11410316Y-11523487D01*
X11439556Y-11523513D01*
X11466580Y-11512347D01*
X11487274Y-11491689D01*
X11498487Y-11464684D01*
X11498513Y-11435444D01*
X11487347Y-11408420D01*
X11466689Y-11387726D01*
X11439684Y-11376513D01*
X11410444Y-11376487D01*
X11383420Y-11387653D01*
X11377062Y-11394000D01*
X11137300Y-11394000D01*
X11137300Y-10266836D01*
X11137300Y-10112700D01*
X11137300Y-10087300D01*
X11137300Y-9933164D01*
X11119026Y-9920620D01*
X11116385Y-9920660D01*
X11075188Y-9942228D01*
X11050000Y-9972387D01*
X11024812Y-9942228D01*
X10983615Y-9920660D01*
X10980974Y-9920620D01*
X10962700Y-9933164D01*
X10962700Y-10087300D01*
X11031500Y-10087300D01*
X11068500Y-10087300D01*
X11137300Y-10087300D01*
X11137300Y-10112700D01*
X11068500Y-10112700D01*
X11031500Y-10112700D01*
X10962700Y-10112700D01*
X10962700Y-10266836D01*
X10980974Y-10279380D01*
X10983615Y-10279340D01*
X11024812Y-10257772D01*
X11050000Y-10227613D01*
X11075188Y-10257772D01*
X11116385Y-10279340D01*
X11119026Y-10279380D01*
X11137300Y-10266836D01*
X11137300Y-11394000D01*
X11025000Y-11394000D01*
X11003570Y-11398263D01*
X10985402Y-11410402D01*
X10801804Y-11594000D01*
X10750000Y-11594000D01*
X10293500Y-11594000D01*
X10293500Y-10237631D01*
X10293500Y-10212369D01*
X10293500Y-10128575D01*
X10293500Y-10071425D01*
X10293500Y-9987631D01*
X10293500Y-9962369D01*
X10283833Y-9939030D01*
X10265970Y-9921167D01*
X10242631Y-9911500D01*
X10158575Y-9911500D01*
X10142700Y-9927375D01*
X10142700Y-10087300D01*
X10277625Y-10087300D01*
X10293500Y-10071425D01*
X10293500Y-10128575D01*
X10277625Y-10112700D01*
X10142700Y-10112700D01*
X10142700Y-10272625D01*
X10158575Y-10288500D01*
X10242631Y-10288500D01*
X10265970Y-10278833D01*
X10283833Y-10260970D01*
X10293500Y-10237631D01*
X10293500Y-11594000D01*
X10283515Y-11594000D01*
X10283515Y-10812606D01*
X10283515Y-10628525D01*
X10283515Y-10571375D01*
X10283515Y-10387294D01*
X10273848Y-10363955D01*
X10255985Y-10346092D01*
X10232646Y-10336425D01*
X10207384Y-10336425D01*
X10128575Y-10336425D01*
X10117300Y-10347700D01*
X10117300Y-10272625D01*
X10117300Y-10112700D01*
X9982375Y-10112700D01*
X9966500Y-10128575D01*
X9966500Y-10212369D01*
X9966500Y-10237631D01*
X9976167Y-10260970D01*
X9994030Y-10278833D01*
X10017369Y-10288500D01*
X10101425Y-10288500D01*
X10117300Y-10272625D01*
X10117300Y-10347700D01*
X10112700Y-10352300D01*
X10112700Y-10587250D01*
X10267640Y-10587250D01*
X10283515Y-10571375D01*
X10283515Y-10628525D01*
X10267640Y-10612650D01*
X10112700Y-10612650D01*
X10112700Y-10847600D01*
X10128575Y-10863475D01*
X10207384Y-10863475D01*
X10232646Y-10863475D01*
X10255985Y-10853808D01*
X10273848Y-10835945D01*
X10283515Y-10812606D01*
X10283515Y-11594000D01*
X10264367Y-11594000D01*
X10264367Y-11200025D01*
X10261149Y-11183439D01*
X10251573Y-11168861D01*
X10237116Y-11159102D01*
X10220015Y-11155673D01*
X10087300Y-11155673D01*
X10087300Y-10847600D01*
X10087300Y-10612650D01*
X10087300Y-10587250D01*
X10087300Y-10352300D01*
X10071425Y-10336425D01*
X9992616Y-10336425D01*
X9967354Y-10336425D01*
X9944015Y-10346092D01*
X9926152Y-10363955D01*
X9916485Y-10387294D01*
X9916485Y-10571375D01*
X9932360Y-10587250D01*
X10087300Y-10587250D01*
X10087300Y-10612650D01*
X9932360Y-10612650D01*
X9916485Y-10628525D01*
X9916485Y-10812606D01*
X9926152Y-10835945D01*
X9944015Y-10853808D01*
X9967354Y-10863475D01*
X9992616Y-10863475D01*
X10071425Y-10863475D01*
X10087300Y-10847600D01*
X10087300Y-11155673D01*
X10010224Y-11155673D01*
X9881000Y-11026449D01*
X9881000Y-10093551D01*
X9966500Y-10008051D01*
X9966500Y-10071425D01*
X9982375Y-10087300D01*
X10117300Y-10087300D01*
X10117300Y-9927375D01*
X10101425Y-9911500D01*
X10063051Y-9911500D01*
X10283519Y-9691032D01*
X10299337Y-9691032D01*
X10304142Y-9698346D01*
X10318599Y-9708105D01*
X10335700Y-9711534D01*
X10564300Y-9711534D01*
X10580886Y-9708316D01*
X10595464Y-9698740D01*
X10605223Y-9684283D01*
X10608652Y-9667182D01*
X10608652Y-9562848D01*
X10619000Y-9573196D01*
X10619000Y-9876804D01*
X10565156Y-9930648D01*
X10370000Y-9930648D01*
X10353414Y-9933866D01*
X10338836Y-9943442D01*
X10329077Y-9957899D01*
X10325648Y-9975000D01*
X10325648Y-10225000D01*
X10328866Y-10241586D01*
X10338442Y-10256164D01*
X10352899Y-10265923D01*
X10370000Y-10269352D01*
X10515156Y-10269352D01*
X10794000Y-10548196D01*
X10794000Y-10705648D01*
X10700000Y-10705648D01*
X10683414Y-10708866D01*
X10668836Y-10718442D01*
X10659077Y-10732899D01*
X10655648Y-10750000D01*
X10655648Y-11250000D01*
X10658866Y-11266586D01*
X10668442Y-11281164D01*
X10682899Y-11290923D01*
X10700000Y-11294352D01*
X11000000Y-11294352D01*
X11016586Y-11291134D01*
X11031164Y-11281558D01*
X11040923Y-11267101D01*
X11044352Y-11250000D01*
X11044352Y-10750000D01*
X11041134Y-10733414D01*
X11031558Y-10718836D01*
X11017101Y-10709077D01*
X11000000Y-10705648D01*
X10937300Y-10705648D01*
X10937300Y-10266836D01*
X10937300Y-10112700D01*
X10937300Y-10087300D01*
X10937300Y-9933164D01*
X10919026Y-9920620D01*
X10916385Y-9920660D01*
X10875188Y-9942228D01*
X10845380Y-9977919D01*
X10831500Y-10022300D01*
X10831500Y-10087300D01*
X10937300Y-10087300D01*
X10937300Y-10112700D01*
X10831500Y-10112700D01*
X10831500Y-10177700D01*
X10845380Y-10222081D01*
X10875188Y-10257772D01*
X10916385Y-10279340D01*
X10919026Y-10279380D01*
X10937300Y-10266836D01*
X10937300Y-10705648D01*
X10906000Y-10705648D01*
X10906000Y-10525001D01*
X10906000Y-10525000D01*
X10906000Y-10525000D01*
X10901737Y-10503570D01*
X10889598Y-10485402D01*
X10889598Y-10485402D01*
X10889598Y-10485402D01*
X10614352Y-10210156D01*
X10614352Y-10039844D01*
X10714598Y-9939598D01*
X10726737Y-9921430D01*
X10731000Y-9900000D01*
X10731000Y-9550000D01*
X10726737Y-9528570D01*
X10714598Y-9510402D01*
X10608652Y-9404456D01*
X10608652Y-9382702D01*
X10606999Y-9374180D01*
X10618133Y-9363046D01*
X10627800Y-9339707D01*
X10627800Y-9298501D01*
X10611925Y-9282626D01*
X10462700Y-9282626D01*
X10462700Y-9284626D01*
X10437300Y-9284626D01*
X10437300Y-9282626D01*
X10288075Y-9282626D01*
X10272200Y-9298501D01*
X10272200Y-9339707D01*
X10281867Y-9363046D01*
X10293048Y-9374226D01*
X10291348Y-9382702D01*
X10291348Y-9497002D01*
X10294566Y-9513588D01*
X10302058Y-9524994D01*
X10299333Y-9529032D01*
X10249968Y-9529032D01*
X10218971Y-9535198D01*
X10205832Y-9543977D01*
X10192692Y-9552756D01*
X9742724Y-10002724D01*
X9725166Y-10029003D01*
X9719000Y-10060000D01*
X9719000Y-11060000D01*
X9725166Y-11090997D01*
X9742724Y-11117276D01*
X9919499Y-11294050D01*
X9183515Y-11294050D01*
X9183515Y-10812606D01*
X9183515Y-10628525D01*
X9183515Y-10571375D01*
X9183515Y-10387294D01*
X9173848Y-10363955D01*
X9155985Y-10346092D01*
X9132646Y-10336425D01*
X9107384Y-10336425D01*
X9028575Y-10336425D01*
X9012700Y-10352300D01*
X9012700Y-10587250D01*
X9167640Y-10587250D01*
X9183515Y-10571375D01*
X9183515Y-10628525D01*
X9167640Y-10612650D01*
X9012700Y-10612650D01*
X9012700Y-10847600D01*
X9028575Y-10863475D01*
X9107384Y-10863475D01*
X9132646Y-10863475D01*
X9155985Y-10853808D01*
X9173848Y-10835945D01*
X9183515Y-10812606D01*
X9183515Y-11294050D01*
X9164367Y-11294050D01*
X9164367Y-11200025D01*
X9161149Y-11183439D01*
X9151573Y-11168861D01*
X9137116Y-11159102D01*
X9120015Y-11155673D01*
X9025579Y-11155673D01*
X8987300Y-11117393D01*
X8987300Y-10847600D01*
X8987300Y-10612650D01*
X8987300Y-10587250D01*
X8987300Y-10352300D01*
X8971425Y-10336425D01*
X8892616Y-10336425D01*
X8867354Y-10336425D01*
X8844015Y-10346092D01*
X8826152Y-10363955D01*
X8816485Y-10387294D01*
X8816485Y-10571375D01*
X8832360Y-10587250D01*
X8987300Y-10587250D01*
X8987300Y-10612650D01*
X8832360Y-10612650D01*
X8816485Y-10628525D01*
X8816485Y-10812606D01*
X8826152Y-10835945D01*
X8844015Y-10853808D01*
X8867354Y-10863475D01*
X8892616Y-10863475D01*
X8971425Y-10863475D01*
X8987300Y-10847600D01*
X8987300Y-11117393D01*
X8406000Y-10536093D01*
X8406000Y-9860000D01*
X8397931Y-9819436D01*
X8397931Y-9819436D01*
X8374953Y-9785047D01*
X8094953Y-9505047D01*
X8084345Y-9497959D01*
X8078705Y-9492308D01*
X8071266Y-9489219D01*
X8060564Y-9482069D01*
X8048051Y-9479580D01*
X8040678Y-9476518D01*
X8032623Y-9476511D01*
X8020000Y-9474000D01*
X8007487Y-9476489D01*
X7999503Y-9476482D01*
X7992059Y-9479558D01*
X7979435Y-9482069D01*
X7968827Y-9489157D01*
X7961448Y-9492206D01*
X7955748Y-9497896D01*
X7945047Y-9505047D01*
X7937959Y-9515655D01*
X7932308Y-9521295D01*
X7929219Y-9528734D01*
X7922069Y-9539436D01*
X7919580Y-9551949D01*
X7916518Y-9559322D01*
X7916511Y-9567376D01*
X7914000Y-9580000D01*
X7916489Y-9592513D01*
X7916482Y-9600497D01*
X7919558Y-9607941D01*
X7922069Y-9620565D01*
X7929157Y-9631173D01*
X7932206Y-9638552D01*
X7937896Y-9644252D01*
X7945047Y-9654953D01*
X8194000Y-9903907D01*
X8194000Y-10580000D01*
X8202069Y-10620565D01*
X8225047Y-10654953D01*
X8835633Y-11265539D01*
X8835633Y-11294050D01*
X8083515Y-11294050D01*
X8083515Y-10812606D01*
X8083515Y-10628525D01*
X8083515Y-10571375D01*
X8083515Y-10387294D01*
X8073848Y-10363955D01*
X8055985Y-10346092D01*
X8032646Y-10336425D01*
X8007384Y-10336425D01*
X7928575Y-10336425D01*
X7912700Y-10352300D01*
X7912700Y-10587250D01*
X8067640Y-10587250D01*
X8083515Y-10571375D01*
X8083515Y-10628525D01*
X8067640Y-10612650D01*
X7912700Y-10612650D01*
X7912700Y-10847600D01*
X7928575Y-10863475D01*
X8007384Y-10863475D01*
X8032646Y-10863475D01*
X8055985Y-10853808D01*
X8073848Y-10835945D01*
X8083515Y-10812606D01*
X8083515Y-11294050D01*
X8064367Y-11294050D01*
X8064367Y-11200025D01*
X8061149Y-11183439D01*
X8051573Y-11168861D01*
X8037116Y-11159102D01*
X8020015Y-11155673D01*
X7965579Y-11155673D01*
X7887300Y-11077393D01*
X7887300Y-10847600D01*
X7887300Y-10612650D01*
X7887300Y-10587250D01*
X7887300Y-10352300D01*
X7871425Y-10336425D01*
X7792616Y-10336425D01*
X7767354Y-10336425D01*
X7744015Y-10346092D01*
X7726152Y-10363955D01*
X7716485Y-10387294D01*
X7716485Y-10571375D01*
X7732360Y-10587250D01*
X7887300Y-10587250D01*
X7887300Y-10612650D01*
X7732360Y-10612650D01*
X7716485Y-10628525D01*
X7716485Y-10812606D01*
X7726152Y-10835945D01*
X7744015Y-10853808D01*
X7767354Y-10863475D01*
X7792616Y-10863475D01*
X7871425Y-10863475D01*
X7887300Y-10847600D01*
X7887300Y-11077393D01*
X7075453Y-10265547D01*
X7057100Y-10253284D01*
X7051413Y-10239520D01*
X7001244Y-10189263D01*
X6935662Y-10162031D01*
X6864650Y-10161969D01*
X6799020Y-10189087D01*
X6748763Y-10239256D01*
X6731000Y-10282035D01*
X6731000Y-10121947D01*
X6733442Y-10125664D01*
X6747899Y-10135423D01*
X6765000Y-10138852D01*
X7035000Y-10138852D01*
X7051586Y-10135634D01*
X7066164Y-10126058D01*
X7075923Y-10111601D01*
X7079352Y-10094500D01*
X7079352Y-10065500D01*
X7260500Y-10065500D01*
X7301064Y-10057431D01*
X7301064Y-10057431D01*
X7335453Y-10034453D01*
X8040807Y-9329100D01*
X8386032Y-9329100D01*
X8405016Y-9341784D01*
X8446821Y-9350100D01*
X8405016Y-9358416D01*
X8363339Y-9386263D01*
X8335492Y-9427939D01*
X8325713Y-9477100D01*
X8335492Y-9526261D01*
X8363339Y-9567937D01*
X8405016Y-9595784D01*
X8454176Y-9605563D01*
X8642824Y-9605563D01*
X8691985Y-9595784D01*
X8733661Y-9567937D01*
X8761508Y-9526261D01*
X8771287Y-9477100D01*
X8761508Y-9427939D01*
X8733661Y-9386263D01*
X8691985Y-9358416D01*
X8650179Y-9350100D01*
X8691985Y-9341784D01*
X8733661Y-9313937D01*
X8761508Y-9272261D01*
X8771287Y-9223100D01*
X8768766Y-9210429D01*
X8839598Y-9139598D01*
X8839598Y-9139598D01*
X8839598Y-9139598D01*
X8851737Y-9121430D01*
X8856000Y-9100000D01*
X8856000Y-8698196D01*
X8898196Y-8656000D01*
X9200000Y-8656000D01*
X9221430Y-8651737D01*
X9239598Y-8639598D01*
X9246489Y-8632707D01*
X9246487Y-8634556D01*
X9257653Y-8661580D01*
X9278311Y-8682274D01*
X9305316Y-8693487D01*
X9334556Y-8693513D01*
X9361580Y-8682347D01*
X9382274Y-8661689D01*
X9393487Y-8634684D01*
X9393495Y-8625701D01*
X9664598Y-8354598D01*
X9676737Y-8336430D01*
X9681000Y-8315000D01*
X9681000Y-8267218D01*
X9686586Y-8266134D01*
X9701164Y-8256558D01*
X9701541Y-8256000D01*
X9773334Y-8256000D01*
X9773442Y-8256164D01*
X9787899Y-8265923D01*
X9805000Y-8269352D01*
X9895000Y-8269352D01*
X9904000Y-8267606D01*
X9904000Y-8280000D01*
X9908263Y-8301430D01*
X9920402Y-8319598D01*
X9925334Y-8324529D01*
X9935402Y-8339598D01*
X10039804Y-8444000D01*
X10025000Y-8444000D01*
X9848196Y-8444000D01*
X9798505Y-8394309D01*
X9798513Y-8385444D01*
X9787347Y-8358420D01*
X9766689Y-8337726D01*
X9739684Y-8326513D01*
X9710444Y-8326487D01*
X9683420Y-8337653D01*
X9662726Y-8358311D01*
X9651513Y-8385316D01*
X9651487Y-8414556D01*
X9662653Y-8441580D01*
X9683311Y-8462274D01*
X9710316Y-8473487D01*
X9719299Y-8473495D01*
X9785402Y-8539598D01*
X9785402Y-8539598D01*
X9785402Y-8539598D01*
X9803570Y-8551737D01*
X9825000Y-8556000D01*
X9825000Y-8556000D01*
X9825001Y-8556000D01*
X10025000Y-8556000D01*
X10401804Y-8556000D01*
X11694000Y-9848196D01*
X11694000Y-9916990D01*
X11689598Y-9910402D01*
X10839598Y-9060402D01*
X10821430Y-9048263D01*
X10800000Y-9044000D01*
X10608652Y-9044000D01*
X10608652Y-9042850D01*
X10606957Y-9034115D01*
X10618133Y-9022940D01*
X10627800Y-8999601D01*
X10627800Y-8958395D01*
X10627800Y-8901245D01*
X10627800Y-8860039D01*
X10618133Y-8836700D01*
X10600270Y-8818837D01*
X10576931Y-8809170D01*
X10551669Y-8809170D01*
X10478575Y-8809170D01*
X10462700Y-8825045D01*
X10462700Y-8917120D01*
X10611925Y-8917120D01*
X10627800Y-8901245D01*
X10627800Y-8958395D01*
X10611925Y-8942520D01*
X10462700Y-8942520D01*
X10462700Y-8944520D01*
X10437300Y-8944520D01*
X10437300Y-8942520D01*
X10437300Y-8917120D01*
X10437300Y-8825045D01*
X10421425Y-8809170D01*
X10348331Y-8809170D01*
X10323069Y-8809170D01*
X10299730Y-8818837D01*
X10281867Y-8836700D01*
X10272200Y-8860039D01*
X10272200Y-8901245D01*
X10288075Y-8917120D01*
X10437300Y-8917120D01*
X10437300Y-8942520D01*
X10288075Y-8942520D01*
X10272200Y-8958395D01*
X10272200Y-8999601D01*
X10281867Y-9022940D01*
X10293090Y-9034163D01*
X10291348Y-9042850D01*
X10291348Y-9157150D01*
X10293001Y-9165672D01*
X10281867Y-9176806D01*
X10272200Y-9200145D01*
X10272200Y-9241351D01*
X10288075Y-9257226D01*
X10437300Y-9257226D01*
X10437300Y-9255226D01*
X10462700Y-9255226D01*
X10462700Y-9257226D01*
X10611925Y-9257226D01*
X10627800Y-9241351D01*
X10627800Y-9200145D01*
X10618133Y-9176806D01*
X10606952Y-9165626D01*
X10608652Y-9157150D01*
X10608652Y-9156000D01*
X10776804Y-9156000D01*
X11555119Y-9934315D01*
X11550000Y-9933297D01*
X11512306Y-9940795D01*
X11480350Y-9962147D01*
X11458998Y-9994103D01*
X11451500Y-10031797D01*
X11451500Y-10168203D01*
X11458998Y-10205898D01*
X11480350Y-10237853D01*
X11494000Y-10246974D01*
X11494000Y-10426804D01*
X11448500Y-10472304D01*
X11448500Y-10168203D01*
X11448500Y-10031797D01*
X11441002Y-9994103D01*
X11419650Y-9962147D01*
X11387694Y-9940795D01*
X11350000Y-9933297D01*
X11312306Y-9940795D01*
X11280350Y-9962147D01*
X11259463Y-9993406D01*
X11254620Y-9977919D01*
X11224812Y-9942228D01*
X11183615Y-9920660D01*
X11180974Y-9920620D01*
X11162700Y-9933164D01*
X11162700Y-10087300D01*
X11164700Y-10087300D01*
X11164700Y-10112700D01*
X11162700Y-10112700D01*
X11162700Y-10266836D01*
X11180974Y-10279380D01*
X11183615Y-10279340D01*
X11224812Y-10257772D01*
X11254620Y-10222081D01*
X11259463Y-10206594D01*
X11280350Y-10237853D01*
X11312306Y-10259205D01*
X11350000Y-10266703D01*
X11387694Y-10259205D01*
X11419650Y-10237853D01*
X11441002Y-10205898D01*
X11448500Y-10168203D01*
X11448500Y-10472304D01*
X11435402Y-10485402D01*
X11423263Y-10503570D01*
X11419000Y-10525000D01*
X11419000Y-11275000D01*
X11423263Y-11296430D01*
X11435402Y-11314598D01*
X11710402Y-11589598D01*
X11728570Y-11601737D01*
X11750000Y-11606000D01*
X12107782Y-11606000D01*
X12108866Y-11611586D01*
X12118442Y-11626164D01*
X12132899Y-11635923D01*
X12150000Y-11639352D01*
X12160156Y-11639352D01*
X12220402Y-11699598D01*
X12220402Y-11699598D01*
X12220402Y-11699598D01*
X12238570Y-11711737D01*
X12260000Y-11716000D01*
X12260000Y-11716000D01*
X12260000Y-11716000D01*
X12380000Y-11716000D01*
X12401430Y-11711737D01*
X12419598Y-11699598D01*
X12699598Y-11419598D01*
X12711737Y-11401430D01*
X12716000Y-11380000D01*
X12716000Y-11300000D01*
X12715946Y-11299727D01*
X12715997Y-11299454D01*
X12705997Y-10274454D01*
X12703817Y-10264028D01*
X12701737Y-10253570D01*
X12701583Y-10253338D01*
X12701526Y-10253066D01*
X12695517Y-10244261D01*
X12689598Y-10235402D01*
X12605887Y-10151691D01*
X12605698Y-10112700D01*
X13212700Y-10112700D01*
X13212700Y-8487300D01*
X12587300Y-8487300D01*
X12587300Y-9109446D01*
X12584598Y-9105402D01*
X12564000Y-9084804D01*
X12564000Y-8218306D01*
X12599825Y-8194369D01*
X12627975Y-8152239D01*
X12637860Y-8102544D01*
X12637860Y-8097456D01*
X12627975Y-8047761D01*
X12599825Y-8005631D01*
X12557695Y-7977481D01*
X12508000Y-7967596D01*
X12458305Y-7977481D01*
X12416175Y-8005631D01*
X12388025Y-8047761D01*
X12381000Y-8083078D01*
X12373975Y-8047761D01*
X12345825Y-8005631D01*
X12303695Y-7977481D01*
X12281168Y-7973000D01*
X12303695Y-7968519D01*
X12345825Y-7940369D01*
X12373975Y-7898239D01*
X12383860Y-7848544D01*
X12383860Y-7843456D01*
X12373975Y-7793761D01*
X12345825Y-7751631D01*
X12303695Y-7723481D01*
X12254000Y-7713596D01*
X12204305Y-7723481D01*
X12162175Y-7751631D01*
X12136267Y-7790405D01*
X12120682Y-7757151D01*
X12077495Y-7717731D01*
X12065347Y-7712700D01*
X12737300Y-7712700D01*
X12737300Y-7912566D01*
X12731564Y-7926379D01*
X12731436Y-8072978D01*
X12737300Y-8087169D01*
X12737300Y-8362700D01*
X13012566Y-8362700D01*
X13026379Y-8368436D01*
X13172978Y-8368564D01*
X13187169Y-8362700D01*
X13387300Y-8362700D01*
X13387300Y-11137300D01*
X13387300Y-11137300D01*
G37*
X13387300Y-11137300D02*
X13187434Y-11137300D01*
X13173621Y-11131564D01*
X13027022Y-11131436D01*
X13012831Y-11137300D01*
X12737300Y-11137300D01*
X12737300Y-11412566D01*
X12731564Y-11426379D01*
X12731436Y-11572978D01*
X12737300Y-11587169D01*
X12737300Y-11787300D01*
X7262700Y-11787300D01*
X7262700Y-11587434D01*
X7268436Y-11573621D01*
X7268564Y-11427022D01*
X7262700Y-11412831D01*
X7262700Y-11137300D01*
X6987434Y-11137300D01*
X6973621Y-11131564D01*
X6827022Y-11131436D01*
X6812831Y-11137300D01*
X6612700Y-11137300D01*
X6612700Y-10741896D01*
X6744000Y-10873196D01*
X6744000Y-10875000D01*
X6748263Y-10896430D01*
X6760402Y-10914598D01*
X6785402Y-10939598D01*
X6803570Y-10951737D01*
X6815770Y-10954164D01*
X6815770Y-11014808D01*
X6818988Y-11031394D01*
X6828564Y-11045972D01*
X6843021Y-11055731D01*
X6860122Y-11059160D01*
X6939878Y-11059160D01*
X6956464Y-11055942D01*
X6971042Y-11046366D01*
X6980801Y-11031909D01*
X6980997Y-11030930D01*
X6998288Y-11030930D01*
X6998442Y-11031164D01*
X7012899Y-11040923D01*
X7030000Y-11044352D01*
X7120000Y-11044352D01*
X7136586Y-11041134D01*
X7151164Y-11031558D01*
X7160923Y-11017101D01*
X7164352Y-11000000D01*
X7164352Y-10950000D01*
X7161134Y-10933414D01*
X7151558Y-10918836D01*
X7137101Y-10909077D01*
X7120000Y-10905648D01*
X7073548Y-10905648D01*
X7084844Y-10894352D01*
X7120000Y-10894352D01*
X7136586Y-10891134D01*
X7151164Y-10881558D01*
X7160923Y-10867101D01*
X7164352Y-10850000D01*
X7164352Y-10800000D01*
X7162799Y-10791995D01*
X7644000Y-11273196D01*
X7644000Y-11600000D01*
X7648263Y-11621430D01*
X7660402Y-11639598D01*
X7710402Y-11689598D01*
X7728570Y-11701737D01*
X7750000Y-11706000D01*
X10750000Y-11706000D01*
X10825000Y-11706000D01*
X10846430Y-11701737D01*
X10864598Y-11689598D01*
X11048196Y-11506000D01*
X11377048Y-11506000D01*
X11383311Y-11512274D01*
X11410316Y-11523487D01*
X11439556Y-11523513D01*
X11466580Y-11512347D01*
X11487274Y-11491689D01*
X11498487Y-11464684D01*
X11498513Y-11435444D01*
X11487347Y-11408420D01*
X11466689Y-11387726D01*
X11439684Y-11376513D01*
X11410444Y-11376487D01*
X11383420Y-11387653D01*
X11377062Y-11394000D01*
X11137300Y-11394000D01*
X11137300Y-10266836D01*
X11137300Y-10112700D01*
X11137300Y-10087300D01*
X11137300Y-9933164D01*
X11119026Y-9920620D01*
X11116385Y-9920660D01*
X11075188Y-9942228D01*
X11050000Y-9972387D01*
X11024812Y-9942228D01*
X10983615Y-9920660D01*
X10980974Y-9920620D01*
X10962700Y-9933164D01*
X10962700Y-10087300D01*
X11031500Y-10087300D01*
X11068500Y-10087300D01*
X11137300Y-10087300D01*
X11137300Y-10112700D01*
X11068500Y-10112700D01*
X11031500Y-10112700D01*
X10962700Y-10112700D01*
X10962700Y-10266836D01*
X10980974Y-10279380D01*
X10983615Y-10279340D01*
X11024812Y-10257772D01*
X11050000Y-10227613D01*
X11075188Y-10257772D01*
X11116385Y-10279340D01*
X11119026Y-10279380D01*
X11137300Y-10266836D01*
X11137300Y-11394000D01*
X11025000Y-11394000D01*
X11003570Y-11398263D01*
X10985402Y-11410402D01*
X10801804Y-11594000D01*
X10750000Y-11594000D01*
X10293500Y-11594000D01*
X10293500Y-10237631D01*
X10293500Y-10212369D01*
X10293500Y-10128575D01*
X10293500Y-10071425D01*
X10293500Y-9987631D01*
X10293500Y-9962369D01*
X10283833Y-9939030D01*
X10265970Y-9921167D01*
X10242631Y-9911500D01*
X10158575Y-9911500D01*
X10142700Y-9927375D01*
X10142700Y-10087300D01*
X10277625Y-10087300D01*
X10293500Y-10071425D01*
X10293500Y-10128575D01*
X10277625Y-10112700D01*
X10142700Y-10112700D01*
X10142700Y-10272625D01*
X10158575Y-10288500D01*
X10242631Y-10288500D01*
X10265970Y-10278833D01*
X10283833Y-10260970D01*
X10293500Y-10237631D01*
X10293500Y-11594000D01*
X10283515Y-11594000D01*
X10283515Y-10812606D01*
X10283515Y-10628525D01*
X10283515Y-10571375D01*
X10283515Y-10387294D01*
X10273848Y-10363955D01*
X10255985Y-10346092D01*
X10232646Y-10336425D01*
X10207384Y-10336425D01*
X10128575Y-10336425D01*
X10117300Y-10347700D01*
X10117300Y-10272625D01*
X10117300Y-10112700D01*
X9982375Y-10112700D01*
X9966500Y-10128575D01*
X9966500Y-10212369D01*
X9966500Y-10237631D01*
X9976167Y-10260970D01*
X9994030Y-10278833D01*
X10017369Y-10288500D01*
X10101425Y-10288500D01*
X10117300Y-10272625D01*
X10117300Y-10347700D01*
X10112700Y-10352300D01*
X10112700Y-10587250D01*
X10267640Y-10587250D01*
X10283515Y-10571375D01*
X10283515Y-10628525D01*
X10267640Y-10612650D01*
X10112700Y-10612650D01*
X10112700Y-10847600D01*
X10128575Y-10863475D01*
X10207384Y-10863475D01*
X10232646Y-10863475D01*
X10255985Y-10853808D01*
X10273848Y-10835945D01*
X10283515Y-10812606D01*
X10283515Y-11594000D01*
X10264367Y-11594000D01*
X10264367Y-11200025D01*
X10261149Y-11183439D01*
X10251573Y-11168861D01*
X10237116Y-11159102D01*
X10220015Y-11155673D01*
X10087300Y-11155673D01*
X10087300Y-10847600D01*
X10087300Y-10612650D01*
X10087300Y-10587250D01*
X10087300Y-10352300D01*
X10071425Y-10336425D01*
X9992616Y-10336425D01*
X9967354Y-10336425D01*
X9944015Y-10346092D01*
X9926152Y-10363955D01*
X9916485Y-10387294D01*
X9916485Y-10571375D01*
X9932360Y-10587250D01*
X10087300Y-10587250D01*
X10087300Y-10612650D01*
X9932360Y-10612650D01*
X9916485Y-10628525D01*
X9916485Y-10812606D01*
X9926152Y-10835945D01*
X9944015Y-10853808D01*
X9967354Y-10863475D01*
X9992616Y-10863475D01*
X10071425Y-10863475D01*
X10087300Y-10847600D01*
X10087300Y-11155673D01*
X10010224Y-11155673D01*
X9881000Y-11026449D01*
X9881000Y-10093551D01*
X9966500Y-10008051D01*
X9966500Y-10071425D01*
X9982375Y-10087300D01*
X10117300Y-10087300D01*
X10117300Y-9927375D01*
X10101425Y-9911500D01*
X10063051Y-9911500D01*
X10283519Y-9691032D01*
X10299337Y-9691032D01*
X10304142Y-9698346D01*
X10318599Y-9708105D01*
X10335700Y-9711534D01*
X10564300Y-9711534D01*
X10580886Y-9708316D01*
X10595464Y-9698740D01*
X10605223Y-9684283D01*
X10608652Y-9667182D01*
X10608652Y-9562848D01*
X10619000Y-9573196D01*
X10619000Y-9876804D01*
X10565156Y-9930648D01*
X10370000Y-9930648D01*
X10353414Y-9933866D01*
X10338836Y-9943442D01*
X10329077Y-9957899D01*
X10325648Y-9975000D01*
X10325648Y-10225000D01*
X10328866Y-10241586D01*
X10338442Y-10256164D01*
X10352899Y-10265923D01*
X10370000Y-10269352D01*
X10515156Y-10269352D01*
X10794000Y-10548196D01*
X10794000Y-10705648D01*
X10700000Y-10705648D01*
X10683414Y-10708866D01*
X10668836Y-10718442D01*
X10659077Y-10732899D01*
X10655648Y-10750000D01*
X10655648Y-11250000D01*
X10658866Y-11266586D01*
X10668442Y-11281164D01*
X10682899Y-11290923D01*
X10700000Y-11294352D01*
X11000000Y-11294352D01*
X11016586Y-11291134D01*
X11031164Y-11281558D01*
X11040923Y-11267101D01*
X11044352Y-11250000D01*
X11044352Y-10750000D01*
X11041134Y-10733414D01*
X11031558Y-10718836D01*
X11017101Y-10709077D01*
X11000000Y-10705648D01*
X10937300Y-10705648D01*
X10937300Y-10266836D01*
X10937300Y-10112700D01*
X10937300Y-10087300D01*
X10937300Y-9933164D01*
X10919026Y-9920620D01*
X10916385Y-9920660D01*
X10875188Y-9942228D01*
X10845380Y-9977919D01*
X10831500Y-10022300D01*
X10831500Y-10087300D01*
X10937300Y-10087300D01*
X10937300Y-10112700D01*
X10831500Y-10112700D01*
X10831500Y-10177700D01*
X10845380Y-10222081D01*
X10875188Y-10257772D01*
X10916385Y-10279340D01*
X10919026Y-10279380D01*
X10937300Y-10266836D01*
X10937300Y-10705648D01*
X10906000Y-10705648D01*
X10906000Y-10525001D01*
X10906000Y-10525000D01*
X10906000Y-10525000D01*
X10901737Y-10503570D01*
X10889598Y-10485402D01*
X10889598Y-10485402D01*
X10889598Y-10485402D01*
X10614352Y-10210156D01*
X10614352Y-10039844D01*
X10714598Y-9939598D01*
X10726737Y-9921430D01*
X10731000Y-9900000D01*
X10731000Y-9550000D01*
X10726737Y-9528570D01*
X10714598Y-9510402D01*
X10608652Y-9404456D01*
X10608652Y-9382702D01*
X10606999Y-9374180D01*
X10618133Y-9363046D01*
X10627800Y-9339707D01*
X10627800Y-9298501D01*
X10611925Y-9282626D01*
X10462700Y-9282626D01*
X10462700Y-9284626D01*
X10437300Y-9284626D01*
X10437300Y-9282626D01*
X10288075Y-9282626D01*
X10272200Y-9298501D01*
X10272200Y-9339707D01*
X10281867Y-9363046D01*
X10293048Y-9374226D01*
X10291348Y-9382702D01*
X10291348Y-9497002D01*
X10294566Y-9513588D01*
X10302058Y-9524994D01*
X10299333Y-9529032D01*
X10249968Y-9529032D01*
X10218971Y-9535198D01*
X10205832Y-9543977D01*
X10192692Y-9552756D01*
X9742724Y-10002724D01*
X9725166Y-10029003D01*
X9719000Y-10060000D01*
X9719000Y-11060000D01*
X9725166Y-11090997D01*
X9742724Y-11117276D01*
X9919499Y-11294050D01*
X9183515Y-11294050D01*
X9183515Y-10812606D01*
X9183515Y-10628525D01*
X9183515Y-10571375D01*
X9183515Y-10387294D01*
X9173848Y-10363955D01*
X9155985Y-10346092D01*
X9132646Y-10336425D01*
X9107384Y-10336425D01*
X9028575Y-10336425D01*
X9012700Y-10352300D01*
X9012700Y-10587250D01*
X9167640Y-10587250D01*
X9183515Y-10571375D01*
X9183515Y-10628525D01*
X9167640Y-10612650D01*
X9012700Y-10612650D01*
X9012700Y-10847600D01*
X9028575Y-10863475D01*
X9107384Y-10863475D01*
X9132646Y-10863475D01*
X9155985Y-10853808D01*
X9173848Y-10835945D01*
X9183515Y-10812606D01*
X9183515Y-11294050D01*
X9164367Y-11294050D01*
X9164367Y-11200025D01*
X9161149Y-11183439D01*
X9151573Y-11168861D01*
X9137116Y-11159102D01*
X9120015Y-11155673D01*
X9025579Y-11155673D01*
X8987300Y-11117393D01*
X8987300Y-10847600D01*
X8987300Y-10612650D01*
X8987300Y-10587250D01*
X8987300Y-10352300D01*
X8971425Y-10336425D01*
X8892616Y-10336425D01*
X8867354Y-10336425D01*
X8844015Y-10346092D01*
X8826152Y-10363955D01*
X8816485Y-10387294D01*
X8816485Y-10571375D01*
X8832360Y-10587250D01*
X8987300Y-10587250D01*
X8987300Y-10612650D01*
X8832360Y-10612650D01*
X8816485Y-10628525D01*
X8816485Y-10812606D01*
X8826152Y-10835945D01*
X8844015Y-10853808D01*
X8867354Y-10863475D01*
X8892616Y-10863475D01*
X8971425Y-10863475D01*
X8987300Y-10847600D01*
X8987300Y-11117393D01*
X8406000Y-10536093D01*
X8406000Y-9860000D01*
X8397931Y-9819436D01*
X8397931Y-9819436D01*
X8374953Y-9785047D01*
X8094953Y-9505047D01*
X8084345Y-9497959D01*
X8078705Y-9492308D01*
X8071266Y-9489219D01*
X8060564Y-9482069D01*
X8048051Y-9479580D01*
X8040678Y-9476518D01*
X8032623Y-9476511D01*
X8020000Y-9474000D01*
X8007487Y-9476489D01*
X7999503Y-9476482D01*
X7992059Y-9479558D01*
X7979435Y-9482069D01*
X7968827Y-9489157D01*
X7961448Y-9492206D01*
X7955748Y-9497896D01*
X7945047Y-9505047D01*
X7937959Y-9515655D01*
X7932308Y-9521295D01*
X7929219Y-9528734D01*
X7922069Y-9539436D01*
X7919580Y-9551949D01*
X7916518Y-9559322D01*
X7916511Y-9567376D01*
X7914000Y-9580000D01*
X7916489Y-9592513D01*
X7916482Y-9600497D01*
X7919558Y-9607941D01*
X7922069Y-9620565D01*
X7929157Y-9631173D01*
X7932206Y-9638552D01*
X7937896Y-9644252D01*
X7945047Y-9654953D01*
X8194000Y-9903907D01*
X8194000Y-10580000D01*
X8202069Y-10620565D01*
X8225047Y-10654953D01*
X8835633Y-11265539D01*
X8835633Y-11294050D01*
X8083515Y-11294050D01*
X8083515Y-10812606D01*
X8083515Y-10628525D01*
X8083515Y-10571375D01*
X8083515Y-10387294D01*
X8073848Y-10363955D01*
X8055985Y-10346092D01*
X8032646Y-10336425D01*
X8007384Y-10336425D01*
X7928575Y-10336425D01*
X7912700Y-10352300D01*
X7912700Y-10587250D01*
X8067640Y-10587250D01*
X8083515Y-10571375D01*
X8083515Y-10628525D01*
X8067640Y-10612650D01*
X7912700Y-10612650D01*
X7912700Y-10847600D01*
X7928575Y-10863475D01*
X8007384Y-10863475D01*
X8032646Y-10863475D01*
X8055985Y-10853808D01*
X8073848Y-10835945D01*
X8083515Y-10812606D01*
X8083515Y-11294050D01*
X8064367Y-11294050D01*
X8064367Y-11200025D01*
X8061149Y-11183439D01*
X8051573Y-11168861D01*
X8037116Y-11159102D01*
X8020015Y-11155673D01*
X7965579Y-11155673D01*
X7887300Y-11077393D01*
X7887300Y-10847600D01*
X7887300Y-10612650D01*
X7887300Y-10587250D01*
X7887300Y-10352300D01*
X7871425Y-10336425D01*
X7792616Y-10336425D01*
X7767354Y-10336425D01*
X7744015Y-10346092D01*
X7726152Y-10363955D01*
X7716485Y-10387294D01*
X7716485Y-10571375D01*
X7732360Y-10587250D01*
X7887300Y-10587250D01*
X7887300Y-10612650D01*
X7732360Y-10612650D01*
X7716485Y-10628525D01*
X7716485Y-10812606D01*
X7726152Y-10835945D01*
X7744015Y-10853808D01*
X7767354Y-10863475D01*
X7792616Y-10863475D01*
X7871425Y-10863475D01*
X7887300Y-10847600D01*
X7887300Y-11077393D01*
X7075453Y-10265547D01*
X7057100Y-10253284D01*
X7051413Y-10239520D01*
X7001244Y-10189263D01*
X6935662Y-10162031D01*
X6864650Y-10161969D01*
X6799020Y-10189087D01*
X6748763Y-10239256D01*
X6731000Y-10282035D01*
X6731000Y-10121947D01*
X6733442Y-10125664D01*
X6747899Y-10135423D01*
X6765000Y-10138852D01*
X7035000Y-10138852D01*
X7051586Y-10135634D01*
X7066164Y-10126058D01*
X7075923Y-10111601D01*
X7079352Y-10094500D01*
X7079352Y-10065500D01*
X7260500Y-10065500D01*
X7301064Y-10057431D01*
X7301064Y-10057431D01*
X7335453Y-10034453D01*
X8040807Y-9329100D01*
X8386032Y-9329100D01*
X8405016Y-9341784D01*
X8446821Y-9350100D01*
X8405016Y-9358416D01*
X8363339Y-9386263D01*
X8335492Y-9427939D01*
X8325713Y-9477100D01*
X8335492Y-9526261D01*
X8363339Y-9567937D01*
X8405016Y-9595784D01*
X8454176Y-9605563D01*
X8642824Y-9605563D01*
X8691985Y-9595784D01*
X8733661Y-9567937D01*
X8761508Y-9526261D01*
X8771287Y-9477100D01*
X8761508Y-9427939D01*
X8733661Y-9386263D01*
X8691985Y-9358416D01*
X8650179Y-9350100D01*
X8691985Y-9341784D01*
X8733661Y-9313937D01*
X8761508Y-9272261D01*
X8771287Y-9223100D01*
X8768766Y-9210429D01*
X8839598Y-9139598D01*
X8839598Y-9139598D01*
X8839598Y-9139598D01*
X8851737Y-9121430D01*
X8856000Y-9100000D01*
X8856000Y-8698196D01*
X8898196Y-8656000D01*
X9200000Y-8656000D01*
X9221430Y-8651737D01*
X9239598Y-8639598D01*
X9246489Y-8632707D01*
X9246487Y-8634556D01*
X9257653Y-8661580D01*
X9278311Y-8682274D01*
X9305316Y-8693487D01*
X9334556Y-8693513D01*
X9361580Y-8682347D01*
X9382274Y-8661689D01*
X9393487Y-8634684D01*
X9393495Y-8625701D01*
X9664598Y-8354598D01*
X9676737Y-8336430D01*
X9681000Y-8315000D01*
X9681000Y-8267218D01*
X9686586Y-8266134D01*
X9701164Y-8256558D01*
X9701541Y-8256000D01*
X9773334Y-8256000D01*
X9773442Y-8256164D01*
X9787899Y-8265923D01*
X9805000Y-8269352D01*
X9895000Y-8269352D01*
X9904000Y-8267606D01*
X9904000Y-8280000D01*
X9908263Y-8301430D01*
X9920402Y-8319598D01*
X9925334Y-8324529D01*
X9935402Y-8339598D01*
X10039804Y-8444000D01*
X10025000Y-8444000D01*
X9848196Y-8444000D01*
X9798505Y-8394309D01*
X9798513Y-8385444D01*
X9787347Y-8358420D01*
X9766689Y-8337726D01*
X9739684Y-8326513D01*
X9710444Y-8326487D01*
X9683420Y-8337653D01*
X9662726Y-8358311D01*
X9651513Y-8385316D01*
X9651487Y-8414556D01*
X9662653Y-8441580D01*
X9683311Y-8462274D01*
X9710316Y-8473487D01*
X9719299Y-8473495D01*
X9785402Y-8539598D01*
X9785402Y-8539598D01*
X9785402Y-8539598D01*
X9803570Y-8551737D01*
X9825000Y-8556000D01*
X9825000Y-8556000D01*
X9825001Y-8556000D01*
X10025000Y-8556000D01*
X10401804Y-8556000D01*
X11694000Y-9848196D01*
X11694000Y-9916990D01*
X11689598Y-9910402D01*
X10839598Y-9060402D01*
X10821430Y-9048263D01*
X10800000Y-9044000D01*
X10608652Y-9044000D01*
X10608652Y-9042850D01*
X10606957Y-9034115D01*
X10618133Y-9022940D01*
X10627800Y-8999601D01*
X10627800Y-8958395D01*
X10627800Y-8901245D01*
X10627800Y-8860039D01*
X10618133Y-8836700D01*
X10600270Y-8818837D01*
X10576931Y-8809170D01*
X10551669Y-8809170D01*
X10478575Y-8809170D01*
X10462700Y-8825045D01*
X10462700Y-8917120D01*
X10611925Y-8917120D01*
X10627800Y-8901245D01*
X10627800Y-8958395D01*
X10611925Y-8942520D01*
X10462700Y-8942520D01*
X10462700Y-8944520D01*
X10437300Y-8944520D01*
X10437300Y-8942520D01*
X10437300Y-8917120D01*
X10437300Y-8825045D01*
X10421425Y-8809170D01*
X10348331Y-8809170D01*
X10323069Y-8809170D01*
X10299730Y-8818837D01*
X10281867Y-8836700D01*
X10272200Y-8860039D01*
X10272200Y-8901245D01*
X10288075Y-8917120D01*
X10437300Y-8917120D01*
X10437300Y-8942520D01*
X10288075Y-8942520D01*
X10272200Y-8958395D01*
X10272200Y-8999601D01*
X10281867Y-9022940D01*
X10293090Y-9034163D01*
X10291348Y-9042850D01*
X10291348Y-9157150D01*
X10293001Y-9165672D01*
X10281867Y-9176806D01*
X10272200Y-9200145D01*
X10272200Y-9241351D01*
X10288075Y-9257226D01*
X10437300Y-9257226D01*
X10437300Y-9255226D01*
X10462700Y-9255226D01*
X10462700Y-9257226D01*
X10611925Y-9257226D01*
X10627800Y-9241351D01*
X10627800Y-9200145D01*
X10618133Y-9176806D01*
X10606952Y-9165626D01*
X10608652Y-9157150D01*
X10608652Y-9156000D01*
X10776804Y-9156000D01*
X11555119Y-9934315D01*
X11550000Y-9933297D01*
X11512306Y-9940795D01*
X11480350Y-9962147D01*
X11458998Y-9994103D01*
X11451500Y-10031797D01*
X11451500Y-10168203D01*
X11458998Y-10205898D01*
X11480350Y-10237853D01*
X11494000Y-10246974D01*
X11494000Y-10426804D01*
X11448500Y-10472304D01*
X11448500Y-10168203D01*
X11448500Y-10031797D01*
X11441002Y-9994103D01*
X11419650Y-9962147D01*
X11387694Y-9940795D01*
X11350000Y-9933297D01*
X11312306Y-9940795D01*
X11280350Y-9962147D01*
X11259463Y-9993406D01*
X11254620Y-9977919D01*
X11224812Y-9942228D01*
X11183615Y-9920660D01*
X11180974Y-9920620D01*
X11162700Y-9933164D01*
X11162700Y-10087300D01*
X11164700Y-10087300D01*
X11164700Y-10112700D01*
X11162700Y-10112700D01*
X11162700Y-10266836D01*
X11180974Y-10279380D01*
X11183615Y-10279340D01*
X11224812Y-10257772D01*
X11254620Y-10222081D01*
X11259463Y-10206594D01*
X11280350Y-10237853D01*
X11312306Y-10259205D01*
X11350000Y-10266703D01*
X11387694Y-10259205D01*
X11419650Y-10237853D01*
X11441002Y-10205898D01*
X11448500Y-10168203D01*
X11448500Y-10472304D01*
X11435402Y-10485402D01*
X11423263Y-10503570D01*
X11419000Y-10525000D01*
X11419000Y-11275000D01*
X11423263Y-11296430D01*
X11435402Y-11314598D01*
X11710402Y-11589598D01*
X11728570Y-11601737D01*
X11750000Y-11606000D01*
X12107782Y-11606000D01*
X12108866Y-11611586D01*
X12118442Y-11626164D01*
X12132899Y-11635923D01*
X12150000Y-11639352D01*
X12160156Y-11639352D01*
X12220402Y-11699598D01*
X12220402Y-11699598D01*
X12220402Y-11699598D01*
X12238570Y-11711737D01*
X12260000Y-11716000D01*
X12260000Y-11716000D01*
X12260000Y-11716000D01*
X12380000Y-11716000D01*
X12401430Y-11711737D01*
X12419598Y-11699598D01*
X12699598Y-11419598D01*
X12711737Y-11401430D01*
X12716000Y-11380000D01*
X12716000Y-11300000D01*
X12715946Y-11299727D01*
X12715997Y-11299454D01*
X12705997Y-10274454D01*
X12703817Y-10264028D01*
X12701737Y-10253570D01*
X12701583Y-10253338D01*
X12701526Y-10253066D01*
X12695517Y-10244261D01*
X12689598Y-10235402D01*
X12605887Y-10151691D01*
X12605698Y-10112700D01*
X13212700Y-10112700D01*
X13212700Y-8487300D01*
X12587300Y-8487300D01*
X12587300Y-9109446D01*
X12584598Y-9105402D01*
X12564000Y-9084804D01*
X12564000Y-8218306D01*
X12599825Y-8194369D01*
X12627975Y-8152239D01*
X12637860Y-8102544D01*
X12637860Y-8097456D01*
X12627975Y-8047761D01*
X12599825Y-8005631D01*
X12557695Y-7977481D01*
X12508000Y-7967596D01*
X12458305Y-7977481D01*
X12416175Y-8005631D01*
X12388025Y-8047761D01*
X12381000Y-8083078D01*
X12373975Y-8047761D01*
X12345825Y-8005631D01*
X12303695Y-7977481D01*
X12281168Y-7973000D01*
X12303695Y-7968519D01*
X12345825Y-7940369D01*
X12373975Y-7898239D01*
X12383860Y-7848544D01*
X12383860Y-7843456D01*
X12373975Y-7793761D01*
X12345825Y-7751631D01*
X12303695Y-7723481D01*
X12254000Y-7713596D01*
X12204305Y-7723481D01*
X12162175Y-7751631D01*
X12136267Y-7790405D01*
X12120682Y-7757151D01*
X12077495Y-7717731D01*
X12065347Y-7712700D01*
X12737300Y-7712700D01*
X12737300Y-7912566D01*
X12731564Y-7926379D01*
X12731436Y-8072978D01*
X12737300Y-8087169D01*
X12737300Y-8362700D01*
X13012566Y-8362700D01*
X13026379Y-8368436D01*
X13172978Y-8368564D01*
X13187169Y-8362700D01*
X13387300Y-8362700D01*
X13387300Y-11137300D01*
M02*
