M48
;DRILL file {KiCad (after 2015-may-01 BZR unknown)-product} date 21-May-15 9:30:58 AM
;FORMAT={-:-/ absolute / inch / decimal}
FMAT,2
INCH,TZ
T1C0.016
T2C0.039
T3C0.039
T4C0.040
T5C0.051
T6C0.055
T7C0.126
%
G90
G05
M72
T1
X3.1102Y-4.311
X3.5433Y-4.311
X3.6693Y-3.3937
X3.7008Y-3.126
X3.8287Y-3.3071
X3.9173Y-3.1398
X3.9764Y-4.311
X4.498Y-4.5079
X4.6457Y-4.5079
X4.7874Y-3.5591
X4.8346Y-3.5748
X4.8819Y-4.252
T2
X3.0709Y-3.0787
X3.1575Y-3.7717
T3
X3.3656Y-3.5311
X3.3656Y-3.6311
X3.3656Y-3.7311
T4
X4.7244Y-3.089
X4.7244Y-3.189
X4.8244Y-3.089
X4.8244Y-3.189
X4.9244Y-3.189
T5
X2.7165Y-3.6061
X2.7165Y-3.7561
X2.7165Y-3.9211
X2.7165Y-4.0711
T6
X2.9579Y-3.2776
X3.1579Y-3.2776
X3.3579Y-3.2776
X3.5579Y-3.2776
T7
X2.7165Y-3.1496
X2.7165Y-4.5276
X5.1575Y-3.1496
X5.1575Y-4.5276
T0
M30
