G04 #@! TF.FileFunction,Legend,Top*
%FSLAX45Y45*%
G04 Gerber Fmt 4.5, Leading zero omitted, Abs format (unit mm)*
G04 Created by KiCad (PCBNEW (after 2015-may-01 BZR unknown)-product) date 21-May-15 9:37:35 AM*
%MOMM*%
G01*
G04 APERTURE LIST*
%ADD10C,0.100000*%
%ADD11C,0.200660*%
%ADD12C,0.150000*%
G04 APERTURE END LIST*
D10*
D11*
X13200000Y-10100000D02*
X13150000Y-10100000D01*
X13200000Y-8500000D02*
X13200000Y-10100000D01*
X10800000Y-10100000D02*
X13175000Y-10100000D01*
X10800000Y-8500000D02*
X10800000Y-10100000D01*
X13200000Y-8500000D02*
X10800000Y-8500000D01*
D12*
X10317500Y-8075000D02*
X10317500Y-8175000D01*
X10182500Y-8175000D02*
X10182500Y-8075000D01*
X10208700Y-8839904D02*
X10208700Y-8698426D01*
X10209970Y-9699948D02*
X10564300Y-9699948D01*
X10208700Y-9841426D02*
X8870500Y-9841426D01*
X8870500Y-8698426D02*
X10208700Y-8698426D01*
X10208700Y-9841426D02*
X10208700Y-9699948D01*
X12501600Y-10419000D02*
X12298400Y-10419000D01*
X12260300Y-10431700D02*
X12539700Y-10431700D01*
X12565100Y-10444400D02*
X12234900Y-10444400D01*
X12209500Y-10457100D02*
X12590500Y-10457100D01*
X12196800Y-10469800D02*
X12603200Y-10469800D01*
X12628600Y-10482500D02*
X12171400Y-10482500D01*
X12793700Y-10800000D02*
G75*
G03X12793700Y-10800000I-393700J0D01*
G01*
X12819100Y-10380900D02*
X11980900Y-10380900D01*
X11980900Y-10380900D02*
X11980900Y-11142900D01*
X11980900Y-11142900D02*
X12057100Y-11219100D01*
X12057100Y-11219100D02*
X12742900Y-11219100D01*
X12742900Y-11219100D02*
X12819100Y-11142900D01*
X12819100Y-11142900D02*
X12819100Y-10380900D01*
X12400000Y-11168300D02*
X12400000Y-11092100D01*
X12438100Y-11130200D02*
X12361900Y-11130200D01*
X9998400Y-10517400D02*
X10201600Y-10517400D01*
X10239700Y-10530100D02*
X9947600Y-10530100D01*
X9922200Y-10542800D02*
X10277800Y-10542800D01*
X10315900Y-10555500D02*
X9884100Y-10555500D01*
X9858700Y-10568200D02*
X10341300Y-10568200D01*
X10354000Y-10580900D02*
X9846000Y-10580900D01*
X10595300Y-11000000D02*
G75*
G03X10595300Y-11000000I-495300J0D01*
G01*
X10620700Y-10479300D02*
X9579300Y-10479300D01*
X9579300Y-10479300D02*
X9579300Y-11444500D01*
X9579300Y-11444500D02*
X9655500Y-11520700D01*
X9655500Y-11520700D02*
X10544500Y-11520700D01*
X10544500Y-11520700D02*
X10620700Y-11444500D01*
X10620700Y-11444500D02*
X10620700Y-10479300D01*
X10100000Y-11457200D02*
X10100000Y-11381000D01*
X10138100Y-11419100D02*
X10061900Y-11419100D01*
X8898400Y-10517400D02*
X9101600Y-10517400D01*
X9139700Y-10530100D02*
X8847600Y-10530100D01*
X8822200Y-10542800D02*
X9177800Y-10542800D01*
X9215900Y-10555500D02*
X8784100Y-10555500D01*
X8758700Y-10568200D02*
X9241300Y-10568200D01*
X9254000Y-10580900D02*
X8746000Y-10580900D01*
X9495300Y-11000000D02*
G75*
G03X9495300Y-11000000I-495300J0D01*
G01*
X9520700Y-10479300D02*
X8479300Y-10479300D01*
X8479300Y-10479300D02*
X8479300Y-11444500D01*
X8479300Y-11444500D02*
X8555500Y-11520700D01*
X8555500Y-11520700D02*
X9444500Y-11520700D01*
X9444500Y-11520700D02*
X9520700Y-11444500D01*
X9520700Y-11444500D02*
X9520700Y-10479300D01*
X9000000Y-11457200D02*
X9000000Y-11381000D01*
X9038100Y-11419100D02*
X8961900Y-11419100D01*
X7798400Y-10517400D02*
X8001600Y-10517400D01*
X8039700Y-10530100D02*
X7747600Y-10530100D01*
X7722200Y-10542800D02*
X8077800Y-10542800D01*
X8115900Y-10555500D02*
X7684100Y-10555500D01*
X7658700Y-10568200D02*
X8141300Y-10568200D01*
X8154000Y-10580900D02*
X7646000Y-10580900D01*
X8395300Y-11000000D02*
G75*
G03X8395300Y-11000000I-495300J0D01*
G01*
X8420700Y-10479300D02*
X7379300Y-10479300D01*
X7379300Y-10479300D02*
X7379300Y-11444500D01*
X7379300Y-11444500D02*
X7455500Y-11520700D01*
X7455500Y-11520700D02*
X8344500Y-11520700D01*
X8344500Y-11520700D02*
X8420700Y-11444500D01*
X8420700Y-11444500D02*
X8420700Y-10479300D01*
X7900000Y-11457200D02*
X7900000Y-11381000D01*
X7938100Y-11419100D02*
X7861900Y-11419100D01*
X10525000Y-10295000D02*
X10525000Y-10255000D01*
X10525000Y-9905000D02*
X10525000Y-9945000D01*
X10075000Y-9905000D02*
X10075000Y-9945000D01*
X10075000Y-10295000D02*
X10075000Y-10255000D01*
X10435000Y-9905000D02*
X10435000Y-9945000D01*
X10435000Y-9945000D02*
X10420000Y-9945000D01*
X10420000Y-9945000D02*
X10420000Y-9905000D01*
X10435000Y-10295000D02*
X10435000Y-10255000D01*
X10435000Y-10255000D02*
X10420000Y-10255000D01*
X10420000Y-10255000D02*
X10420000Y-10295000D01*
X10525000Y-10295000D02*
X10075000Y-10295000D01*
X10075000Y-9905000D02*
X10525000Y-9905000D01*
X6944958Y-8555042D02*
X6855042Y-8555042D01*
X6855042Y-8555042D02*
X6855042Y-8515164D01*
X6944958Y-8515164D02*
X6855042Y-8515164D01*
X6944958Y-8555042D02*
X6944958Y-8515164D01*
X6944958Y-8684836D02*
X6855042Y-8684836D01*
X6855042Y-8684836D02*
X6855042Y-8644958D01*
X6944958Y-8644958D02*
X6855042Y-8644958D01*
X6944958Y-8684836D02*
X6944958Y-8644958D01*
X6944958Y-8600000D02*
X6929972Y-8600000D01*
X6929972Y-8600000D02*
X6929972Y-8570028D01*
X6944958Y-8570028D02*
X6929972Y-8570028D01*
X6944958Y-8600000D02*
X6944958Y-8570028D01*
X6870028Y-8600000D02*
X6855042Y-8600000D01*
X6855042Y-8600000D02*
X6855042Y-8570028D01*
X6870028Y-8570028D02*
X6855042Y-8570028D01*
X6870028Y-8600000D02*
X6870028Y-8570028D01*
X6914986Y-8600000D02*
X6885014Y-8600000D01*
X6885014Y-8600000D02*
X6885014Y-8570028D01*
X6914986Y-8570028D02*
X6885014Y-8570028D01*
X6914986Y-8600000D02*
X6914986Y-8570028D01*
X6939878Y-8555042D02*
X6939878Y-8644958D01*
X6860122Y-8555042D02*
X6860122Y-8644958D01*
X6855042Y-10944958D02*
X6944958Y-10944958D01*
X6944958Y-10944958D02*
X6944958Y-10984836D01*
X6855042Y-10984836D02*
X6944958Y-10984836D01*
X6855042Y-10944958D02*
X6855042Y-10984836D01*
X6855042Y-10815164D02*
X6944958Y-10815164D01*
X6944958Y-10815164D02*
X6944958Y-10855042D01*
X6855042Y-10855042D02*
X6944958Y-10855042D01*
X6855042Y-10815164D02*
X6855042Y-10855042D01*
X6855042Y-10900000D02*
X6870028Y-10900000D01*
X6870028Y-10900000D02*
X6870028Y-10929972D01*
X6855042Y-10929972D02*
X6870028Y-10929972D01*
X6855042Y-10900000D02*
X6855042Y-10929972D01*
X6929972Y-10900000D02*
X6944958Y-10900000D01*
X6944958Y-10900000D02*
X6944958Y-10929972D01*
X6929972Y-10929972D02*
X6944958Y-10929972D01*
X6929972Y-10900000D02*
X6929972Y-10929972D01*
X6885014Y-10900000D02*
X6914986Y-10900000D01*
X6914986Y-10900000D02*
X6914986Y-10929972D01*
X6885014Y-10929972D02*
X6914986Y-10929972D01*
X6885014Y-10900000D02*
X6885014Y-10929972D01*
X6860122Y-10944958D02*
X6860122Y-10855042D01*
X6939878Y-10944958D02*
X6939878Y-10855042D01*
X10630042Y-8169958D02*
X10719958Y-8169958D01*
X10719958Y-8169958D02*
X10719958Y-8209836D01*
X10630042Y-8209836D02*
X10719958Y-8209836D01*
X10630042Y-8169958D02*
X10630042Y-8209836D01*
X10630042Y-8040164D02*
X10719958Y-8040164D01*
X10719958Y-8040164D02*
X10719958Y-8080042D01*
X10630042Y-8080042D02*
X10719958Y-8080042D01*
X10630042Y-8040164D02*
X10630042Y-8080042D01*
X10630042Y-8125000D02*
X10645028Y-8125000D01*
X10645028Y-8125000D02*
X10645028Y-8154972D01*
X10630042Y-8154972D02*
X10645028Y-8154972D01*
X10630042Y-8125000D02*
X10630042Y-8154972D01*
X10704972Y-8125000D02*
X10719958Y-8125000D01*
X10719958Y-8125000D02*
X10719958Y-8154972D01*
X10704972Y-8154972D02*
X10719958Y-8154972D01*
X10704972Y-8125000D02*
X10704972Y-8154972D01*
X10660014Y-8125000D02*
X10689986Y-8125000D01*
X10689986Y-8125000D02*
X10689986Y-8154972D01*
X10660014Y-8154972D02*
X10689986Y-8154972D01*
X10660014Y-8125000D02*
X10660014Y-8154972D01*
X10635122Y-8169958D02*
X10635122Y-8080042D01*
X10714878Y-8169958D02*
X10714878Y-8080042D01*
X10094958Y-8080042D02*
X10005042Y-8080042D01*
X10005042Y-8080042D02*
X10005042Y-8040164D01*
X10094958Y-8040164D02*
X10005042Y-8040164D01*
X10094958Y-8080042D02*
X10094958Y-8040164D01*
X10094958Y-8209836D02*
X10005042Y-8209836D01*
X10005042Y-8209836D02*
X10005042Y-8169958D01*
X10094958Y-8169958D02*
X10005042Y-8169958D01*
X10094958Y-8209836D02*
X10094958Y-8169958D01*
X10094958Y-8125000D02*
X10079972Y-8125000D01*
X10079972Y-8125000D02*
X10079972Y-8095028D01*
X10094958Y-8095028D02*
X10079972Y-8095028D01*
X10094958Y-8125000D02*
X10094958Y-8095028D01*
X10020028Y-8125000D02*
X10005042Y-8125000D01*
X10005042Y-8125000D02*
X10005042Y-8095028D01*
X10020028Y-8095028D02*
X10005042Y-8095028D01*
X10020028Y-8125000D02*
X10020028Y-8095028D01*
X10064986Y-8125000D02*
X10035014Y-8125000D01*
X10035014Y-8125000D02*
X10035014Y-8095028D01*
X10064986Y-8095028D02*
X10035014Y-8095028D01*
X10064986Y-8125000D02*
X10064986Y-8095028D01*
X10089878Y-8080042D02*
X10089878Y-8169958D01*
X10010122Y-8080042D02*
X10010122Y-8169958D01*
X8358000Y-8689700D02*
X8358000Y-8880200D01*
X8358000Y-9134200D02*
X8358000Y-9058000D01*
X8358000Y-9375500D02*
X8358000Y-9388200D01*
X8358000Y-9375500D02*
X8358000Y-9312000D01*
X8358000Y-9756500D02*
X8358000Y-9578700D01*
X8726300Y-9756500D02*
X8726300Y-9591400D01*
X8739000Y-9324700D02*
X8739000Y-9388200D01*
X8739000Y-9070700D02*
X8739000Y-9134200D01*
X8726300Y-8689700D02*
X8726300Y-8854800D01*
X8243700Y-9375500D02*
X8358000Y-9375500D01*
X8243700Y-9070700D02*
X8358000Y-9070700D01*
X8358000Y-8689700D02*
X8726300Y-8689700D01*
X8726300Y-9756500D02*
X8358000Y-9756500D01*
X8243700Y-8689700D02*
X8358000Y-8689700D01*
X8358000Y-9756500D02*
X8243700Y-9756500D01*
X8243700Y-9223100D02*
X8243700Y-9756500D01*
X8243700Y-9223100D02*
X8243700Y-8689700D01*
X12200000Y-11482500D02*
X12300000Y-11482500D01*
X12300000Y-11617500D02*
X12200000Y-11617500D01*
X7007500Y-8650000D02*
X7007500Y-8550000D01*
X7142500Y-8550000D02*
X7142500Y-8650000D01*
X7142500Y-10850000D02*
X7142500Y-10950000D01*
X7007500Y-10950000D02*
X7007500Y-10850000D01*
X9332500Y-8175000D02*
X9332500Y-8075000D01*
X9467500Y-8075000D02*
X9467500Y-8175000D01*
X10942500Y-8075000D02*
X10942500Y-8175000D01*
X10807500Y-8175000D02*
X10807500Y-8075000D01*
X9917500Y-8075000D02*
X9917500Y-8175000D01*
X9782500Y-8175000D02*
X9782500Y-8075000D01*
X9692500Y-8075000D02*
X9692500Y-8175000D01*
X9557500Y-8175000D02*
X9557500Y-8075000D01*
X10542500Y-8075000D02*
X10542500Y-8175000D01*
X10407500Y-8175000D02*
X10407500Y-8075000D01*
X11630000Y-7950000D02*
X11630000Y-8250000D01*
X11630000Y-8250000D02*
X11270000Y-8250000D01*
X11270000Y-8250000D02*
X11270000Y-7950000D01*
X11270000Y-7950000D02*
X11630000Y-7950000D01*
X7275000Y-8325000D02*
X7225000Y-8425000D01*
X7225000Y-8425000D02*
X7225000Y-8225000D01*
X7225000Y-8225000D02*
X7275000Y-8325000D01*
X9200000Y-8555000D02*
X9200000Y-7905000D01*
X7350000Y-8555000D02*
X7350000Y-7905000D01*
X9200000Y-7905000D02*
X7350000Y-7905000D01*
X9200000Y-8555000D02*
X7350000Y-8555000D01*
X11900000Y-11550000D02*
X11900000Y-10450000D01*
X10750000Y-11600000D02*
X11850000Y-11600000D01*
X10700000Y-10450000D02*
X10700000Y-11550000D01*
X11850000Y-10400000D02*
X10750000Y-10400000D01*
X11900000Y-10450000D02*
G75*
G03X11850000Y-10400000I-50000J0D01*
G01*
X11850000Y-11600000D02*
G75*
G03X11900000Y-11550000I0J50000D01*
G01*
X10700000Y-11550000D02*
G75*
G03X10750000Y-11600000I50000J0D01*
G01*
X10750000Y-10400000D02*
G75*
G03X10700000Y-10450000I0J-50000D01*
G01*
X7350000Y-9159000D02*
X7400000Y-9234000D01*
X7400000Y-9234000D02*
X7400000Y-9084000D01*
X7400000Y-9084000D02*
X7350000Y-9159000D01*
X6900000Y-8925000D02*
X6825000Y-8875000D01*
X6825000Y-8875000D02*
X6975000Y-8875000D01*
X6975000Y-8875000D02*
X6900000Y-8925000D01*
X6500000Y-9400000D02*
X6650000Y-9450000D01*
X6650000Y-9450000D02*
X6650000Y-9650000D01*
X6650000Y-9650000D02*
X6500000Y-9700000D01*
X6500000Y-9000000D02*
X6650000Y-9050000D01*
X6650000Y-9050000D02*
X6650000Y-9250000D01*
X6650000Y-9250000D02*
X6500000Y-9300000D01*
X6500000Y-9735000D02*
X7300000Y-9735000D01*
X7300000Y-8965000D02*
X6500000Y-8965000D01*
X7300000Y-9735000D02*
X7300000Y-8965000D01*
X6500000Y-9735000D02*
X6500000Y-8965000D01*
X7350000Y-9959000D02*
X7400000Y-10034000D01*
X7400000Y-10034000D02*
X7400000Y-9884000D01*
X7400000Y-9884000D02*
X7350000Y-9959000D01*
X6900000Y-9725000D02*
X6825000Y-9675000D01*
X6825000Y-9675000D02*
X6975000Y-9675000D01*
X6975000Y-9675000D02*
X6900000Y-9725000D01*
X6500000Y-10200000D02*
X6650000Y-10250000D01*
X6650000Y-10250000D02*
X6650000Y-10450000D01*
X6650000Y-10450000D02*
X6500000Y-10500000D01*
X6500000Y-9800000D02*
X6650000Y-9850000D01*
X6650000Y-9850000D02*
X6650000Y-10050000D01*
X6650000Y-10050000D02*
X6500000Y-10100000D01*
X6500000Y-10535000D02*
X7300000Y-10535000D01*
X7300000Y-9765000D02*
X6500000Y-9765000D01*
X7300000Y-10535000D02*
X7300000Y-9765000D01*
X6500000Y-10535000D02*
X6500000Y-9765000D01*
X7384976Y-8620084D02*
X7384976Y-8624910D01*
X7455080Y-8899982D02*
X7384976Y-8899982D01*
X7384976Y-8899982D02*
X7384976Y-8875090D01*
X7384976Y-8620084D02*
X7384976Y-8600018D01*
X7384976Y-8600018D02*
X7455080Y-8600018D01*
X12127000Y-8227000D02*
X12635000Y-8227000D01*
X11845000Y-8255000D02*
X11845000Y-8100000D01*
X11873000Y-7973000D02*
X12127000Y-7973000D01*
X12127000Y-7973000D02*
X12127000Y-8227000D01*
X12635000Y-8227000D02*
X12635000Y-7719000D01*
X12635000Y-7719000D02*
X12127000Y-7719000D01*
X11845000Y-8255000D02*
X12000000Y-8255000D01*
X11873000Y-7719000D02*
X11873000Y-7973000D01*
X12127000Y-7719000D02*
X11873000Y-7719000D01*
X10295238Y-7916667D02*
X10247619Y-7950000D01*
X10295238Y-7973809D02*
X10195238Y-7973809D01*
X10195238Y-7935714D01*
X10200000Y-7926190D01*
X10204762Y-7921428D01*
X10214286Y-7916667D01*
X10228571Y-7916667D01*
X10238095Y-7921428D01*
X10242857Y-7926190D01*
X10247619Y-7935714D01*
X10247619Y-7973809D01*
X10295238Y-7869048D02*
X10295238Y-7850000D01*
X10290476Y-7840476D01*
X10285714Y-7835714D01*
X10271429Y-7826190D01*
X10252381Y-7821428D01*
X10214286Y-7821428D01*
X10204762Y-7826190D01*
X10200000Y-7830952D01*
X10195238Y-7840476D01*
X10195238Y-7859524D01*
X10200000Y-7869048D01*
X10204762Y-7873809D01*
X10214286Y-7878571D01*
X10238095Y-7878571D01*
X10247619Y-7873809D01*
X10252381Y-7869048D01*
X10257143Y-7859524D01*
X10257143Y-7840476D01*
X10252381Y-7830952D01*
X10247619Y-7826190D01*
X10238095Y-7821428D01*
X10070238Y-8876191D02*
X10151191Y-8876191D01*
X10160714Y-8871429D01*
X10165476Y-8866667D01*
X10170238Y-8857143D01*
X10170238Y-8838095D01*
X10165476Y-8828571D01*
X10160714Y-8823810D01*
X10151191Y-8819048D01*
X10070238Y-8819048D01*
X10170238Y-8719048D02*
X10170238Y-8776191D01*
X10170238Y-8747619D02*
X10070238Y-8747619D01*
X10084524Y-8757143D01*
X10094048Y-8766667D01*
X10098810Y-8776191D01*
X12708333Y-10485714D02*
X12703571Y-10490476D01*
X12689286Y-10495238D01*
X12679762Y-10495238D01*
X12665476Y-10490476D01*
X12655952Y-10480952D01*
X12651190Y-10471429D01*
X12646429Y-10452381D01*
X12646429Y-10438095D01*
X12651190Y-10419048D01*
X12655952Y-10409524D01*
X12665476Y-10400000D01*
X12679762Y-10395238D01*
X12689286Y-10395238D01*
X12703571Y-10400000D01*
X12708333Y-10404762D01*
X12746429Y-10404762D02*
X12751190Y-10400000D01*
X12760714Y-10395238D01*
X12784524Y-10395238D01*
X12794048Y-10400000D01*
X12798810Y-10404762D01*
X12803571Y-10414286D01*
X12803571Y-10423810D01*
X12798810Y-10438095D01*
X12741667Y-10495238D01*
X12803571Y-10495238D01*
X10508333Y-10610714D02*
X10503572Y-10615476D01*
X10489286Y-10620238D01*
X10479762Y-10620238D01*
X10465476Y-10615476D01*
X10455952Y-10605952D01*
X10451191Y-10596429D01*
X10446429Y-10577381D01*
X10446429Y-10563095D01*
X10451191Y-10544048D01*
X10455952Y-10534524D01*
X10465476Y-10525000D01*
X10479762Y-10520238D01*
X10489286Y-10520238D01*
X10503572Y-10525000D01*
X10508333Y-10529762D01*
X10541667Y-10520238D02*
X10603572Y-10520238D01*
X10570238Y-10558333D01*
X10584524Y-10558333D01*
X10594048Y-10563095D01*
X10598810Y-10567857D01*
X10603572Y-10577381D01*
X10603572Y-10601191D01*
X10598810Y-10610714D01*
X10594048Y-10615476D01*
X10584524Y-10620238D01*
X10555952Y-10620238D01*
X10546429Y-10615476D01*
X10541667Y-10610714D01*
X9383333Y-10610714D02*
X9378572Y-10615476D01*
X9364286Y-10620238D01*
X9354762Y-10620238D01*
X9340476Y-10615476D01*
X9330952Y-10605952D01*
X9326191Y-10596429D01*
X9321429Y-10577381D01*
X9321429Y-10563095D01*
X9326191Y-10544048D01*
X9330952Y-10534524D01*
X9340476Y-10525000D01*
X9354762Y-10520238D01*
X9364286Y-10520238D01*
X9378572Y-10525000D01*
X9383333Y-10529762D01*
X9469048Y-10553571D02*
X9469048Y-10620238D01*
X9445238Y-10515476D02*
X9421429Y-10586905D01*
X9483333Y-10586905D01*
X8283333Y-10610714D02*
X8278571Y-10615476D01*
X8264286Y-10620238D01*
X8254762Y-10620238D01*
X8240476Y-10615476D01*
X8230952Y-10605952D01*
X8226190Y-10596429D01*
X8221429Y-10577381D01*
X8221429Y-10563095D01*
X8226190Y-10544048D01*
X8230952Y-10534524D01*
X8240476Y-10525000D01*
X8254762Y-10520238D01*
X8264286Y-10520238D01*
X8278571Y-10525000D01*
X8283333Y-10529762D01*
X8373810Y-10520238D02*
X8326190Y-10520238D01*
X8321429Y-10567857D01*
X8326190Y-10563095D01*
X8335714Y-10558333D01*
X8359524Y-10558333D01*
X8369048Y-10563095D01*
X8373810Y-10567857D01*
X8378571Y-10577381D01*
X8378571Y-10601191D01*
X8373810Y-10610714D01*
X8369048Y-10615476D01*
X8359524Y-10620238D01*
X8335714Y-10620238D01*
X8326190Y-10615476D01*
X8321429Y-10610714D01*
X10345238Y-10173810D02*
X10245238Y-10173810D01*
X10245238Y-10150000D01*
X10250000Y-10135714D01*
X10259524Y-10126190D01*
X10269048Y-10121429D01*
X10288095Y-10116667D01*
X10302381Y-10116667D01*
X10321429Y-10121429D01*
X10330952Y-10126190D01*
X10340476Y-10135714D01*
X10345238Y-10150000D01*
X10345238Y-10173810D01*
X10254762Y-10078571D02*
X10250000Y-10073810D01*
X10245238Y-10064286D01*
X10245238Y-10040476D01*
X10250000Y-10030952D01*
X10254762Y-10026190D01*
X10264286Y-10021429D01*
X10273810Y-10021429D01*
X10288095Y-10026190D01*
X10345238Y-10083333D01*
X10345238Y-10021429D01*
X6820238Y-8711905D02*
X6820238Y-8759524D01*
X6720238Y-8759524D01*
X6767857Y-8678571D02*
X6767857Y-8645238D01*
X6820238Y-8630952D02*
X6820238Y-8678571D01*
X6720238Y-8678571D01*
X6720238Y-8630952D01*
X6820238Y-8588095D02*
X6720238Y-8588095D01*
X6720238Y-8564286D01*
X6725000Y-8550000D01*
X6734524Y-8540476D01*
X6744048Y-8535714D01*
X6763095Y-8530952D01*
X6777381Y-8530952D01*
X6796429Y-8535714D01*
X6805952Y-8540476D01*
X6815476Y-8550000D01*
X6820238Y-8564286D01*
X6820238Y-8588095D01*
X6820238Y-8435714D02*
X6820238Y-8492857D01*
X6820238Y-8464286D02*
X6720238Y-8464286D01*
X6734524Y-8473810D01*
X6744048Y-8483333D01*
X6748809Y-8492857D01*
X6820238Y-11011905D02*
X6820238Y-11059524D01*
X6720238Y-11059524D01*
X6767857Y-10978571D02*
X6767857Y-10945238D01*
X6820238Y-10930952D02*
X6820238Y-10978571D01*
X6720238Y-10978571D01*
X6720238Y-10930952D01*
X6820238Y-10888095D02*
X6720238Y-10888095D01*
X6720238Y-10864286D01*
X6725000Y-10850000D01*
X6734524Y-10840476D01*
X6744048Y-10835714D01*
X6763095Y-10830952D01*
X6777381Y-10830952D01*
X6796429Y-10835714D01*
X6805952Y-10840476D01*
X6815476Y-10850000D01*
X6820238Y-10864286D01*
X6820238Y-10888095D01*
X6729762Y-10792857D02*
X6725000Y-10788095D01*
X6720238Y-10778571D01*
X6720238Y-10754762D01*
X6725000Y-10745238D01*
X6729762Y-10740476D01*
X6739286Y-10735714D01*
X6748809Y-10735714D01*
X6763095Y-10740476D01*
X6820238Y-10797619D01*
X6820238Y-10735714D01*
X10720238Y-7936905D02*
X10720238Y-7984524D01*
X10620238Y-7984524D01*
X10667857Y-7903571D02*
X10667857Y-7870238D01*
X10720238Y-7855952D02*
X10720238Y-7903571D01*
X10620238Y-7903571D01*
X10620238Y-7855952D01*
X10720238Y-7813095D02*
X10620238Y-7813095D01*
X10620238Y-7789286D01*
X10625000Y-7775000D01*
X10634524Y-7765476D01*
X10644048Y-7760714D01*
X10663095Y-7755952D01*
X10677381Y-7755952D01*
X10696429Y-7760714D01*
X10705952Y-7765476D01*
X10715476Y-7775000D01*
X10720238Y-7789286D01*
X10720238Y-7813095D01*
X10620238Y-7722619D02*
X10620238Y-7660714D01*
X10658333Y-7694048D01*
X10658333Y-7679762D01*
X10663095Y-7670238D01*
X10667857Y-7665476D01*
X10677381Y-7660714D01*
X10701191Y-7660714D01*
X10710714Y-7665476D01*
X10715476Y-7670238D01*
X10720238Y-7679762D01*
X10720238Y-7708333D01*
X10715476Y-7717857D01*
X10710714Y-7722619D01*
X10095238Y-7936905D02*
X10095238Y-7984524D01*
X9995238Y-7984524D01*
X10042857Y-7903571D02*
X10042857Y-7870238D01*
X10095238Y-7855952D02*
X10095238Y-7903571D01*
X9995238Y-7903571D01*
X9995238Y-7855952D01*
X10095238Y-7813095D02*
X9995238Y-7813095D01*
X9995238Y-7789286D01*
X10000000Y-7775000D01*
X10009524Y-7765476D01*
X10019048Y-7760714D01*
X10038095Y-7755952D01*
X10052381Y-7755952D01*
X10071429Y-7760714D01*
X10080952Y-7765476D01*
X10090476Y-7775000D01*
X10095238Y-7789286D01*
X10095238Y-7813095D01*
X10028571Y-7670238D02*
X10095238Y-7670238D01*
X9990476Y-7694048D02*
X10061905Y-7717857D01*
X10061905Y-7655952D01*
X8615476Y-8829762D02*
X8605952Y-8825000D01*
X8596429Y-8815476D01*
X8582143Y-8801191D01*
X8572619Y-8796429D01*
X8563095Y-8796429D01*
X8567857Y-8820238D02*
X8558333Y-8815476D01*
X8548810Y-8805952D01*
X8544048Y-8786905D01*
X8544048Y-8753571D01*
X8548810Y-8734524D01*
X8558333Y-8725000D01*
X8567857Y-8720238D01*
X8586905Y-8720238D01*
X8596429Y-8725000D01*
X8605952Y-8734524D01*
X8610714Y-8753571D01*
X8610714Y-8786905D01*
X8605952Y-8805952D01*
X8596429Y-8815476D01*
X8586905Y-8820238D01*
X8567857Y-8820238D01*
X8648810Y-8729762D02*
X8653571Y-8725000D01*
X8663095Y-8720238D01*
X8686905Y-8720238D01*
X8696429Y-8725000D01*
X8701191Y-8729762D01*
X8705952Y-8739286D01*
X8705952Y-8748810D01*
X8701191Y-8763095D01*
X8644048Y-8820238D01*
X8705952Y-8820238D01*
X12233333Y-11785238D02*
X12200000Y-11737619D01*
X12176190Y-11785238D02*
X12176190Y-11685238D01*
X12214286Y-11685238D01*
X12223810Y-11690000D01*
X12228571Y-11694762D01*
X12233333Y-11704286D01*
X12233333Y-11718571D01*
X12228571Y-11728095D01*
X12223810Y-11732857D01*
X12214286Y-11737619D01*
X12176190Y-11737619D01*
X12328571Y-11785238D02*
X12271429Y-11785238D01*
X12300000Y-11785238D02*
X12300000Y-11685238D01*
X12290476Y-11699524D01*
X12280952Y-11709048D01*
X12271429Y-11713809D01*
X7270238Y-8616667D02*
X7222619Y-8650000D01*
X7270238Y-8673810D02*
X7170238Y-8673810D01*
X7170238Y-8635714D01*
X7175000Y-8626190D01*
X7179762Y-8621429D01*
X7189286Y-8616667D01*
X7203571Y-8616667D01*
X7213095Y-8621429D01*
X7217857Y-8626190D01*
X7222619Y-8635714D01*
X7222619Y-8673810D01*
X7179762Y-8578571D02*
X7175000Y-8573810D01*
X7170238Y-8564286D01*
X7170238Y-8540476D01*
X7175000Y-8530952D01*
X7179762Y-8526190D01*
X7189286Y-8521429D01*
X7198809Y-8521429D01*
X7213095Y-8526190D01*
X7270238Y-8583333D01*
X7270238Y-8521429D01*
X7295238Y-10916667D02*
X7247619Y-10950000D01*
X7295238Y-10973810D02*
X7195238Y-10973810D01*
X7195238Y-10935714D01*
X7200000Y-10926190D01*
X7204762Y-10921429D01*
X7214286Y-10916667D01*
X7228571Y-10916667D01*
X7238095Y-10921429D01*
X7242857Y-10926190D01*
X7247619Y-10935714D01*
X7247619Y-10973810D01*
X7195238Y-10883333D02*
X7195238Y-10821429D01*
X7233333Y-10854762D01*
X7233333Y-10840476D01*
X7238095Y-10830952D01*
X7242857Y-10826190D01*
X7252381Y-10821429D01*
X7276190Y-10821429D01*
X7285714Y-10826190D01*
X7290476Y-10830952D01*
X7295238Y-10840476D01*
X7295238Y-10869048D01*
X7290476Y-10878571D01*
X7285714Y-10883333D01*
X9445238Y-7916667D02*
X9397619Y-7950000D01*
X9445238Y-7973809D02*
X9345238Y-7973809D01*
X9345238Y-7935714D01*
X9350000Y-7926190D01*
X9354762Y-7921428D01*
X9364286Y-7916667D01*
X9378571Y-7916667D01*
X9388095Y-7921428D01*
X9392857Y-7926190D01*
X9397619Y-7935714D01*
X9397619Y-7973809D01*
X9378571Y-7830952D02*
X9445238Y-7830952D01*
X9340476Y-7854762D02*
X9411905Y-7878571D01*
X9411905Y-7816667D01*
X10920238Y-7916667D02*
X10872619Y-7950000D01*
X10920238Y-7973809D02*
X10820238Y-7973809D01*
X10820238Y-7935714D01*
X10825000Y-7926190D01*
X10829762Y-7921428D01*
X10839286Y-7916667D01*
X10853571Y-7916667D01*
X10863095Y-7921428D01*
X10867857Y-7926190D01*
X10872619Y-7935714D01*
X10872619Y-7973809D01*
X10820238Y-7826190D02*
X10820238Y-7873809D01*
X10867857Y-7878571D01*
X10863095Y-7873809D01*
X10858333Y-7864286D01*
X10858333Y-7840476D01*
X10863095Y-7830952D01*
X10867857Y-7826190D01*
X10877381Y-7821428D01*
X10901191Y-7821428D01*
X10910714Y-7826190D01*
X10915476Y-7830952D01*
X10920238Y-7840476D01*
X10920238Y-7864286D01*
X10915476Y-7873809D01*
X10910714Y-7878571D01*
X9895238Y-7916667D02*
X9847619Y-7950000D01*
X9895238Y-7973809D02*
X9795238Y-7973809D01*
X9795238Y-7935714D01*
X9800000Y-7926190D01*
X9804762Y-7921428D01*
X9814286Y-7916667D01*
X9828571Y-7916667D01*
X9838095Y-7921428D01*
X9842857Y-7926190D01*
X9847619Y-7935714D01*
X9847619Y-7973809D01*
X9795238Y-7830952D02*
X9795238Y-7850000D01*
X9800000Y-7859524D01*
X9804762Y-7864286D01*
X9819048Y-7873809D01*
X9838095Y-7878571D01*
X9876191Y-7878571D01*
X9885714Y-7873809D01*
X9890476Y-7869048D01*
X9895238Y-7859524D01*
X9895238Y-7840476D01*
X9890476Y-7830952D01*
X9885714Y-7826190D01*
X9876191Y-7821428D01*
X9852381Y-7821428D01*
X9842857Y-7826190D01*
X9838095Y-7830952D01*
X9833333Y-7840476D01*
X9833333Y-7859524D01*
X9838095Y-7869048D01*
X9842857Y-7873809D01*
X9852381Y-7878571D01*
X9670238Y-7916667D02*
X9622619Y-7950000D01*
X9670238Y-7973809D02*
X9570238Y-7973809D01*
X9570238Y-7935714D01*
X9575000Y-7926190D01*
X9579762Y-7921428D01*
X9589286Y-7916667D01*
X9603571Y-7916667D01*
X9613095Y-7921428D01*
X9617857Y-7926190D01*
X9622619Y-7935714D01*
X9622619Y-7973809D01*
X9570238Y-7883333D02*
X9570238Y-7816667D01*
X9670238Y-7859524D01*
X10520238Y-7916667D02*
X10472619Y-7950000D01*
X10520238Y-7973809D02*
X10420238Y-7973809D01*
X10420238Y-7935714D01*
X10425000Y-7926190D01*
X10429762Y-7921428D01*
X10439286Y-7916667D01*
X10453571Y-7916667D01*
X10463095Y-7921428D01*
X10467857Y-7926190D01*
X10472619Y-7935714D01*
X10472619Y-7973809D01*
X10463095Y-7859524D02*
X10458333Y-7869048D01*
X10453571Y-7873809D01*
X10444048Y-7878571D01*
X10439286Y-7878571D01*
X10429762Y-7873809D01*
X10425000Y-7869048D01*
X10420238Y-7859524D01*
X10420238Y-7840476D01*
X10425000Y-7830952D01*
X10429762Y-7826190D01*
X10439286Y-7821428D01*
X10444048Y-7821428D01*
X10453571Y-7826190D01*
X10458333Y-7830952D01*
X10463095Y-7840476D01*
X10463095Y-7859524D01*
X10467857Y-7869048D01*
X10472619Y-7873809D01*
X10482143Y-7878571D01*
X10501191Y-7878571D01*
X10510714Y-7873809D01*
X10515476Y-7869048D01*
X10520238Y-7859524D01*
X10520238Y-7840476D01*
X10515476Y-7830952D01*
X10510714Y-7826190D01*
X10501191Y-7821428D01*
X10482143Y-7821428D01*
X10472619Y-7826190D01*
X10467857Y-7830952D01*
X10463095Y-7840476D01*
X11490476Y-8176190D02*
X11495238Y-8161905D01*
X11495238Y-8138095D01*
X11490476Y-8128571D01*
X11485714Y-8123809D01*
X11476190Y-8119048D01*
X11466667Y-8119048D01*
X11457143Y-8123809D01*
X11452381Y-8128571D01*
X11447619Y-8138095D01*
X11442857Y-8157143D01*
X11438095Y-8166667D01*
X11433333Y-8171429D01*
X11423809Y-8176190D01*
X11414286Y-8176190D01*
X11404762Y-8171429D01*
X11400000Y-8166667D01*
X11395238Y-8157143D01*
X11395238Y-8133333D01*
X11400000Y-8119048D01*
X11495238Y-8023809D02*
X11495238Y-8080952D01*
X11495238Y-8052381D02*
X11395238Y-8052381D01*
X11409524Y-8061905D01*
X11419048Y-8071429D01*
X11423809Y-8080952D01*
X12923809Y-8545238D02*
X12923809Y-8626191D01*
X12928571Y-8635714D01*
X12933333Y-8640476D01*
X12942857Y-8645238D01*
X12961905Y-8645238D01*
X12971429Y-8640476D01*
X12976190Y-8635714D01*
X12980952Y-8626191D01*
X12980952Y-8545238D01*
X13023809Y-8554762D02*
X13028571Y-8550000D01*
X13038095Y-8545238D01*
X13061905Y-8545238D01*
X13071429Y-8550000D01*
X13076190Y-8554762D01*
X13080952Y-8564286D01*
X13080952Y-8573810D01*
X13076190Y-8588095D01*
X13019048Y-8645238D01*
X13080952Y-8645238D01*
X9001191Y-8045238D02*
X9001191Y-7945238D01*
X9025000Y-7945238D01*
X9039286Y-7950000D01*
X9048810Y-7959524D01*
X9053572Y-7969048D01*
X9058333Y-7988095D01*
X9058333Y-8002381D01*
X9053572Y-8021429D01*
X9048810Y-8030952D01*
X9039286Y-8040476D01*
X9025000Y-8045238D01*
X9001191Y-8045238D01*
X9153572Y-8045238D02*
X9096429Y-8045238D01*
X9125000Y-8045238D02*
X9125000Y-7945238D01*
X9115476Y-7959524D01*
X9105952Y-7969048D01*
X9096429Y-7973809D01*
X7503571Y-8070238D02*
X7446429Y-8070238D01*
X7475000Y-8070238D02*
X7475000Y-7970238D01*
X7465476Y-7984524D01*
X7455952Y-7994048D01*
X7446429Y-7998809D01*
X11758333Y-10545238D02*
X11710714Y-10545238D01*
X11710714Y-10445238D01*
X11844048Y-10545238D02*
X11786905Y-10545238D01*
X11815476Y-10545238D02*
X11815476Y-10445238D01*
X11805952Y-10459524D01*
X11796429Y-10469048D01*
X11786905Y-10473810D01*
X7245238Y-9173810D02*
X7145238Y-9173810D01*
X7145238Y-9135714D01*
X7150000Y-9126190D01*
X7154762Y-9121429D01*
X7164286Y-9116667D01*
X7178571Y-9116667D01*
X7188095Y-9121429D01*
X7192857Y-9126190D01*
X7197619Y-9135714D01*
X7197619Y-9173810D01*
X7154762Y-9078571D02*
X7150000Y-9073810D01*
X7145238Y-9064286D01*
X7145238Y-9040476D01*
X7150000Y-9030952D01*
X7154762Y-9026190D01*
X7164286Y-9021429D01*
X7173809Y-9021429D01*
X7188095Y-9026190D01*
X7245238Y-9083333D01*
X7245238Y-9021429D01*
X7195238Y-10223810D02*
X7095238Y-10223810D01*
X7095238Y-10185714D01*
X7100000Y-10176190D01*
X7104762Y-10171429D01*
X7114286Y-10166667D01*
X7128571Y-10166667D01*
X7138095Y-10171429D01*
X7142857Y-10176190D01*
X7147619Y-10185714D01*
X7147619Y-10223810D01*
X7095238Y-10133333D02*
X7095238Y-10071429D01*
X7133333Y-10104762D01*
X7133333Y-10090476D01*
X7138095Y-10080952D01*
X7142857Y-10076190D01*
X7152381Y-10071429D01*
X7176190Y-10071429D01*
X7185714Y-10076190D01*
X7190476Y-10080952D01*
X7195238Y-10090476D01*
X7195238Y-10119048D01*
X7190476Y-10128571D01*
X7185714Y-10133333D01*
X7754762Y-8759524D02*
X7750000Y-8769048D01*
X7740476Y-8778571D01*
X7726190Y-8792857D01*
X7721429Y-8802381D01*
X7721429Y-8811905D01*
X7745238Y-8807143D02*
X7740476Y-8816667D01*
X7730952Y-8826191D01*
X7711905Y-8830952D01*
X7678571Y-8830952D01*
X7659524Y-8826191D01*
X7650000Y-8816667D01*
X7645238Y-8807143D01*
X7645238Y-8788095D01*
X7650000Y-8778571D01*
X7659524Y-8769048D01*
X7678571Y-8764286D01*
X7711905Y-8764286D01*
X7730952Y-8769048D01*
X7740476Y-8778571D01*
X7745238Y-8788095D01*
X7745238Y-8807143D01*
X7745238Y-8669048D02*
X7745238Y-8726191D01*
X7745238Y-8697619D02*
X7645238Y-8697619D01*
X7659524Y-8707143D01*
X7669048Y-8716667D01*
X7673809Y-8726191D01*
X12545238Y-7923809D02*
X12445238Y-7923809D01*
X12445238Y-7885714D01*
X12450000Y-7876190D01*
X12454762Y-7871428D01*
X12464286Y-7866667D01*
X12478571Y-7866667D01*
X12488095Y-7871428D01*
X12492857Y-7876190D01*
X12497619Y-7885714D01*
X12497619Y-7923809D01*
X12545238Y-7771428D02*
X12545238Y-7828571D01*
X12545238Y-7800000D02*
X12445238Y-7800000D01*
X12459524Y-7809524D01*
X12469048Y-7819048D01*
X12473809Y-7828571D01*
M02*
