G04 #@! TF.FileFunction,Soldermask,Top*
%FSLAX45Y45*%
G04 Gerber Fmt 4.5, Leading zero omitted, Abs format (unit mm)*
G04 Created by KiCad (PCBNEW (after 2015-may-01 BZR unknown)-product) date 21-May-15 9:37:35 AM*
%MOMM*%
G01*
G04 APERTURE LIST*
%ADD10C,0.100000*%
%ADD11R,0.900000X0.500000*%
%ADD12R,2.286000X1.143000*%
%ADD13R,9.999980X10.800080*%
%ADD14R,2.400300X3.500120*%
%ADD15R,2.400300X4.000500*%
%ADD16R,2.000000X2.500000*%
%ADD17R,0.797560X0.797560*%
%ADD18O,3.500120X1.699260*%
%ADD19R,0.500000X0.900000*%
%ADD20R,2.000000X0.700000*%
%ADD21R,1.100000X2.400000*%
%ADD22O,1.100000X2.400000*%
%ADD23C,6.500000*%
%ADD24O,2.000000X3.000000*%
%ADD25R,2.000000X3.000000*%
%ADD26R,3.000000X5.000000*%
%ADD27C,2.700000*%
%ADD28R,2.700000X2.700000*%
%ADD29R,0.800100X0.800100*%
%ADD30R,1.727200X1.727200*%
%ADD31O,1.727200X1.727200*%
G04 APERTURE END LIST*
D10*
D11*
X10250000Y-8200000D03*
X10250000Y-8050000D03*
D12*
X10450000Y-9439852D03*
D13*
X9370500Y-9269926D03*
D12*
X10450000Y-9100000D03*
X10450000Y-9269926D03*
X10450000Y-9610032D03*
X10450000Y-8929820D03*
D14*
X12400000Y-11125120D03*
X12400000Y-10474880D03*
D15*
X10100000Y-11400050D03*
X10100000Y-10599950D03*
X9000000Y-11400050D03*
X9000000Y-10599950D03*
X7900000Y-11400050D03*
X7900000Y-10599950D03*
D16*
X10130000Y-10100000D03*
X10470000Y-10100000D03*
D17*
X6900000Y-8674930D03*
X6900000Y-8525070D03*
X6900000Y-10825070D03*
X6900000Y-10974930D03*
X10675000Y-8050070D03*
X10675000Y-8199930D03*
X10050000Y-8199930D03*
X10050000Y-8050070D03*
D18*
X8548500Y-9223100D03*
X8548500Y-9477100D03*
X8548500Y-8969100D03*
D19*
X12325000Y-11550000D03*
X12175000Y-11550000D03*
D11*
X7075000Y-8525000D03*
X7075000Y-8675000D03*
X7075000Y-10975000D03*
X7075000Y-10825000D03*
X9400000Y-8050000D03*
X9400000Y-8200000D03*
X10875000Y-8200000D03*
X10875000Y-8050000D03*
X9850000Y-8200000D03*
X9850000Y-8050000D03*
X9625000Y-8200000D03*
X9625000Y-8050000D03*
X10475000Y-8200000D03*
X10475000Y-8050000D03*
D20*
X11620000Y-8025000D03*
X11620000Y-8175000D03*
X11280000Y-8175000D03*
X11280000Y-8025000D03*
D21*
X12350000Y-8500000D03*
D22*
X12150000Y-8500000D03*
X11950000Y-8500000D03*
X11750000Y-8500000D03*
X11550000Y-8500000D03*
X11350000Y-8500000D03*
X11150000Y-8500000D03*
X10950000Y-8500000D03*
X10950000Y-10100000D03*
X11150000Y-10100000D03*
X11350000Y-10100000D03*
X11550000Y-10100000D03*
X11750000Y-10100000D03*
X11950000Y-10100000D03*
X12150000Y-10100000D03*
X12350000Y-10100000D03*
D23*
X13100000Y-8000000D03*
X6900000Y-8000000D03*
X6900000Y-11500000D03*
X13100000Y-11500000D03*
D24*
X8021000Y-8325000D03*
X8529000Y-8325000D03*
X9037000Y-8325000D03*
D25*
X7513000Y-8325000D03*
D26*
X11750000Y-11000000D03*
X10850000Y-11000000D03*
D27*
X6900000Y-9540500D03*
D28*
X6900000Y-9159500D03*
D27*
X6900000Y-10340500D03*
D28*
X6900000Y-9959500D03*
D29*
X7550076Y-8845000D03*
X7550076Y-8655000D03*
X7350178Y-8750000D03*
D30*
X12000000Y-8100000D03*
D31*
X12000000Y-7846000D03*
X12254000Y-8100000D03*
X12254000Y-7846000D03*
X12508000Y-8100000D03*
M02*
