  0
SECTION
  2
BLOCKS
  0
ENDSEC
  0
SECTION
  2
ENTITIES
  0
LINE
  8
0
 10
-35
 11
-35
 20
-17.5
 21
17.5
  0
LINE
  8
0
 10
-35
 11
-34.913
 20
17.5
 21
18.332
  0
LINE
  8
0
 10
-34.913
 11
-34.654
 20
18.332
 21
19.127
  0
LINE
  8
0
 10
-34.654
 11
-34.236
 20
19.127
 21
19.851
  0
LINE
  8
0
 10
-34.236
 11
-33.677
 20
19.851
 21
20.473
  0
LINE
  8
0
 10
-33.677
 11
-33
 20
20.473
 21
20.964
  0
LINE
  8
0
 10
-33
 11
-32.236
 20
20.964
 21
21.304
  0
LINE
  8
0
 10
-32.236
 11
-31.418
 20
21.304
 21
21.478
  0
LINE
  8
0
 10
-31.418
 11
31.418
 20
21.478
 21
21.478
  0
LINE
  8
0
 10
31.418
 11
32.236
 20
21.478
 21
21.304
  0
LINE
  8
0
 10
32.236
 11
33
 20
21.304
 21
20.964
  0
LINE
  8
0
 10
33
 11
33.677
 20
20.964
 21
20.473
  0
LINE
  8
0
 10
33.677
 11
34.236
 20
20.473
 21
19.851
  0
LINE
  8
0
 10
34.236
 11
34.654
 20
19.851
 21
19.127
  0
LINE
  8
0
 10
34.654
 11
34.913
 20
19.127
 21
18.332
  0
LINE
  8
0
 10
34.913
 11
35
 20
18.332
 21
17.5
  0
LINE
  8
0
 10
35
 11
35
 20
17.5
 21
-17.5
  0
LINE
  8
0
 10
35
 11
34.913
 20
-17.5
 21
-18.332
  0
LINE
  8
0
 10
34.913
 11
34.654
 20
-18.332
 21
-19.127
  0
LINE
  8
0
 10
34.654
 11
34.236
 20
-19.127
 21
-19.851
  0
LINE
  8
0
 10
34.236
 11
33.677
 20
-19.851
 21
-20.473
  0
LINE
  8
0
 10
33.677
 11
33
 20
-20.473
 21
-20.964
  0
LINE
  8
0
 10
33
 11
32.236
 20
-20.964
 21
-21.304
  0
LINE
  8
0
 10
32.236
 11
31.418
 20
-21.304
 21
-21.478
  0
LINE
  8
0
 10
31.418
 11
-31.418
 20
-21.478
 21
-21.478
  0
LINE
  8
0
 10
-31.418
 11
-32.236
 20
-21.478
 21
-21.304
  0
LINE
  8
0
 10
-32.236
 11
-33
 20
-21.304
 21
-20.964
  0
LINE
  8
0
 10
-33
 11
-33.677
 20
-20.964
 21
-20.473
  0
LINE
  8
0
 10
-33.677
 11
-34.236
 20
-20.473
 21
-19.851
  0
LINE
  8
0
 10
-34.236
 11
-34.654
 20
-19.851
 21
-19.127
  0
LINE
  8
0
 10
-34.654
 11
-34.913
 20
-19.127
 21
-18.332
  0
LINE
  8
0
 10
-34.913
 11
-35
 20
-18.332
 21
-17.5
  0
LINE
  8
0
 10
-32.598
 11
-32.545
 20
-17.417
 21
-17.086
  0
LINE
  8
0
 10
-32.545
 11
-32.425
 20
-17.086
 21
-16.773
  0
LINE
  8
0
 10
-32.425
 11
-32.244
 20
-16.773
 21
-16.493
  0
LINE
  8
0
 10
-32.244
 11
-32.007
 20
-16.493
 21
-16.257
  0
LINE
  8
0
 10
-32.007
 11
-31.727
 20
-16.257
 21
-16.074
  0
LINE
  8
0
 10
-31.727
 11
-31.414
 20
-16.074
 21
-15.954
  0
LINE
  8
0
 10
-31.414
 11
-31.083
 20
-15.954
 21
-15.902
  0
LINE
  8
0
 10
-31.083
 11
-30.75
 20
-15.902
 21
-15.92
  0
LINE
  8
0
 10
-30.75
 11
-30.427
 20
-15.92
 21
-16.006
  0
LINE
  8
0
 10
-30.427
 11
-30.129
 20
-16.006
 21
-16.158
  0
LINE
  8
0
 10
-30.129
 11
-29.869
 20
-16.158
 21
-16.368
  0
LINE
  8
0
 10
-29.869
 11
-29.658
 20
-16.368
 21
-16.629
  0
LINE
  8
0
 10
-29.658
 11
-29.507
 20
-16.629
 21
-16.927
  0
LINE
  8
0
 10
-29.507
 11
-29.419
 20
-16.927
 21
-17.25
  0
LINE
  8
0
 10
-29.419
 11
-29.402
 20
-17.25
 21
-17.583
  0
LINE
  8
0
 10
-29.402
 11
-29.455
 20
-17.583
 21
-17.914
  0
LINE
  8
0
 10
-29.455
 11
-29.575
 20
-17.914
 21
-18.227
  0
LINE
  8
0
 10
-29.575
 11
-29.756
 20
-18.227
 21
-18.507
  0
LINE
  8
0
 10
-29.756
 11
-29.993
 20
-18.507
 21
-18.743
  0
LINE
  8
0
 10
-29.993
 11
-30.273
 20
-18.743
 21
-18.926
  0
LINE
  8
0
 10
-30.273
 11
-30.586
 20
-18.926
 21
-19.046
  0
LINE
  8
0
 10
-30.586
 11
-30.917
 20
-19.046
 21
-19.098
  0
LINE
  8
0
 10
-30.917
 11
-31.25
 20
-19.098
 21
-19.08
  0
LINE
  8
0
 10
-31.25
 11
-31.573
 20
-19.08
 21
-18.994
  0
LINE
  8
0
 10
-31.573
 11
-31.871
 20
-18.994
 21
-18.842
  0
LINE
  8
0
 10
-31.871
 11
-32.131
 20
-18.842
 21
-18.632
  0
LINE
  8
0
 10
-32.131
 11
-32.342
 20
-18.632
 21
-18.371
  0
LINE
  8
0
 10
-32.342
 11
-32.493
 20
-18.371
 21
-18.073
  0
LINE
  8
0
 10
-32.493
 11
-32.581
 20
-18.073
 21
-17.75
  0
LINE
  8
0
 10
-32.581
 11
-32.598
 20
-17.75
 21
-17.417
  0
LINE
  8
0
 10
-32.598
 11
-32.581
 20
17.417
 21
17.75
  0
LINE
  8
0
 10
-32.581
 11
-32.493
 20
17.75
 21
18.073
  0
LINE
  8
0
 10
-32.493
 11
-32.342
 20
18.073
 21
18.371
  0
LINE
  8
0
 10
-32.342
 11
-32.131
 20
18.371
 21
18.632
  0
LINE
  8
0
 10
-32.131
 11
-31.871
 20
18.632
 21
18.842
  0
LINE
  8
0
 10
-31.871
 11
-31.573
 20
18.842
 21
18.994
  0
LINE
  8
0
 10
-31.573
 11
-31.25
 20
18.994
 21
19.08
  0
LINE
  8
0
 10
-31.25
 11
-30.917
 20
19.08
 21
19.098
  0
LINE
  8
0
 10
-30.917
 11
-30.586
 20
19.098
 21
19.046
  0
LINE
  8
0
 10
-30.586
 11
-30.273
 20
19.046
 21
18.926
  0
LINE
  8
0
 10
-30.273
 11
-29.993
 20
18.926
 21
18.743
  0
LINE
  8
0
 10
-29.993
 11
-29.756
 20
18.743
 21
18.507
  0
LINE
  8
0
 10
-29.756
 11
-29.575
 20
18.507
 21
18.227
  0
LINE
  8
0
 10
-29.575
 11
-29.455
 20
18.227
 21
17.914
  0
LINE
  8
0
 10
-29.455
 11
-29.402
 20
17.914
 21
17.583
  0
LINE
  8
0
 10
-29.402
 11
-29.419
 20
17.583
 21
17.25
  0
LINE
  8
0
 10
-29.419
 11
-29.507
 20
17.25
 21
16.927
  0
LINE
  8
0
 10
-29.507
 11
-29.658
 20
16.927
 21
16.629
  0
LINE
  8
0
 10
-29.658
 11
-29.869
 20
16.629
 21
16.368
  0
LINE
  8
0
 10
-29.869
 11
-30.129
 20
16.368
 21
16.158
  0
LINE
  8
0
 10
-30.129
 11
-30.427
 20
16.158
 21
16.006
  0
LINE
  8
0
 10
-30.427
 11
-30.75
 20
16.006
 21
15.92
  0
LINE
  8
0
 10
-30.75
 11
-31.083
 20
15.92
 21
15.902
  0
LINE
  8
0
 10
-31.083
 11
-31.414
 20
15.902
 21
15.954
  0
LINE
  8
0
 10
-31.414
 11
-31.727
 20
15.954
 21
16.074
  0
LINE
  8
0
 10
-31.727
 11
-32.007
 20
16.074
 21
16.257
  0
LINE
  8
0
 10
-32.007
 11
-32.244
 20
16.257
 21
16.493
  0
LINE
  8
0
 10
-32.244
 11
-32.425
 20
16.493
 21
16.773
  0
LINE
  8
0
 10
-32.425
 11
-32.545
 20
16.773
 21
17.086
  0
LINE
  8
0
 10
-32.545
 11
-32.598
 20
17.086
 21
17.417
  0
LINE
  8
0
 10
29.402
 11
29.419
 20
-17.583
 21
-17.25
  0
LINE
  8
0
 10
29.419
 11
29.507
 20
-17.25
 21
-16.927
  0
LINE
  8
0
 10
29.507
 11
29.658
 20
-16.927
 21
-16.629
  0
LINE
  8
0
 10
29.658
 11
29.869
 20
-16.629
 21
-16.368
  0
LINE
  8
0
 10
29.869
 11
30.129
 20
-16.368
 21
-16.158
  0
LINE
  8
0
 10
30.129
 11
30.427
 20
-16.158
 21
-16.006
  0
LINE
  8
0
 10
30.427
 11
30.75
 20
-16.006
 21
-15.92
  0
LINE
  8
0
 10
30.75
 11
31.083
 20
-15.92
 21
-15.902
  0
LINE
  8
0
 10
31.083
 11
31.414
 20
-15.902
 21
-15.954
  0
LINE
  8
0
 10
31.414
 11
31.727
 20
-15.954
 21
-16.074
  0
LINE
  8
0
 10
31.727
 11
32.007
 20
-16.074
 21
-16.257
  0
LINE
  8
0
 10
32.007
 11
32.244
 20
-16.257
 21
-16.493
  0
LINE
  8
0
 10
32.244
 11
32.425
 20
-16.493
 21
-16.773
  0
LINE
  8
0
 10
32.425
 11
32.545
 20
-16.773
 21
-17.086
  0
LINE
  8
0
 10
32.545
 11
32.598
 20
-17.086
 21
-17.417
  0
LINE
  8
0
 10
32.598
 11
32.581
 20
-17.417
 21
-17.75
  0
LINE
  8
0
 10
32.581
 11
32.493
 20
-17.75
 21
-18.073
  0
LINE
  8
0
 10
32.493
 11
32.342
 20
-18.073
 21
-18.371
  0
LINE
  8
0
 10
32.342
 11
32.131
 20
-18.371
 21
-18.632
  0
LINE
  8
0
 10
32.131
 11
31.871
 20
-18.632
 21
-18.842
  0
LINE
  8
0
 10
31.871
 11
31.573
 20
-18.842
 21
-18.994
  0
LINE
  8
0
 10
31.573
 11
31.25
 20
-18.994
 21
-19.08
  0
LINE
  8
0
 10
31.25
 11
30.917
 20
-19.08
 21
-19.098
  0
LINE
  8
0
 10
30.917
 11
30.586
 20
-19.098
 21
-19.046
  0
LINE
  8
0
 10
30.586
 11
30.273
 20
-19.046
 21
-18.926
  0
LINE
  8
0
 10
30.273
 11
29.993
 20
-18.926
 21
-18.743
  0
LINE
  8
0
 10
29.993
 11
29.756
 20
-18.743
 21
-18.507
  0
LINE
  8
0
 10
29.756
 11
29.575
 20
-18.507
 21
-18.227
  0
LINE
  8
0
 10
29.575
 11
29.455
 20
-18.227
 21
-17.914
  0
LINE
  8
0
 10
29.455
 11
29.402
 20
-17.914
 21
-17.583
  0
LINE
  8
0
 10
29.402
 11
29.455
 20
17.583
 21
17.914
  0
LINE
  8
0
 10
29.455
 11
29.575
 20
17.914
 21
18.227
  0
LINE
  8
0
 10
29.575
 11
29.756
 20
18.227
 21
18.507
  0
LINE
  8
0
 10
29.756
 11
29.993
 20
18.507
 21
18.743
  0
LINE
  8
0
 10
29.993
 11
30.273
 20
18.743
 21
18.926
  0
LINE
  8
0
 10
30.273
 11
30.586
 20
18.926
 21
19.046
  0
LINE
  8
0
 10
30.586
 11
30.917
 20
19.046
 21
19.098
  0
LINE
  8
0
 10
30.917
 11
31.25
 20
19.098
 21
19.08
  0
LINE
  8
0
 10
31.25
 11
31.573
 20
19.08
 21
18.994
  0
LINE
  8
0
 10
31.573
 11
31.871
 20
18.994
 21
18.842
  0
LINE
  8
0
 10
31.871
 11
32.131
 20
18.842
 21
18.632
  0
LINE
  8
0
 10
32.131
 11
32.342
 20
18.632
 21
18.371
  0
LINE
  8
0
 10
32.342
 11
32.493
 20
18.371
 21
18.073
  0
LINE
  8
0
 10
32.493
 11
32.581
 20
18.073
 21
17.75
  0
LINE
  8
0
 10
32.581
 11
32.598
 20
17.75
 21
17.417
  0
LINE
  8
0
 10
32.598
 11
32.545
 20
17.417
 21
17.086
  0
LINE
  8
0
 10
32.545
 11
32.425
 20
17.086
 21
16.773
  0
LINE
  8
0
 10
32.425
 11
32.244
 20
16.773
 21
16.493
  0
LINE
  8
0
 10
32.244
 11
32.007
 20
16.493
 21
16.257
  0
LINE
  8
0
 10
32.007
 11
31.727
 20
16.257
 21
16.074
  0
LINE
  8
0
 10
31.727
 11
31.414
 20
16.074
 21
15.954
  0
LINE
  8
0
 10
31.414
 11
31.083
 20
15.954
 21
15.902
  0
LINE
  8
0
 10
31.083
 11
30.75
 20
15.902
 21
15.92
  0
LINE
  8
0
 10
30.75
 11
30.427
 20
15.92
 21
16.006
  0
LINE
  8
0
 10
30.427
 11
30.129
 20
16.006
 21
16.158
  0
LINE
  8
0
 10
30.129
 11
29.869
 20
16.158
 21
16.368
  0
LINE
  8
0
 10
29.869
 11
29.658
 20
16.368
 21
16.629
  0
LINE
  8
0
 10
29.658
 11
29.507
 20
16.629
 21
16.927
  0
LINE
  8
0
 10
29.507
 11
29.419
 20
16.927
 21
17.25
  0
LINE
  8
0
 10
29.419
 11
29.402
 20
17.25
 21
17.583
  0
ENDSEC
  0
SECTION
  2
OBJECTS
  0
DICTIONARY
  0
ENDSEC
  0
EOF
