  0
SECTION
  2
BLOCKS
  0
ENDSEC
  0
SECTION
  2
ENTITIES
  0
LINE
  8
0
 10
-35
 11
-35
 20
-17.5
 21
-8.25
  0
LINE
  8
0
 10
-35
 11
-32
 20
-8.25
 21
-8.25
  0
LINE
  8
0
 10
-32
 11
-32
 20
-8.25
 21
-13.5
  0
LINE
  8
0
 10
-32
 11
-27
 20
-13.5
 21
-13.5
  0
LINE
  8
0
 10
-27
 11
-27
 20
-13.5
 21
-18.5
  0
LINE
  8
0
 10
-27
 11
27
 20
-18.5
 21
-18.5
  0
LINE
  8
0
 10
27
 11
27
 20
-18.5
 21
-15.571
  0
LINE
  8
0
 10
27
 11
29.071
 20
-15.571
 21
-13.5
  0
LINE
  8
0
 10
29.071
 11
32
 20
-13.5
 21
-13.5
  0
LINE
  8
0
 10
32
 11
32
 20
-13.5
 21
13.5
  0
LINE
  8
0
 10
32
 11
27
 20
13.5
 21
13.5
  0
LINE
  8
0
 10
27
 11
27
 20
13.5
 21
18.5
  0
LINE
  8
0
 10
27
 11
-27
 20
18.5
 21
18.5
  0
LINE
  8
0
 10
-27
 11
-27
 20
18.5
 21
13.5
  0
LINE
  8
0
 10
-27
 11
-32
 20
13.5
 21
13.5
  0
LINE
  8
0
 10
-32
 11
-32
 20
13.5
 21
8.25
  0
LINE
  8
0
 10
-32
 11
-35
 20
8.25
 21
8.25
  0
LINE
  8
0
 10
-35
 11
-35
 20
8.25
 21
17.5
  0
LINE
  8
0
 10
-35
 11
-34.913
 20
17.5
 21
18.332
  0
LINE
  8
0
 10
-34.913
 11
-34.654
 20
18.332
 21
19.127
  0
LINE
  8
0
 10
-34.654
 11
-34.236
 20
19.127
 21
19.851
  0
LINE
  8
0
 10
-34.236
 11
-33.677
 20
19.851
 21
20.473
  0
LINE
  8
0
 10
-33.677
 11
-33
 20
20.473
 21
20.964
  0
LINE
  8
0
 10
-33
 11
-32.236
 20
20.964
 21
21.304
  0
LINE
  8
0
 10
-32.236
 11
-31.418
 20
21.304
 21
21.478
  0
LINE
  8
0
 10
-31.418
 11
31.418
 20
21.478
 21
21.478
  0
LINE
  8
0
 10
31.418
 11
32.236
 20
21.478
 21
21.304
  0
LINE
  8
0
 10
32.236
 11
33
 20
21.304
 21
20.964
  0
LINE
  8
0
 10
33
 11
33.677
 20
20.964
 21
20.473
  0
LINE
  8
0
 10
33.677
 11
34.236
 20
20.473
 21
19.851
  0
LINE
  8
0
 10
34.236
 11
34.654
 20
19.851
 21
19.127
  0
LINE
  8
0
 10
34.654
 11
34.913
 20
19.127
 21
18.332
  0
LINE
  8
0
 10
34.913
 11
35
 20
18.332
 21
17.5
  0
LINE
  8
0
 10
35
 11
35
 20
17.5
 21
-17.5
  0
LINE
  8
0
 10
35
 11
34.913
 20
-17.5
 21
-18.332
  0
LINE
  8
0
 10
34.913
 11
34.654
 20
-18.332
 21
-19.127
  0
LINE
  8
0
 10
34.654
 11
34.236
 20
-19.127
 21
-19.851
  0
LINE
  8
0
 10
34.236
 11
33.677
 20
-19.851
 21
-20.473
  0
LINE
  8
0
 10
33.677
 11
33
 20
-20.473
 21
-20.964
  0
LINE
  8
0
 10
33
 11
32.236
 20
-20.964
 21
-21.304
  0
LINE
  8
0
 10
32.236
 11
31.418
 20
-21.304
 21
-21.478
  0
LINE
  8
0
 10
31.418
 11
-31.418
 20
-21.478
 21
-21.478
  0
LINE
  8
0
 10
-31.418
 11
-32.236
 20
-21.478
 21
-21.304
  0
LINE
  8
0
 10
-32.236
 11
-33
 20
-21.304
 21
-20.964
  0
LINE
  8
0
 10
-33
 11
-33.677
 20
-20.964
 21
-20.473
  0
LINE
  8
0
 10
-33.677
 11
-34.236
 20
-20.473
 21
-19.851
  0
LINE
  8
0
 10
-34.236
 11
-34.654
 20
-19.851
 21
-19.127
  0
LINE
  8
0
 10
-34.654
 11
-34.913
 20
-19.127
 21
-18.332
  0
LINE
  8
0
 10
-34.913
 11
-35
 20
-18.332
 21
-17.5
  0
LINE
  8
0
 10
-33.8
 11
-33.049
 20
-18.25
 21
-15.451
  0
LINE
  8
0
 10
-33.049
 11
-30.25
 20
-15.451
 21
-14.701
  0
LINE
  8
0
 10
-30.25
 11
-28.2
 20
-14.701
 21
-16.75
  0
LINE
  8
0
 10
-28.2
 11
-28.951
 20
-16.75
 21
-19.549
  0
LINE
  8
0
 10
-28.951
 11
-31.75
 20
-19.549
 21
-20.299
  0
LINE
  8
0
 10
-31.75
 11
-33.8
 20
-20.299
 21
-18.25
  0
LINE
  8
0
 10
-33.8
 11
-31.75
 20
18.25
 21
20.299
  0
LINE
  8
0
 10
-31.75
 11
-28.951
 20
20.299
 21
19.549
  0
LINE
  8
0
 10
-28.951
 11
-28.2
 20
19.549
 21
16.75
  0
LINE
  8
0
 10
-28.2
 11
-30.25
 20
16.75
 21
14.701
  0
LINE
  8
0
 10
-30.25
 11
-33.049
 20
14.701
 21
15.451
  0
LINE
  8
0
 10
-33.049
 11
-33.8
 20
15.451
 21
18.25
  0
LINE
  8
0
 10
28.2
 11
30.25
 20
-16.75
 21
-14.701
  0
LINE
  8
0
 10
30.25
 11
33.049
 20
-14.701
 21
-15.451
  0
LINE
  8
0
 10
33.049
 11
33.8
 20
-15.451
 21
-18.25
  0
LINE
  8
0
 10
33.8
 11
31.75
 20
-18.25
 21
-20.299
  0
LINE
  8
0
 10
31.75
 11
28.951
 20
-20.299
 21
-19.549
  0
LINE
  8
0
 10
28.951
 11
28.2
 20
-19.549
 21
-16.75
  0
LINE
  8
0
 10
28.2
 11
28.951
 20
16.75
 21
19.549
  0
LINE
  8
0
 10
28.951
 11
31.75
 20
19.549
 21
20.299
  0
LINE
  8
0
 10
31.75
 11
33.8
 20
20.299
 21
18.25
  0
LINE
  8
0
 10
33.8
 11
33.049
 20
18.25
 21
15.451
  0
LINE
  8
0
 10
33.049
 11
30.25
 20
15.451
 21
14.701
  0
LINE
  8
0
 10
30.25
 11
28.2
 20
14.701
 21
16.75
  0
ENDSEC
  0
SECTION
  2
OBJECTS
  0
DICTIONARY
  0
ENDSEC
  0
EOF
