solid OpenSCAD_Model
  facet normal -1 0 0
    outer loop
      vertex -3 -3 0
      vertex -3 -3 21
      vertex -3 6 0
    endloop
  endfacet
  facet normal -1 0 0
    outer loop
      vertex -3 6 0
      vertex -3 -3 21
      vertex -3 6 21
    endloop
  endfacet
  facet normal 0 -1 0
    outer loop
      vertex -3 -3 21
      vertex -3 -3 0
      vertex 3 -3 0
    endloop
  endfacet
  facet normal 0 -1 0
    outer loop
      vertex 3 -3 21
      vertex -3 -3 21
      vertex 3 -3 0
    endloop
  endfacet
  facet normal 0 0 -1
    outer loop
      vertex 1.21352 0.881678 0
      vertex -3 6 0
      vertex 3 2 0
    endloop
  endfacet
  facet normal 0 0 -1
    outer loop
      vertex 3 2 0
      vertex 3 6 0
      vertex 38 5 0
    endloop
  endfacet
  facet normal 0 0 -1
    outer loop
      vertex 36.4672 -0.311868 0
      vertex 38 5 0
      vertex 38 -3 0
    endloop
  endfacet
  facet normal 0 0 -1
    outer loop
      vertex -3 6 0
      vertex 3 6 0
      vertex 3 2 0
    endloop
  endfacet
  facet normal 0 0 -1
    outer loop
      vertex -0.156793 -1.49178 0
      vertex 3 -3 0
      vertex -0.463525 -1.42658 0
    endloop
  endfacet
  facet normal 0 0 -1
    outer loop
      vertex -3 -3 0
      vertex -3 6 0
      vertex -1.5 0 0
    endloop
  endfacet
  facet normal 0 0 -1
    outer loop
      vertex -3 -3 0
      vertex -1.5 0 0
      vertex -1.46722 -0.311868 0
    endloop
  endfacet
  facet normal 0 0 -1
    outer loop
      vertex -3 -3 0
      vertex -1.46722 -0.311868 0
      vertex -1.37032 -0.610105 0
    endloop
  endfacet
  facet normal 0 0 -1
    outer loop
      vertex -3 -3 0
      vertex -1.37032 -0.610105 0
      vertex -1.21352 -0.881678 0
    endloop
  endfacet
  facet normal 0 0 -1
    outer loop
      vertex -3 -3 0
      vertex -1.21352 -0.881678 0
      vertex -1.0037 -1.11472 0
    endloop
  endfacet
  facet normal 0 0 -1
    outer loop
      vertex -3 -3 0
      vertex -1.0037 -1.11472 0
      vertex -0.75 -1.29904 0
    endloop
  endfacet
  facet normal 0 0 -1
    outer loop
      vertex -3 -3 0
      vertex -0.75 -1.29904 0
      vertex 3 -3 0
    endloop
  endfacet
  facet normal 0 0 -1
    outer loop
      vertex -0.75 -1.29904 0
      vertex -0.463525 -1.42658 0
      vertex 3 -3 0
    endloop
  endfacet
  facet normal 0 0 -1
    outer loop
      vertex 0.156793 -1.49178 0
      vertex 3 -3 0
      vertex -0.156793 -1.49178 0
    endloop
  endfacet
  facet normal 0 0 -1
    outer loop
      vertex 0.463525 -1.42658 0
      vertex 3 -3 0
      vertex 0.156793 -1.49178 0
    endloop
  endfacet
  facet normal 0 0 -1
    outer loop
      vertex 0.75 -1.29904 0
      vertex 3 -3 0
      vertex 0.463525 -1.42658 0
    endloop
  endfacet
  facet normal 0 0 -1
    outer loop
      vertex 33.7865 -0.881678 0
      vertex 32 -3 0
      vertex 33.6297 -0.610105 0
    endloop
  endfacet
  facet normal 0 0 -1
    outer loop
      vertex 1.46722 -0.311868 0
      vertex 3 -3 0
      vertex 1.37032 -0.610105 0
    endloop
  endfacet
  facet normal 0 0 -1
    outer loop
      vertex -0.75 1.29904 0
      vertex -3 6 0
      vertex -0.463525 1.42658 0
    endloop
  endfacet
  facet normal 0 0 -1
    outer loop
      vertex 0.75 -1.29904 0
      vertex 1.0037 -1.11472 0
      vertex 3 -3 0
    endloop
  endfacet
  facet normal 0 0 -1
    outer loop
      vertex 1.0037 -1.11472 0
      vertex 1.21352 -0.881678 0
      vertex 3 -3 0
    endloop
  endfacet
  facet normal 0 0 -1
    outer loop
      vertex -0.463525 1.42658 0
      vertex -3 6 0
      vertex -0.156793 1.49178 0
    endloop
  endfacet
  facet normal 0 0 -1
    outer loop
      vertex 1.21352 -0.881678 0
      vertex 1.37032 -0.610105 0
      vertex 3 -3 0
    endloop
  endfacet
  facet normal 0 0 -1
    outer loop
      vertex -0.156793 1.49178 0
      vertex -3 6 0
      vertex 0.156793 1.49178 0
    endloop
  endfacet
  facet normal 0 0 -1
    outer loop
      vertex 3 -3 0
      vertex 1.46722 -0.311868 0
      vertex 3 2 0
    endloop
  endfacet
  facet normal 0 0 -1
    outer loop
      vertex 1.46722 -0.311868 0
      vertex 1.5 0 0
      vertex 3 2 0
    endloop
  endfacet
  facet normal 0 0 -1
    outer loop
      vertex 0.156793 1.49178 0
      vertex -3 6 0
      vertex 0.463525 1.42658 0
    endloop
  endfacet
  facet normal 0 0 -1
    outer loop
      vertex 1.5 0 0
      vertex 1.46722 0.311868 0
      vertex 3 2 0
    endloop
  endfacet
  facet normal 0 0 -1
    outer loop
      vertex 0.463525 1.42658 0
      vertex -3 6 0
      vertex 0.75 1.29904 0
    endloop
  endfacet
  facet normal 0 0 -1
    outer loop
      vertex 1.46722 0.311868 0
      vertex 1.37032 0.610105 0
      vertex 3 2 0
    endloop
  endfacet
  facet normal 0 0 -1
    outer loop
      vertex 1.0037 1.11472 0
      vertex -3 6 0
      vertex 1.21352 0.881678 0
    endloop
  endfacet
  facet normal 0 0 -1
    outer loop
      vertex 1.37032 0.610105 0
      vertex 1.21352 0.881678 0
      vertex 3 2 0
    endloop
  endfacet
  facet normal 0 0 -1
    outer loop
      vertex 0.75 1.29904 0
      vertex -3 6 0
      vertex 1.0037 1.11472 0
    endloop
  endfacet
  facet normal 0 0 -1
    outer loop
      vertex -1.0037 1.11472 0
      vertex -3 6 0
      vertex -0.75 1.29904 0
    endloop
  endfacet
  facet normal 0 0 -1
    outer loop
      vertex -1.21352 0.881678 0
      vertex -3 6 0
      vertex -1.0037 1.11472 0
    endloop
  endfacet
  facet normal 0 0 -1
    outer loop
      vertex -1.37032 0.610105 0
      vertex -3 6 0
      vertex -1.21352 0.881678 0
    endloop
  endfacet
  facet normal 0 0 -1
    outer loop
      vertex -1.46722 0.311868 0
      vertex -3 6 0
      vertex -1.37032 0.610105 0
    endloop
  endfacet
  facet normal 0 0 -1
    outer loop
      vertex -1.5 0 0
      vertex -3 6 0
      vertex -1.46722 0.311868 0
    endloop
  endfacet
  facet normal 0 0 -1
    outer loop
      vertex 32 2 0
      vertex 33.5 0 0
      vertex 32 -3 0
    endloop
  endfacet
  facet normal 0 0 -1
    outer loop
      vertex 34.5365 1.42658 0
      vertex 38 5 0
      vertex 34.8432 1.49178 0
    endloop
  endfacet
  facet normal 0 0 -1
    outer loop
      vertex 33.5 0 0
      vertex 33.5328 -0.311868 0
      vertex 32 -3 0
    endloop
  endfacet
  facet normal 0 0 -1
    outer loop
      vertex 34.8432 1.49178 0
      vertex 38 5 0
      vertex 35.1568 1.49178 0
    endloop
  endfacet
  facet normal 0 0 -1
    outer loop
      vertex 33.5328 -0.311868 0
      vertex 33.6297 -0.610105 0
      vertex 32 -3 0
    endloop
  endfacet
  facet normal 0 0 -1
    outer loop
      vertex 34.8432 -1.49178 0
      vertex 38 -3 0
      vertex 34.5365 -1.42658 0
    endloop
  endfacet
  facet normal 0 0 -1
    outer loop
      vertex 32 -3 0
      vertex 33.7865 -0.881678 0
      vertex 33.9963 -1.11472 0
    endloop
  endfacet
  facet normal 0 0 -1
    outer loop
      vertex 32 -3 0
      vertex 33.9963 -1.11472 0
      vertex 34.25 -1.29904 0
    endloop
  endfacet
  facet normal 0 0 -1
    outer loop
      vertex 32 -3 0
      vertex 34.25 -1.29904 0
      vertex 38 -3 0
    endloop
  endfacet
  facet normal 0 0 -1
    outer loop
      vertex 34.25 -1.29904 0
      vertex 34.5365 -1.42658 0
      vertex 38 -3 0
    endloop
  endfacet
  facet normal 0 0 -1
    outer loop
      vertex 35.1568 -1.49178 0
      vertex 38 -3 0
      vertex 34.8432 -1.49178 0
    endloop
  endfacet
  facet normal 0 0 -1
    outer loop
      vertex 35.1568 1.49178 0
      vertex 38 5 0
      vertex 35.4635 1.42658 0
    endloop
  endfacet
  facet normal 0 0 -1
    outer loop
      vertex 36.5 0 0
      vertex 38 5 0
      vertex 36.4672 -0.311868 0
    endloop
  endfacet
  facet normal 0 0 -1
    outer loop
      vertex 36.0037 1.11472 0
      vertex 38 5 0
      vertex 36.2135 0.881678 0
    endloop
  endfacet
  facet normal 0 0 -1
    outer loop
      vertex 35.1568 -1.49178 0
      vertex 35.4635 -1.42658 0
      vertex 38 -3 0
    endloop
  endfacet
  facet normal 0 0 -1
    outer loop
      vertex 36.2135 0.881678 0
      vertex 38 5 0
      vertex 36.3703 0.610105 0
    endloop
  endfacet
  facet normal 0 0 -1
    outer loop
      vertex 35.4635 -1.42658 0
      vertex 35.75 -1.29904 0
      vertex 38 -3 0
    endloop
  endfacet
  facet normal 0 0 -1
    outer loop
      vertex 36.3703 0.610105 0
      vertex 38 5 0
      vertex 36.4672 0.311868 0
    endloop
  endfacet
  facet normal 0 0 -1
    outer loop
      vertex 35.75 -1.29904 0
      vertex 36.0037 -1.11472 0
      vertex 38 -3 0
    endloop
  endfacet
  facet normal 0 0 -1
    outer loop
      vertex 36.0037 -1.11472 0
      vertex 36.2135 -0.881678 0
      vertex 38 -3 0
    endloop
  endfacet
  facet normal 0 0 -1
    outer loop
      vertex 36.4672 0.311868 0
      vertex 38 5 0
      vertex 36.5 0 0
    endloop
  endfacet
  facet normal 0 0 -1
    outer loop
      vertex 36.2135 -0.881678 0
      vertex 36.3703 -0.610105 0
      vertex 38 -3 0
    endloop
  endfacet
  facet normal 0 0 -1
    outer loop
      vertex 36.3703 -0.610105 0
      vertex 36.4672 -0.311868 0
      vertex 38 -3 0
    endloop
  endfacet
  facet normal 0 0 -1
    outer loop
      vertex 35.75 1.29904 0
      vertex 38 5 0
      vertex 36.0037 1.11472 0
    endloop
  endfacet
  facet normal 0 0 -1
    outer loop
      vertex 35.4635 1.42658 0
      vertex 38 5 0
      vertex 35.75 1.29904 0
    endloop
  endfacet
  facet normal 0 0 -1
    outer loop
      vertex 32 2 0
      vertex 38 5 0
      vertex 34.5365 1.42658 0
    endloop
  endfacet
  facet normal 0 0 -1
    outer loop
      vertex 32 2 0
      vertex 34.5365 1.42658 0
      vertex 34.25 1.29904 0
    endloop
  endfacet
  facet normal 0 0 -1
    outer loop
      vertex 32 2 0
      vertex 34.25 1.29904 0
      vertex 33.9963 1.11472 0
    endloop
  endfacet
  facet normal 0 0 -1
    outer loop
      vertex 32 2 0
      vertex 33.9963 1.11472 0
      vertex 33.7865 0.881678 0
    endloop
  endfacet
  facet normal 0 0 -1
    outer loop
      vertex 32 2 0
      vertex 33.7865 0.881678 0
      vertex 33.6297 0.610105 0
    endloop
  endfacet
  facet normal 0 0 -1
    outer loop
      vertex 32 2 0
      vertex 33.6297 0.610105 0
      vertex 33.5328 0.311868 0
    endloop
  endfacet
  facet normal 0 0 -1
    outer loop
      vertex 32 2 0
      vertex 33.5328 0.311868 0
      vertex 33.5 0 0
    endloop
  endfacet
  facet normal 0 0 -1
    outer loop
      vertex 3 2 0
      vertex 38 5 0
      vertex 32 2 0
    endloop
  endfacet
  facet normal 0 1 0
    outer loop
      vertex -3 6 0
      vertex -3 6 21
      vertex 3 6 0
    endloop
  endfacet
  facet normal 0 1 0
    outer loop
      vertex 3 6 11
      vertex -3 6 21
      vertex 3 6 21
    endloop
  endfacet
  facet normal 0 1 0
    outer loop
      vertex 3 6 0
      vertex -3 6 21
      vertex 3 6 11
    endloop
  endfacet
  facet normal 0 1 0
    outer loop
      vertex 3 6 11
      vertex 19.5 6 11
      vertex 3 6 0
    endloop
  endfacet
  facet normal 0 1 0
    outer loop
      vertex 19.5 6 11
      vertex 19.5 6 21
      vertex 25.5 6 21
    endloop
  endfacet
  facet normal 0 1 0
    outer loop
      vertex 19.5 6 11
      vertex 25.5 6 21
      vertex 25.5 6 11
    endloop
  endfacet
  facet normal 0 1 0
    outer loop
      vertex 19.5 6 11
      vertex 25.5 6 11
      vertex 3 6 0
    endloop
  endfacet
  facet normal 0 1 0
    outer loop
      vertex 3 6 0
      vertex 25.5 6 11
      vertex 25.5 6 10
    endloop
  endfacet
  facet normal 0 0 1
    outer loop
      vertex -0.75 1.70096 21
      vertex -3 -3 21
      vertex 3 -3 21
    endloop
  endfacet
  facet normal 0 0 1
    outer loop
      vertex -3 6 21
      vertex -3 -3 21
      vertex -1.46722 2.68813 21
    endloop
  endfacet
  facet normal 0 0 1
    outer loop
      vertex -0.463525 1.57342 21
      vertex -0.75 1.70096 21
      vertex 3 -3 21
    endloop
  endfacet
  facet normal 0 0 1
    outer loop
      vertex -3 6 21
      vertex -1.46722 2.68813 21
      vertex -1.5 3 21
    endloop
  endfacet
  facet normal 0 0 1
    outer loop
      vertex -3 6 21
      vertex -1.5 3 21
      vertex -1.46722 3.31187 21
    endloop
  endfacet
  facet normal 0 0 1
    outer loop
      vertex -1.21352 3.88168 21
      vertex -3 6 21
      vertex -1.37032 3.6101 21
    endloop
  endfacet
  facet normal 0 0 1
    outer loop
      vertex -1.0037 4.11472 21
      vertex -3 6 21
      vertex -1.21352 3.88168 21
    endloop
  endfacet
  facet normal 0 0 1
    outer loop
      vertex -0.75 4.29904 21
      vertex -3 6 21
      vertex -1.0037 4.11472 21
    endloop
  endfacet
  facet normal 0 0 1
    outer loop
      vertex 3 6 21
      vertex -3 6 21
      vertex -0.75 4.29904 21
    endloop
  endfacet
  facet normal 0 0 1
    outer loop
      vertex -0.156793 4.49178 21
      vertex 0.156793 4.49178 21
      vertex 3 6 21
    endloop
  endfacet
  facet normal 0 0 1
    outer loop
      vertex 3 6 21
      vertex -0.75 4.29904 21
      vertex -0.463525 4.42658 21
    endloop
  endfacet
  facet normal 0 0 1
    outer loop
      vertex 0.156793 4.49178 21
      vertex 0.463525 4.42658 21
      vertex 3 6 21
    endloop
  endfacet
  facet normal 0 0 1
    outer loop
      vertex 1.46722 3.31187 21
      vertex 1.5 3 21
      vertex 3 -3 21
    endloop
  endfacet
  facet normal 0 0 1
    outer loop
      vertex 0.156793 1.50822 21
      vertex -0.156793 1.50822 21
      vertex 3 -3 21
    endloop
  endfacet
  facet normal 0 0 1
    outer loop
      vertex -0.156793 1.50822 21
      vertex -0.463525 1.57342 21
      vertex 3 -3 21
    endloop
  endfacet
  facet normal 0 0 1
    outer loop
      vertex 3 6 21
      vertex 0.463525 4.42658 21
      vertex 0.75 4.29904 21
    endloop
  endfacet
  facet normal 0 0 1
    outer loop
      vertex 3 6 21
      vertex 0.75 4.29904 21
      vertex 1.0037 4.11472 21
    endloop
  endfacet
  facet normal 0 0 1
    outer loop
      vertex 1.46722 2.68813 21
      vertex 1.37032 2.38989 21
      vertex 3 -3 21
    endloop
  endfacet
  facet normal 0 0 1
    outer loop
      vertex 3 6 21
      vertex 1.0037 4.11472 21
      vertex 1.21352 3.88168 21
    endloop
  endfacet
  facet normal 0 0 1
    outer loop
      vertex 1.5 3 21
      vertex 1.46722 2.68813 21
      vertex 3 -3 21
    endloop
  endfacet
  facet normal 0 0 1
    outer loop
      vertex 3 6 21
      vertex 1.21352 3.88168 21
      vertex 1.37032 3.6101 21
    endloop
  endfacet
  facet normal 0 0 1
    outer loop
      vertex 3 6 21
      vertex 1.46722 3.31187 21
      vertex 3 -3 21
    endloop
  endfacet
  facet normal 0 0 1
    outer loop
      vertex 3 6 21
      vertex 1.37032 3.6101 21
      vertex 1.46722 3.31187 21
    endloop
  endfacet
  facet normal 0 0 1
    outer loop
      vertex 1.21352 2.11832 21
      vertex 1.0037 1.88528 21
      vertex 3 -3 21
    endloop
  endfacet
  facet normal 0 0 1
    outer loop
      vertex 1.0037 1.88528 21
      vertex 0.75 1.70096 21
      vertex 3 -3 21
    endloop
  endfacet
  facet normal 0 0 1
    outer loop
      vertex 0.75 1.70096 21
      vertex 0.463525 1.57342 21
      vertex 3 -3 21
    endloop
  endfacet
  facet normal 0 0 1
    outer loop
      vertex 0.463525 1.57342 21
      vertex 0.156793 1.50822 21
      vertex 3 -3 21
    endloop
  endfacet
  facet normal 0 0 1
    outer loop
      vertex -0.463525 4.42658 21
      vertex -0.156793 4.49178 21
      vertex 3 6 21
    endloop
  endfacet
  facet normal 0 0 1
    outer loop
      vertex 1.37032 2.38989 21
      vertex 1.21352 2.11832 21
      vertex 3 -3 21
    endloop
  endfacet
  facet normal 0 0 1
    outer loop
      vertex -1.0037 1.88528 21
      vertex -3 -3 21
      vertex -0.75 1.70096 21
    endloop
  endfacet
  facet normal 0 0 1
    outer loop
      vertex -1.21352 2.11832 21
      vertex -3 -3 21
      vertex -1.0037 1.88528 21
    endloop
  endfacet
  facet normal 0 0 1
    outer loop
      vertex -1.37032 2.38989 21
      vertex -3 -3 21
      vertex -1.21352 2.11832 21
    endloop
  endfacet
  facet normal 0 0 1
    outer loop
      vertex -1.46722 2.68813 21
      vertex -3 -3 21
      vertex -1.37032 2.38989 21
    endloop
  endfacet
  facet normal 0 0 1
    outer loop
      vertex -1.46722 3.31187 21
      vertex -1.37032 3.6101 21
      vertex -3 6 21
    endloop
  endfacet
  facet normal 1 0 0
    outer loop
      vertex 3 -3 21
      vertex 3 -3 0
      vertex 3 2 0
    endloop
  endfacet
  facet normal 1 0 0
    outer loop
      vertex 3 1.91429 11
      vertex 3 -3 21
      vertex 3 1.91429 1.71429
    endloop
  endfacet
  facet normal 1 0 0
    outer loop
      vertex 3 1.91429 1.71429
      vertex 3 -3 21
      vertex 3 2 0
    endloop
  endfacet
  facet normal 1 0 0
    outer loop
      vertex 3 6 11
      vertex 3 -3 21
      vertex 3 1.91429 11
    endloop
  endfacet
  facet normal 1 0 0
    outer loop
      vertex 3 6 21
      vertex 3 -3 21
      vertex 3 6 11
    endloop
  endfacet
  facet normal 0 -0.998752 -0.0499376
    outer loop
      vertex 32 1.5 10
      vertex 3 1.91429 1.71429
      vertex 3 2 0
    endloop
  endfacet
  facet normal 0 -0.998752 -0.0499376
    outer loop
      vertex 32 2 0
      vertex 32 1.5 10
      vertex 3 2 0
    endloop
  endfacet
  facet normal -1 0 0
    outer loop
      vertex 32 -3 0
      vertex 32 -3 11
      vertex 32 2 0
    endloop
  endfacet
  facet normal -1 0 0
    outer loop
      vertex 32 1.5 10
      vertex 32 -3 11
      vertex 32 1.5 11
    endloop
  endfacet
  facet normal -1 0 0
    outer loop
      vertex 32 2 0
      vertex 32 -3 11
      vertex 32 1.5 10
    endloop
  endfacet
  facet normal 0 -1 0
    outer loop
      vertex 32 -3 11
      vertex 32 -3 0
      vertex 38 -3 0
    endloop
  endfacet
  facet normal 0 -1 0
    outer loop
      vertex 38 -3 11
      vertex 32 -3 11
      vertex 38 -3 0
    endloop
  endfacet
  facet normal 1 0 0
    outer loop
      vertex 38 -3 11
      vertex 38 -3 0
      vertex 38 5 0
    endloop
  endfacet
  facet normal 1 0 0
    outer loop
      vertex 38 4.5 11
      vertex 38 -3 11
      vertex 38 5 1
    endloop
  endfacet
  facet normal 1 0 0
    outer loop
      vertex 38 5 1
      vertex 38 -3 11
      vertex 38 5 0
    endloop
  endfacet
  facet normal 0.0797452 0.996815 0
    outer loop
      vertex 25.5 6 10
      vertex 25.5 6 11
      vertex 38 5 0
    endloop
  endfacet
  facet normal 0.0797452 0.996815 0
    outer loop
      vertex 38 5 0
      vertex 25.5 6 11
      vertex 38 5 1
    endloop
  endfacet
  facet normal 0.028501 0.997535 -0.0641272
    outer loop
      vertex 38 5 0
      vertex 3 6 0
      vertex 25.5 6 10
    endloop
  endfacet
  facet normal 0.994522 -0.10453 0
    outer loop
      vertex -1.46722 0.311868 0
      vertex -1.46722 0.311868 7
      vertex -1.5 0 7
    endloop
  endfacet
  facet normal 0.994522 -0.10453 0
    outer loop
      vertex -1.5 0 0
      vertex -1.46722 0.311868 0
      vertex -1.5 0 7
    endloop
  endfacet
  facet normal 0.994522 0.10453 0
    outer loop
      vertex -1.5 0 7
      vertex -1.46722 -0.311868 7
      vertex -1.46722 -0.311868 0
    endloop
  endfacet
  facet normal 0.994522 0.10453 0
    outer loop
      vertex -1.5 0 0
      vertex -1.5 0 7
      vertex -1.46722 -0.311868 0
    endloop
  endfacet
  facet normal 0.951057 -0.309017 0
    outer loop
      vertex -1.37032 0.610105 0
      vertex -1.37032 0.610105 7
      vertex -1.46722 0.311868 7
    endloop
  endfacet
  facet normal 0.951057 -0.309017 0
    outer loop
      vertex -1.46722 0.311868 0
      vertex -1.37032 0.610105 0
      vertex -1.46722 0.311868 7
    endloop
  endfacet
  facet normal 0.866025 -0.500001 0
    outer loop
      vertex -1.21352 0.881678 0
      vertex -1.21352 0.881678 7
      vertex -1.37032 0.610105 7
    endloop
  endfacet
  facet normal 0.866025 -0.500001 0
    outer loop
      vertex -1.37032 0.610105 0
      vertex -1.21352 0.881678 0
      vertex -1.37032 0.610105 7
    endloop
  endfacet
  facet normal 0.743145 -0.66913 0
    outer loop
      vertex -1.0037 1.11472 0
      vertex -1.0037 1.11472 7
      vertex -1.21352 0.881678 7
    endloop
  endfacet
  facet normal 0.743145 -0.66913 0
    outer loop
      vertex -1.21352 0.881678 0
      vertex -1.0037 1.11472 0
      vertex -1.21352 0.881678 7
    endloop
  endfacet
  facet normal 0.587785 -0.809017 0
    outer loop
      vertex -0.75 1.29904 0
      vertex -0.75 1.29904 7
      vertex -1.0037 1.11472 7
    endloop
  endfacet
  facet normal 0.587785 -0.809017 0
    outer loop
      vertex -1.0037 1.11472 0
      vertex -0.75 1.29904 0
      vertex -1.0037 1.11472 7
    endloop
  endfacet
  facet normal 0.406737 -0.913545 0
    outer loop
      vertex -0.463525 1.42658 0
      vertex -0.463525 1.42658 7
      vertex -0.75 1.29904 7
    endloop
  endfacet
  facet normal 0.406737 -0.913545 0
    outer loop
      vertex -0.75 1.29904 0
      vertex -0.463525 1.42658 0
      vertex -0.75 1.29904 7
    endloop
  endfacet
  facet normal 0.207912 -0.978148 0
    outer loop
      vertex -0.156793 1.49178 0
      vertex -0.156793 1.49178 7
      vertex -0.463525 1.42658 7
    endloop
  endfacet
  facet normal 0.207912 -0.978148 0
    outer loop
      vertex -0.463525 1.42658 0
      vertex -0.156793 1.49178 0
      vertex -0.463525 1.42658 7
    endloop
  endfacet
  facet normal 0 -1 0
    outer loop
      vertex 0.156793 1.49178 0
      vertex 0.156793 1.49178 7
      vertex -0.156793 1.49178 7
    endloop
  endfacet
  facet normal 0 -1 0
    outer loop
      vertex -0.156793 1.49178 0
      vertex 0.156793 1.49178 0
      vertex -0.156793 1.49178 7
    endloop
  endfacet
  facet normal -0.207912 -0.978148 0
    outer loop
      vertex 0.463525 1.42658 0
      vertex 0.463525 1.42658 7
      vertex 0.156793 1.49178 7
    endloop
  endfacet
  facet normal -0.207912 -0.978148 0
    outer loop
      vertex 0.156793 1.49178 0
      vertex 0.463525 1.42658 0
      vertex 0.156793 1.49178 7
    endloop
  endfacet
  facet normal -0.406737 -0.913545 0
    outer loop
      vertex 0.75 1.29904 0
      vertex 0.75 1.29904 7
      vertex 0.463525 1.42658 7
    endloop
  endfacet
  facet normal -0.406737 -0.913545 0
    outer loop
      vertex 0.463525 1.42658 0
      vertex 0.75 1.29904 0
      vertex 0.463525 1.42658 7
    endloop
  endfacet
  facet normal -0.587785 -0.809017 0
    outer loop
      vertex 1.0037 1.11472 0
      vertex 1.0037 1.11472 7
      vertex 0.75 1.29904 7
    endloop
  endfacet
  facet normal -0.587785 -0.809017 0
    outer loop
      vertex 0.75 1.29904 0
      vertex 1.0037 1.11472 0
      vertex 0.75 1.29904 7
    endloop
  endfacet
  facet normal -0.743145 -0.66913 0
    outer loop
      vertex 1.21352 0.881678 7
      vertex 1.0037 1.11472 7
      vertex 1.21352 0.881678 0
    endloop
  endfacet
  facet normal -0.743145 -0.66913 0
    outer loop
      vertex 1.21352 0.881678 0
      vertex 1.0037 1.11472 7
      vertex 1.0037 1.11472 0
    endloop
  endfacet
  facet normal -0.866025 -0.500001 0
    outer loop
      vertex 1.37032 0.610105 7
      vertex 1.21352 0.881678 7
      vertex 1.37032 0.610105 0
    endloop
  endfacet
  facet normal -0.866025 -0.500001 0
    outer loop
      vertex 1.37032 0.610105 0
      vertex 1.21352 0.881678 7
      vertex 1.21352 0.881678 0
    endloop
  endfacet
  facet normal -0.951057 -0.309017 0
    outer loop
      vertex 1.46722 0.311868 7
      vertex 1.37032 0.610105 7
      vertex 1.46722 0.311868 0
    endloop
  endfacet
  facet normal -0.951057 -0.309017 0
    outer loop
      vertex 1.46722 0.311868 0
      vertex 1.37032 0.610105 7
      vertex 1.37032 0.610105 0
    endloop
  endfacet
  facet normal -0.994522 -0.10453 0
    outer loop
      vertex 1.5 0 7
      vertex 1.46722 0.311868 7
      vertex 1.5 0 0
    endloop
  endfacet
  facet normal -0.994522 -0.10453 0
    outer loop
      vertex 1.5 0 0
      vertex 1.46722 0.311868 7
      vertex 1.46722 0.311868 0
    endloop
  endfacet
  facet normal -0.994522 0.10453 0
    outer loop
      vertex 1.5 0 7
      vertex 1.5 0 0
      vertex 1.46722 -0.311868 7
    endloop
  endfacet
  facet normal -0.994522 0.10453 0
    outer loop
      vertex 1.46722 -0.311868 7
      vertex 1.5 0 0
      vertex 1.46722 -0.311868 0
    endloop
  endfacet
  facet normal -0.951057 0.309017 0
    outer loop
      vertex 1.46722 -0.311868 7
      vertex 1.46722 -0.311868 0
      vertex 1.37032 -0.610105 7
    endloop
  endfacet
  facet normal -0.951057 0.309017 0
    outer loop
      vertex 1.37032 -0.610105 7
      vertex 1.46722 -0.311868 0
      vertex 1.37032 -0.610105 0
    endloop
  endfacet
  facet normal -0.866025 0.500001 0
    outer loop
      vertex 1.37032 -0.610105 7
      vertex 1.37032 -0.610105 0
      vertex 1.21352 -0.881678 7
    endloop
  endfacet
  facet normal -0.866025 0.500001 0
    outer loop
      vertex 1.21352 -0.881678 7
      vertex 1.37032 -0.610105 0
      vertex 1.21352 -0.881678 0
    endloop
  endfacet
  facet normal -0.743145 0.66913 0
    outer loop
      vertex 1.21352 -0.881678 7
      vertex 1.21352 -0.881678 0
      vertex 1.0037 -1.11472 7
    endloop
  endfacet
  facet normal -0.743145 0.66913 0
    outer loop
      vertex 1.0037 -1.11472 7
      vertex 1.21352 -0.881678 0
      vertex 1.0037 -1.11472 0
    endloop
  endfacet
  facet normal -0.587785 0.809017 0
    outer loop
      vertex 1.0037 -1.11472 7
      vertex 1.0037 -1.11472 0
      vertex 0.75 -1.29904 7
    endloop
  endfacet
  facet normal -0.587785 0.809017 0
    outer loop
      vertex 0.75 -1.29904 7
      vertex 1.0037 -1.11472 0
      vertex 0.75 -1.29904 0
    endloop
  endfacet
  facet normal -0.406737 0.913545 0
    outer loop
      vertex 0.75 -1.29904 7
      vertex 0.75 -1.29904 0
      vertex 0.463525 -1.42658 7
    endloop
  endfacet
  facet normal -0.406737 0.913545 0
    outer loop
      vertex 0.463525 -1.42658 7
      vertex 0.75 -1.29904 0
      vertex 0.463525 -1.42658 0
    endloop
  endfacet
  facet normal -0.207912 0.978148 0
    outer loop
      vertex 0.463525 -1.42658 7
      vertex 0.463525 -1.42658 0
      vertex 0.156793 -1.49178 7
    endloop
  endfacet
  facet normal -0.207912 0.978148 0
    outer loop
      vertex 0.156793 -1.49178 7
      vertex 0.463525 -1.42658 0
      vertex 0.156793 -1.49178 0
    endloop
  endfacet
  facet normal 0 1 0
    outer loop
      vertex 0.156793 -1.49178 7
      vertex 0.156793 -1.49178 0
      vertex -0.156793 -1.49178 7
    endloop
  endfacet
  facet normal 0 1 0
    outer loop
      vertex -0.156793 -1.49178 7
      vertex 0.156793 -1.49178 0
      vertex -0.156793 -1.49178 0
    endloop
  endfacet
  facet normal 0.207912 0.978148 0
    outer loop
      vertex -0.156793 -1.49178 7
      vertex -0.156793 -1.49178 0
      vertex -0.463525 -1.42658 7
    endloop
  endfacet
  facet normal 0.207912 0.978148 0
    outer loop
      vertex -0.463525 -1.42658 7
      vertex -0.156793 -1.49178 0
      vertex -0.463525 -1.42658 0
    endloop
  endfacet
  facet normal 0.406737 0.913545 0
    outer loop
      vertex -0.463525 -1.42658 7
      vertex -0.463525 -1.42658 0
      vertex -0.75 -1.29904 7
    endloop
  endfacet
  facet normal 0.406737 0.913545 0
    outer loop
      vertex -0.75 -1.29904 7
      vertex -0.463525 -1.42658 0
      vertex -0.75 -1.29904 0
    endloop
  endfacet
  facet normal 0.587785 0.809017 0
    outer loop
      vertex -0.75 -1.29904 7
      vertex -0.75 -1.29904 0
      vertex -1.0037 -1.11472 7
    endloop
  endfacet
  facet normal 0.587785 0.809017 0
    outer loop
      vertex -1.0037 -1.11472 7
      vertex -0.75 -1.29904 0
      vertex -1.0037 -1.11472 0
    endloop
  endfacet
  facet normal 0.743145 0.66913 0
    outer loop
      vertex -1.21352 -0.881678 7
      vertex -1.0037 -1.11472 7
      vertex -1.0037 -1.11472 0
    endloop
  endfacet
  facet normal 0.743145 0.66913 0
    outer loop
      vertex -1.21352 -0.881678 0
      vertex -1.21352 -0.881678 7
      vertex -1.0037 -1.11472 0
    endloop
  endfacet
  facet normal 0.866025 0.500001 0
    outer loop
      vertex -1.37032 -0.610105 7
      vertex -1.21352 -0.881678 7
      vertex -1.21352 -0.881678 0
    endloop
  endfacet
  facet normal 0.866025 0.500001 0
    outer loop
      vertex -1.37032 -0.610105 0
      vertex -1.37032 -0.610105 7
      vertex -1.21352 -0.881678 0
    endloop
  endfacet
  facet normal 0.951057 0.309017 0
    outer loop
      vertex -1.46722 -0.311868 7
      vertex -1.37032 -0.610105 7
      vertex -1.37032 -0.610105 0
    endloop
  endfacet
  facet normal 0.951057 0.309017 0
    outer loop
      vertex -1.46722 -0.311868 0
      vertex -1.46722 -0.311868 7
      vertex -1.37032 -0.610105 0
    endloop
  endfacet
  facet normal 0.994522 0.10453 0
    outer loop
      vertex 33.5 0 7
      vertex 33.5328 -0.311868 7
      vertex 33.5328 -0.311868 0
    endloop
  endfacet
  facet normal 0.994522 0.10453 0
    outer loop
      vertex 33.5 0 0
      vertex 33.5 0 7
      vertex 33.5328 -0.311868 0
    endloop
  endfacet
  facet normal 0.994522 -0.10453 0
    outer loop
      vertex 33.5328 0.311868 0
      vertex 33.5328 0.311868 7
      vertex 33.5 0 7
    endloop
  endfacet
  facet normal 0.994522 -0.10453 0
    outer loop
      vertex 33.5 0 0
      vertex 33.5328 0.311868 0
      vertex 33.5 0 7
    endloop
  endfacet
  facet normal 0.951057 -0.309017 0
    outer loop
      vertex 33.6297 0.610105 0
      vertex 33.6297 0.610105 7
      vertex 33.5328 0.311868 7
    endloop
  endfacet
  facet normal 0.951057 -0.309017 0
    outer loop
      vertex 33.5328 0.311868 0
      vertex 33.6297 0.610105 0
      vertex 33.5328 0.311868 7
    endloop
  endfacet
  facet normal 0.866025 -0.500001 0
    outer loop
      vertex 33.7865 0.881678 0
      vertex 33.7865 0.881678 7
      vertex 33.6297 0.610105 7
    endloop
  endfacet
  facet normal 0.866025 -0.500001 0
    outer loop
      vertex 33.6297 0.610105 0
      vertex 33.7865 0.881678 0
      vertex 33.6297 0.610105 7
    endloop
  endfacet
  facet normal 0.743145 -0.66913 0
    outer loop
      vertex 33.9963 1.11472 0
      vertex 33.9963 1.11472 7
      vertex 33.7865 0.881678 7
    endloop
  endfacet
  facet normal 0.743145 -0.66913 0
    outer loop
      vertex 33.7865 0.881678 0
      vertex 33.9963 1.11472 0
      vertex 33.7865 0.881678 7
    endloop
  endfacet
  facet normal 0.587785 -0.809017 0
    outer loop
      vertex 34.25 1.29904 0
      vertex 34.25 1.29904 7
      vertex 33.9963 1.11472 7
    endloop
  endfacet
  facet normal 0.587785 -0.809017 0
    outer loop
      vertex 33.9963 1.11472 0
      vertex 34.25 1.29904 0
      vertex 33.9963 1.11472 7
    endloop
  endfacet
  facet normal 0.406737 -0.913545 0
    outer loop
      vertex 34.5365 1.42658 0
      vertex 34.5365 1.42658 7
      vertex 34.25 1.29904 7
    endloop
  endfacet
  facet normal 0.406737 -0.913545 0
    outer loop
      vertex 34.25 1.29904 0
      vertex 34.5365 1.42658 0
      vertex 34.25 1.29904 7
    endloop
  endfacet
  facet normal 0.207912 -0.978148 0
    outer loop
      vertex 34.8432 1.49178 0
      vertex 34.8432 1.49178 7
      vertex 34.5365 1.42658 7
    endloop
  endfacet
  facet normal 0.207912 -0.978148 0
    outer loop
      vertex 34.5365 1.42658 0
      vertex 34.8432 1.49178 0
      vertex 34.5365 1.42658 7
    endloop
  endfacet
  facet normal 0 -1 0
    outer loop
      vertex 35.1568 1.49178 0
      vertex 35.1568 1.49178 7
      vertex 34.8432 1.49178 7
    endloop
  endfacet
  facet normal 0 -1 0
    outer loop
      vertex 34.8432 1.49178 0
      vertex 35.1568 1.49178 0
      vertex 34.8432 1.49178 7
    endloop
  endfacet
  facet normal -0.207912 -0.978148 0
    outer loop
      vertex 35.4635 1.42658 0
      vertex 35.4635 1.42658 7
      vertex 35.1568 1.49178 7
    endloop
  endfacet
  facet normal -0.207912 -0.978148 0
    outer loop
      vertex 35.1568 1.49178 0
      vertex 35.4635 1.42658 0
      vertex 35.1568 1.49178 7
    endloop
  endfacet
  facet normal -0.406737 -0.913545 0
    outer loop
      vertex 35.75 1.29904 0
      vertex 35.75 1.29904 7
      vertex 35.4635 1.42658 7
    endloop
  endfacet
  facet normal -0.406737 -0.913545 0
    outer loop
      vertex 35.4635 1.42658 0
      vertex 35.75 1.29904 0
      vertex 35.4635 1.42658 7
    endloop
  endfacet
  facet normal -0.587785 -0.809017 0
    outer loop
      vertex 36.0037 1.11472 0
      vertex 36.0037 1.11472 7
      vertex 35.75 1.29904 7
    endloop
  endfacet
  facet normal -0.587785 -0.809017 0
    outer loop
      vertex 35.75 1.29904 0
      vertex 36.0037 1.11472 0
      vertex 35.75 1.29904 7
    endloop
  endfacet
  facet normal -0.743145 -0.66913 0
    outer loop
      vertex 36.2135 0.881678 7
      vertex 36.0037 1.11472 7
      vertex 36.2135 0.881678 0
    endloop
  endfacet
  facet normal -0.743145 -0.66913 0
    outer loop
      vertex 36.2135 0.881678 0
      vertex 36.0037 1.11472 7
      vertex 36.0037 1.11472 0
    endloop
  endfacet
  facet normal -0.866025 -0.500001 0
    outer loop
      vertex 36.3703 0.610105 7
      vertex 36.2135 0.881678 7
      vertex 36.3703 0.610105 0
    endloop
  endfacet
  facet normal -0.866025 -0.500001 0
    outer loop
      vertex 36.3703 0.610105 0
      vertex 36.2135 0.881678 7
      vertex 36.2135 0.881678 0
    endloop
  endfacet
  facet normal -0.951057 -0.309017 0
    outer loop
      vertex 36.4672 0.311868 7
      vertex 36.3703 0.610105 7
      vertex 36.4672 0.311868 0
    endloop
  endfacet
  facet normal -0.951057 -0.309017 0
    outer loop
      vertex 36.4672 0.311868 0
      vertex 36.3703 0.610105 7
      vertex 36.3703 0.610105 0
    endloop
  endfacet
  facet normal -0.994522 -0.10453 0
    outer loop
      vertex 36.5 0 7
      vertex 36.4672 0.311868 7
      vertex 36.5 0 0
    endloop
  endfacet
  facet normal -0.994522 -0.10453 0
    outer loop
      vertex 36.5 0 0
      vertex 36.4672 0.311868 7
      vertex 36.4672 0.311868 0
    endloop
  endfacet
  facet normal -0.994522 0.10453 0
    outer loop
      vertex 36.5 0 7
      vertex 36.5 0 0
      vertex 36.4672 -0.311868 7
    endloop
  endfacet
  facet normal -0.994522 0.10453 0
    outer loop
      vertex 36.4672 -0.311868 7
      vertex 36.5 0 0
      vertex 36.4672 -0.311868 0
    endloop
  endfacet
  facet normal -0.951057 0.309017 0
    outer loop
      vertex 36.4672 -0.311868 7
      vertex 36.4672 -0.311868 0
      vertex 36.3703 -0.610105 7
    endloop
  endfacet
  facet normal -0.951057 0.309017 0
    outer loop
      vertex 36.3703 -0.610105 7
      vertex 36.4672 -0.311868 0
      vertex 36.3703 -0.610105 0
    endloop
  endfacet
  facet normal -0.866025 0.500001 0
    outer loop
      vertex 36.3703 -0.610105 7
      vertex 36.3703 -0.610105 0
      vertex 36.2135 -0.881678 7
    endloop
  endfacet
  facet normal -0.866025 0.500001 0
    outer loop
      vertex 36.2135 -0.881678 7
      vertex 36.3703 -0.610105 0
      vertex 36.2135 -0.881678 0
    endloop
  endfacet
  facet normal -0.743145 0.66913 0
    outer loop
      vertex 36.2135 -0.881678 7
      vertex 36.2135 -0.881678 0
      vertex 36.0037 -1.11472 7
    endloop
  endfacet
  facet normal -0.743145 0.66913 0
    outer loop
      vertex 36.0037 -1.11472 7
      vertex 36.2135 -0.881678 0
      vertex 36.0037 -1.11472 0
    endloop
  endfacet
  facet normal -0.587785 0.809017 0
    outer loop
      vertex 36.0037 -1.11472 7
      vertex 36.0037 -1.11472 0
      vertex 35.75 -1.29904 7
    endloop
  endfacet
  facet normal -0.587785 0.809017 0
    outer loop
      vertex 35.75 -1.29904 7
      vertex 36.0037 -1.11472 0
      vertex 35.75 -1.29904 0
    endloop
  endfacet
  facet normal -0.406737 0.913545 0
    outer loop
      vertex 35.75 -1.29904 7
      vertex 35.75 -1.29904 0
      vertex 35.4635 -1.42658 7
    endloop
  endfacet
  facet normal -0.406737 0.913545 0
    outer loop
      vertex 35.4635 -1.42658 7
      vertex 35.75 -1.29904 0
      vertex 35.4635 -1.42658 0
    endloop
  endfacet
  facet normal -0.207912 0.978148 0
    outer loop
      vertex 35.4635 -1.42658 7
      vertex 35.4635 -1.42658 0
      vertex 35.1568 -1.49178 7
    endloop
  endfacet
  facet normal -0.207912 0.978148 0
    outer loop
      vertex 35.1568 -1.49178 7
      vertex 35.4635 -1.42658 0
      vertex 35.1568 -1.49178 0
    endloop
  endfacet
  facet normal 0 1 0
    outer loop
      vertex 35.1568 -1.49178 7
      vertex 35.1568 -1.49178 0
      vertex 34.8432 -1.49178 7
    endloop
  endfacet
  facet normal 0 1 0
    outer loop
      vertex 34.8432 -1.49178 7
      vertex 35.1568 -1.49178 0
      vertex 34.8432 -1.49178 0
    endloop
  endfacet
  facet normal 0.207912 0.978148 0
    outer loop
      vertex 34.8432 -1.49178 7
      vertex 34.8432 -1.49178 0
      vertex 34.5365 -1.42658 7
    endloop
  endfacet
  facet normal 0.207912 0.978148 0
    outer loop
      vertex 34.5365 -1.42658 7
      vertex 34.8432 -1.49178 0
      vertex 34.5365 -1.42658 0
    endloop
  endfacet
  facet normal 0.406737 0.913545 0
    outer loop
      vertex 34.5365 -1.42658 7
      vertex 34.5365 -1.42658 0
      vertex 34.25 -1.29904 7
    endloop
  endfacet
  facet normal 0.406737 0.913545 0
    outer loop
      vertex 34.25 -1.29904 7
      vertex 34.5365 -1.42658 0
      vertex 34.25 -1.29904 0
    endloop
  endfacet
  facet normal 0.587785 0.809017 0
    outer loop
      vertex 34.25 -1.29904 7
      vertex 34.25 -1.29904 0
      vertex 33.9963 -1.11472 7
    endloop
  endfacet
  facet normal 0.587785 0.809017 0
    outer loop
      vertex 33.9963 -1.11472 7
      vertex 34.25 -1.29904 0
      vertex 33.9963 -1.11472 0
    endloop
  endfacet
  facet normal 0.743145 0.66913 0
    outer loop
      vertex 33.7865 -0.881678 7
      vertex 33.9963 -1.11472 7
      vertex 33.9963 -1.11472 0
    endloop
  endfacet
  facet normal 0.743145 0.66913 0
    outer loop
      vertex 33.7865 -0.881678 0
      vertex 33.7865 -0.881678 7
      vertex 33.9963 -1.11472 0
    endloop
  endfacet
  facet normal 0.866025 0.500001 0
    outer loop
      vertex 33.6297 -0.610105 7
      vertex 33.7865 -0.881678 7
      vertex 33.7865 -0.881678 0
    endloop
  endfacet
  facet normal 0.866025 0.500001 0
    outer loop
      vertex 33.6297 -0.610105 0
      vertex 33.6297 -0.610105 7
      vertex 33.7865 -0.881678 0
    endloop
  endfacet
  facet normal 0.951057 0.309017 0
    outer loop
      vertex 33.5328 -0.311868 7
      vertex 33.6297 -0.610105 7
      vertex 33.6297 -0.610105 0
    endloop
  endfacet
  facet normal 0.951057 0.309017 0
    outer loop
      vertex 33.5328 -0.311868 0
      vertex 33.5328 -0.311868 7
      vertex 33.6297 -0.610105 0
    endloop
  endfacet
  facet normal 1 0 0
    outer loop
      vertex 25.5 0 21
      vertex 25.5 0 20
      vertex 25.5 1.8 11
    endloop
  endfacet
  facet normal 1 0 0
    outer loop
      vertex 25.5 6 21
      vertex 25.5 0 21
      vertex 25.5 6 11
    endloop
  endfacet
  facet normal 1 0 0
    outer loop
      vertex 25.5 6 11
      vertex 25.5 0 21
      vertex 25.5 1.8 11
    endloop
  endfacet
  facet normal 0.118999 0.991656 0.0495828
    outer loop
      vertex 38 5 1
      vertex 25.5 6 11
      vertex 38 4.5 11
    endloop
  endfacet
  facet normal 0 0 1
    outer loop
      vertex 19.5 1.8 11
      vertex 3 1.91429 11
      vertex 32 1.5 11
    endloop
  endfacet
  facet normal 0 0 1
    outer loop
      vertex 19.5 1.8 11
      vertex 3 6 11
      vertex 3 1.91429 11
    endloop
  endfacet
  facet normal 0 0 1
    outer loop
      vertex 32 -3 11
      vertex 38 -3 11
      vertex 32 1.5 11
    endloop
  endfacet
  facet normal 0 0 1
    outer loop
      vertex 38 -3 11
      vertex 38 4.5 11
      vertex 32 1.5 11
    endloop
  endfacet
  facet normal 0 0 1
    outer loop
      vertex 25.5 1.8 11
      vertex 19.5 1.8 11
      vertex 32 1.5 11
    endloop
  endfacet
  facet normal 0 0 1
    outer loop
      vertex 19.5 1.8 11
      vertex 19.5 6 11
      vertex 3 6 11
    endloop
  endfacet
  facet normal 0 0 1
    outer loop
      vertex 25.5 6 11
      vertex 32 1.5 11
      vertex 38 4.5 11
    endloop
  endfacet
  facet normal 0 0 1
    outer loop
      vertex 25.5 6 11
      vertex 25.5 1.8 11
      vertex 32 1.5 11
    endloop
  endfacet
  facet normal 0 0 1
    outer loop
      vertex 22.6568 1.50822 21
      vertex 19.5 0 21
      vertex 25.5 0 21
    endloop
  endfacet
  facet normal 0 0 1
    outer loop
      vertex 19.5 6 21
      vertex 19.5 0 21
      vertex 21.0328 2.68813 21
    endloop
  endfacet
  facet normal 0 0 1
    outer loop
      vertex 22.9635 1.57342 21
      vertex 22.6568 1.50822 21
      vertex 25.5 0 21
    endloop
  endfacet
  facet normal 0 0 1
    outer loop
      vertex 19.5 6 21
      vertex 21.0328 2.68813 21
      vertex 21 3 21
    endloop
  endfacet
  facet normal 0 0 1
    outer loop
      vertex 19.5 6 21
      vertex 21 3 21
      vertex 21.0328 3.31187 21
    endloop
  endfacet
  facet normal 0 0 1
    outer loop
      vertex 19.5 6 21
      vertex 21.0328 3.31187 21
      vertex 21.1297 3.6101 21
    endloop
  endfacet
  facet normal 0 0 1
    outer loop
      vertex 23.25 1.70096 21
      vertex 22.9635 1.57342 21
      vertex 25.5 0 21
    endloop
  endfacet
  facet normal 0 0 1
    outer loop
      vertex 19.5 6 21
      vertex 21.1297 3.6101 21
      vertex 21.2865 3.88168 21
    endloop
  endfacet
  facet normal 0 0 1
    outer loop
      vertex 21.75 4.29904 21
      vertex 19.5 6 21
      vertex 21.4963 4.11472 21
    endloop
  endfacet
  facet normal 0 0 1
    outer loop
      vertex 25.5 6 21
      vertex 19.5 6 21
      vertex 21.75 4.29904 21
    endloop
  endfacet
  facet normal 0 0 1
    outer loop
      vertex 23.8703 3.6101 21
      vertex 23.9672 3.31187 21
      vertex 25.5 0 21
    endloop
  endfacet
  facet normal 0 0 1
    outer loop
      vertex 25.5 6 21
      vertex 21.75 4.29904 21
      vertex 22.0365 4.42658 21
    endloop
  endfacet
  facet normal 0 0 1
    outer loop
      vertex 23.7135 2.11832 21
      vertex 23.5037 1.88528 21
      vertex 25.5 0 21
    endloop
  endfacet
  facet normal 0 0 1
    outer loop
      vertex 23.8703 2.38989 21
      vertex 23.7135 2.11832 21
      vertex 25.5 0 21
    endloop
  endfacet
  facet normal 0 0 1
    outer loop
      vertex 25.5 6 21
      vertex 22.3432 4.49178 21
      vertex 22.6568 4.49178 21
    endloop
  endfacet
  facet normal 0 0 1
    outer loop
      vertex 23.5037 1.88528 21
      vertex 23.25 1.70096 21
      vertex 25.5 0 21
    endloop
  endfacet
  facet normal 0 0 1
    outer loop
      vertex 25.5 6 21
      vertex 22.6568 4.49178 21
      vertex 22.9635 4.42658 21
    endloop
  endfacet
  facet normal 0 0 1
    outer loop
      vertex 25.5 6 21
      vertex 22.9635 4.42658 21
      vertex 23.25 4.29904 21
    endloop
  endfacet
  facet normal 0 0 1
    outer loop
      vertex 24 3 21
      vertex 23.9672 2.68813 21
      vertex 25.5 0 21
    endloop
  endfacet
  facet normal 0 0 1
    outer loop
      vertex 25.5 6 21
      vertex 23.25 4.29904 21
      vertex 23.5037 4.11472 21
    endloop
  endfacet
  facet normal 0 0 1
    outer loop
      vertex 23.9672 3.31187 21
      vertex 24 3 21
      vertex 25.5 0 21
    endloop
  endfacet
  facet normal 0 0 1
    outer loop
      vertex 25.5 6 21
      vertex 23.5037 4.11472 21
      vertex 23.7135 3.88168 21
    endloop
  endfacet
  facet normal 0 0 1
    outer loop
      vertex 25.5 6 21
      vertex 23.8703 3.6101 21
      vertex 25.5 0 21
    endloop
  endfacet
  facet normal 0 0 1
    outer loop
      vertex 25.5 6 21
      vertex 23.7135 3.88168 21
      vertex 23.8703 3.6101 21
    endloop
  endfacet
  facet normal 0 0 1
    outer loop
      vertex 22.0365 4.42658 21
      vertex 22.3432 4.49178 21
      vertex 25.5 6 21
    endloop
  endfacet
  facet normal 0 0 1
    outer loop
      vertex 23.9672 2.68813 21
      vertex 23.8703 2.38989 21
      vertex 25.5 0 21
    endloop
  endfacet
  facet normal 0 0 1
    outer loop
      vertex 22.3432 1.50822 21
      vertex 19.5 0 21
      vertex 22.6568 1.50822 21
    endloop
  endfacet
  facet normal 0 0 1
    outer loop
      vertex 22.0365 1.57342 21
      vertex 19.5 0 21
      vertex 22.3432 1.50822 21
    endloop
  endfacet
  facet normal 0 0 1
    outer loop
      vertex 21.75 1.70096 21
      vertex 19.5 0 21
      vertex 22.0365 1.57342 21
    endloop
  endfacet
  facet normal 0 0 1
    outer loop
      vertex 21.4963 1.88528 21
      vertex 19.5 0 21
      vertex 21.75 1.70096 21
    endloop
  endfacet
  facet normal 0 0 1
    outer loop
      vertex 21.2865 2.11832 21
      vertex 19.5 0 21
      vertex 21.4963 1.88528 21
    endloop
  endfacet
  facet normal 0 0 1
    outer loop
      vertex 21.1297 2.38989 21
      vertex 19.5 0 21
      vertex 21.2865 2.11832 21
    endloop
  endfacet
  facet normal 0 0 1
    outer loop
      vertex 21.0328 2.68813 21
      vertex 19.5 0 21
      vertex 21.1297 2.38989 21
    endloop
  endfacet
  facet normal 0 0 1
    outer loop
      vertex 21.2865 3.88168 21
      vertex 21.4963 4.11472 21
      vertex 19.5 6 21
    endloop
  endfacet
  facet normal -1 0 0
    outer loop
      vertex 19.5 0 20
      vertex 19.5 0 21
      vertex 19.5 1.8 11
    endloop
  endfacet
  facet normal -1 0 0
    outer loop
      vertex 19.5 1.8 11
      vertex 19.5 0 21
      vertex 19.5 6 21
    endloop
  endfacet
  facet normal -1 0 0
    outer loop
      vertex 19.5 1.8 11
      vertex 19.5 6 21
      vertex 19.5 6 11
    endloop
  endfacet
  facet normal 0.951057 0.309017 0
    outer loop
      vertex -1.46722 2.68813 21
      vertex -1.37032 2.38989 21
      vertex -1.37032 2.38989 15
    endloop
  endfacet
  facet normal 0.951057 0.309017 0
    outer loop
      vertex -1.46722 2.68813 15
      vertex -1.46722 2.68813 21
      vertex -1.37032 2.38989 15
    endloop
  endfacet
  facet normal 0.994522 0.10453 0
    outer loop
      vertex -1.5 3 21
      vertex -1.46722 2.68813 21
      vertex -1.46722 2.68813 15
    endloop
  endfacet
  facet normal 0.994522 0.10453 0
    outer loop
      vertex -1.5 3 15
      vertex -1.5 3 21
      vertex -1.46722 2.68813 15
    endloop
  endfacet
  facet normal 0.866025 0.500001 0
    outer loop
      vertex -1.37032 2.38989 21
      vertex -1.21352 2.11832 21
      vertex -1.21352 2.11832 15
    endloop
  endfacet
  facet normal 0.866025 0.500001 0
    outer loop
      vertex -1.37032 2.38989 15
      vertex -1.37032 2.38989 21
      vertex -1.21352 2.11832 15
    endloop
  endfacet
  facet normal 0.743145 0.66913 0
    outer loop
      vertex -1.21352 2.11832 21
      vertex -1.0037 1.88528 21
      vertex -1.0037 1.88528 15
    endloop
  endfacet
  facet normal 0.743145 0.66913 0
    outer loop
      vertex -1.21352 2.11832 15
      vertex -1.21352 2.11832 21
      vertex -1.0037 1.88528 15
    endloop
  endfacet
  facet normal 0.587785 0.809017 0
    outer loop
      vertex -0.75 1.70096 21
      vertex -0.75 1.70096 15
      vertex -1.0037 1.88528 21
    endloop
  endfacet
  facet normal 0.587785 0.809017 0
    outer loop
      vertex -1.0037 1.88528 21
      vertex -0.75 1.70096 15
      vertex -1.0037 1.88528 15
    endloop
  endfacet
  facet normal 0.406737 0.913545 0
    outer loop
      vertex -0.463525 1.57342 21
      vertex -0.463525 1.57342 15
      vertex -0.75 1.70096 21
    endloop
  endfacet
  facet normal 0.406737 0.913545 0
    outer loop
      vertex -0.75 1.70096 21
      vertex -0.463525 1.57342 15
      vertex -0.75 1.70096 15
    endloop
  endfacet
  facet normal 0.207912 0.978148 0
    outer loop
      vertex -0.156793 1.50822 21
      vertex -0.156793 1.50822 15
      vertex -0.463525 1.57342 21
    endloop
  endfacet
  facet normal 0.207912 0.978148 0
    outer loop
      vertex -0.463525 1.57342 21
      vertex -0.156793 1.50822 15
      vertex -0.463525 1.57342 15
    endloop
  endfacet
  facet normal 0 1 0
    outer loop
      vertex 0.156793 1.50822 21
      vertex 0.156793 1.50822 15
      vertex -0.156793 1.50822 21
    endloop
  endfacet
  facet normal 0 1 0
    outer loop
      vertex -0.156793 1.50822 21
      vertex 0.156793 1.50822 15
      vertex -0.156793 1.50822 15
    endloop
  endfacet
  facet normal -0.207912 0.978148 0
    outer loop
      vertex 0.463525 1.57342 21
      vertex 0.463525 1.57342 15
      vertex 0.156793 1.50822 21
    endloop
  endfacet
  facet normal -0.207912 0.978148 0
    outer loop
      vertex 0.156793 1.50822 21
      vertex 0.463525 1.57342 15
      vertex 0.156793 1.50822 15
    endloop
  endfacet
  facet normal -0.406737 0.913545 0
    outer loop
      vertex 0.75 1.70096 21
      vertex 0.75 1.70096 15
      vertex 0.463525 1.57342 21
    endloop
  endfacet
  facet normal -0.406737 0.913545 0
    outer loop
      vertex 0.463525 1.57342 21
      vertex 0.75 1.70096 15
      vertex 0.463525 1.57342 15
    endloop
  endfacet
  facet normal -0.587785 0.809017 0
    outer loop
      vertex 1.0037 1.88528 21
      vertex 1.0037 1.88528 15
      vertex 0.75 1.70096 21
    endloop
  endfacet
  facet normal -0.587785 0.809017 0
    outer loop
      vertex 0.75 1.70096 21
      vertex 1.0037 1.88528 15
      vertex 0.75 1.70096 15
    endloop
  endfacet
  facet normal -0.743145 0.66913 0
    outer loop
      vertex 1.21352 2.11832 21
      vertex 1.21352 2.11832 15
      vertex 1.0037 1.88528 21
    endloop
  endfacet
  facet normal -0.743145 0.66913 0
    outer loop
      vertex 1.0037 1.88528 21
      vertex 1.21352 2.11832 15
      vertex 1.0037 1.88528 15
    endloop
  endfacet
  facet normal -0.866025 0.500001 0
    outer loop
      vertex 1.37032 2.38989 21
      vertex 1.37032 2.38989 15
      vertex 1.21352 2.11832 21
    endloop
  endfacet
  facet normal -0.866025 0.500001 0
    outer loop
      vertex 1.21352 2.11832 21
      vertex 1.37032 2.38989 15
      vertex 1.21352 2.11832 15
    endloop
  endfacet
  facet normal -0.951057 0.309017 0
    outer loop
      vertex 1.46722 2.68813 21
      vertex 1.46722 2.68813 15
      vertex 1.37032 2.38989 21
    endloop
  endfacet
  facet normal -0.951057 0.309017 0
    outer loop
      vertex 1.37032 2.38989 21
      vertex 1.46722 2.68813 15
      vertex 1.37032 2.38989 15
    endloop
  endfacet
  facet normal -0.994522 0.10453 0
    outer loop
      vertex 1.5 3 21
      vertex 1.5 3 15
      vertex 1.46722 2.68813 21
    endloop
  endfacet
  facet normal -0.994522 0.10453 0
    outer loop
      vertex 1.46722 2.68813 21
      vertex 1.5 3 15
      vertex 1.46722 2.68813 15
    endloop
  endfacet
  facet normal -0.994522 -0.10453 0
    outer loop
      vertex 1.5 3 21
      vertex 1.46722 3.31187 21
      vertex 1.5 3 15
    endloop
  endfacet
  facet normal -0.994522 -0.10453 0
    outer loop
      vertex 1.5 3 15
      vertex 1.46722 3.31187 21
      vertex 1.46722 3.31187 15
    endloop
  endfacet
  facet normal -0.951057 -0.309017 0
    outer loop
      vertex 1.46722 3.31187 21
      vertex 1.37032 3.6101 21
      vertex 1.46722 3.31187 15
    endloop
  endfacet
  facet normal -0.951057 -0.309017 0
    outer loop
      vertex 1.46722 3.31187 15
      vertex 1.37032 3.6101 21
      vertex 1.37032 3.6101 15
    endloop
  endfacet
  facet normal -0.866025 -0.500001 0
    outer loop
      vertex 1.37032 3.6101 21
      vertex 1.21352 3.88168 21
      vertex 1.37032 3.6101 15
    endloop
  endfacet
  facet normal -0.866025 -0.500001 0
    outer loop
      vertex 1.37032 3.6101 15
      vertex 1.21352 3.88168 21
      vertex 1.21352 3.88168 15
    endloop
  endfacet
  facet normal -0.743145 -0.66913 0
    outer loop
      vertex 1.21352 3.88168 21
      vertex 1.0037 4.11472 21
      vertex 1.21352 3.88168 15
    endloop
  endfacet
  facet normal -0.743145 -0.66913 0
    outer loop
      vertex 1.21352 3.88168 15
      vertex 1.0037 4.11472 21
      vertex 1.0037 4.11472 15
    endloop
  endfacet
  facet normal -0.587785 -0.809017 0
    outer loop
      vertex 1.0037 4.11472 15
      vertex 1.0037 4.11472 21
      vertex 0.75 4.29904 21
    endloop
  endfacet
  facet normal -0.587785 -0.809017 0
    outer loop
      vertex 0.75 4.29904 15
      vertex 1.0037 4.11472 15
      vertex 0.75 4.29904 21
    endloop
  endfacet
  facet normal -0.406737 -0.913545 0
    outer loop
      vertex 0.75 4.29904 15
      vertex 0.75 4.29904 21
      vertex 0.463525 4.42658 21
    endloop
  endfacet
  facet normal -0.406737 -0.913545 0
    outer loop
      vertex 0.463525 4.42658 15
      vertex 0.75 4.29904 15
      vertex 0.463525 4.42658 21
    endloop
  endfacet
  facet normal -0.207912 -0.978148 0
    outer loop
      vertex 0.463525 4.42658 15
      vertex 0.463525 4.42658 21
      vertex 0.156793 4.49178 21
    endloop
  endfacet
  facet normal -0.207912 -0.978148 0
    outer loop
      vertex 0.156793 4.49178 15
      vertex 0.463525 4.42658 15
      vertex 0.156793 4.49178 21
    endloop
  endfacet
  facet normal 0 -1 0
    outer loop
      vertex 0.156793 4.49178 15
      vertex 0.156793 4.49178 21
      vertex -0.156793 4.49178 21
    endloop
  endfacet
  facet normal 0 -1 0
    outer loop
      vertex -0.156793 4.49178 15
      vertex 0.156793 4.49178 15
      vertex -0.156793 4.49178 21
    endloop
  endfacet
  facet normal 0.207912 -0.978148 0
    outer loop
      vertex -0.156793 4.49178 15
      vertex -0.156793 4.49178 21
      vertex -0.463525 4.42658 21
    endloop
  endfacet
  facet normal 0.207912 -0.978148 0
    outer loop
      vertex -0.463525 4.42658 15
      vertex -0.156793 4.49178 15
      vertex -0.463525 4.42658 21
    endloop
  endfacet
  facet normal 0.406737 -0.913545 0
    outer loop
      vertex -0.463525 4.42658 15
      vertex -0.463525 4.42658 21
      vertex -0.75 4.29904 21
    endloop
  endfacet
  facet normal 0.406737 -0.913545 0
    outer loop
      vertex -0.75 4.29904 15
      vertex -0.463525 4.42658 15
      vertex -0.75 4.29904 21
    endloop
  endfacet
  facet normal 0.587785 -0.809017 0
    outer loop
      vertex -0.75 4.29904 15
      vertex -0.75 4.29904 21
      vertex -1.0037 4.11472 21
    endloop
  endfacet
  facet normal 0.587785 -0.809017 0
    outer loop
      vertex -1.0037 4.11472 15
      vertex -0.75 4.29904 15
      vertex -1.0037 4.11472 21
    endloop
  endfacet
  facet normal 0.743145 -0.66913 0
    outer loop
      vertex -1.0037 4.11472 15
      vertex -1.0037 4.11472 21
      vertex -1.21352 3.88168 21
    endloop
  endfacet
  facet normal 0.743145 -0.66913 0
    outer loop
      vertex -1.21352 3.88168 15
      vertex -1.0037 4.11472 15
      vertex -1.21352 3.88168 21
    endloop
  endfacet
  facet normal 0.866025 -0.500001 0
    outer loop
      vertex -1.21352 3.88168 15
      vertex -1.21352 3.88168 21
      vertex -1.37032 3.6101 21
    endloop
  endfacet
  facet normal 0.866025 -0.500001 0
    outer loop
      vertex -1.37032 3.6101 15
      vertex -1.21352 3.88168 15
      vertex -1.37032 3.6101 21
    endloop
  endfacet
  facet normal 0.951057 -0.309017 0
    outer loop
      vertex -1.37032 3.6101 15
      vertex -1.37032 3.6101 21
      vertex -1.46722 3.31187 21
    endloop
  endfacet
  facet normal 0.951057 -0.309017 0
    outer loop
      vertex -1.46722 3.31187 15
      vertex -1.37032 3.6101 15
      vertex -1.46722 3.31187 21
    endloop
  endfacet
  facet normal 0.994522 -0.10453 0
    outer loop
      vertex -1.46722 3.31187 15
      vertex -1.46722 3.31187 21
      vertex -1.5 3 21
    endloop
  endfacet
  facet normal 0.994522 -0.10453 0
    outer loop
      vertex -1.5 3 15
      vertex -1.46722 3.31187 15
      vertex -1.5 3 21
    endloop
  endfacet
  facet normal -0.0142843 -0.999898 0
    outer loop
      vertex 3 1.91429 11
      vertex 3 1.91429 1.71429
      vertex 32 1.5 10
    endloop
  endfacet
  facet normal -0.0142843 -0.999898 0
    outer loop
      vertex 32 1.5 11
      vertex 3 1.91429 11
      vertex 32 1.5 10
    endloop
  endfacet
  facet normal 0 0 -1
    outer loop
      vertex -1.37032 0.610105 7
      vertex -1.21352 0.881678 7
      vertex -1.46722 0.311868 7
    endloop
  endfacet
  facet normal 0 0 -1
    outer loop
      vertex -1.46722 0.311868 7
      vertex -1.21352 0.881678 7
      vertex -1.0037 1.11472 7
    endloop
  endfacet
  facet normal 0 0 -1
    outer loop
      vertex -1.46722 0.311868 7
      vertex -1.0037 1.11472 7
      vertex -0.75 1.29904 7
    endloop
  endfacet
  facet normal 0 0 -1
    outer loop
      vertex -1.46722 0.311868 7
      vertex -0.75 1.29904 7
      vertex -0.463525 1.42658 7
    endloop
  endfacet
  facet normal 0 0 -1
    outer loop
      vertex -1.46722 0.311868 7
      vertex -0.463525 1.42658 7
      vertex -0.156793 1.49178 7
    endloop
  endfacet
  facet normal 0 0 -1
    outer loop
      vertex -1.46722 0.311868 7
      vertex -0.156793 1.49178 7
      vertex 0.156793 1.49178 7
    endloop
  endfacet
  facet normal 0 0 -1
    outer loop
      vertex -1.46722 0.311868 7
      vertex 0.156793 1.49178 7
      vertex 0.463525 1.42658 7
    endloop
  endfacet
  facet normal 0 0 -1
    outer loop
      vertex -1.46722 0.311868 7
      vertex 0.463525 1.42658 7
      vertex 0.75 1.29904 7
    endloop
  endfacet
  facet normal 0 0 -1
    outer loop
      vertex -1.46722 0.311868 7
      vertex 0.75 1.29904 7
      vertex 1.0037 1.11472 7
    endloop
  endfacet
  facet normal 0 0 -1
    outer loop
      vertex -1.46722 0.311868 7
      vertex 1.0037 1.11472 7
      vertex 1.21352 0.881678 7
    endloop
  endfacet
  facet normal 0 0 -1
    outer loop
      vertex -1.46722 0.311868 7
      vertex 1.21352 0.881678 7
      vertex 1.37032 0.610105 7
    endloop
  endfacet
  facet normal 0 0 -1
    outer loop
      vertex -1.46722 0.311868 7
      vertex 1.37032 0.610105 7
      vertex 1.46722 0.311868 7
    endloop
  endfacet
  facet normal 0 0 -1
    outer loop
      vertex -1.46722 0.311868 7
      vertex 1.46722 0.311868 7
      vertex 1.5 0 7
    endloop
  endfacet
  facet normal 0 0 -1
    outer loop
      vertex -1.46722 0.311868 7
      vertex 1.5 0 7
      vertex 1.46722 -0.311868 7
    endloop
  endfacet
  facet normal 0 0 -1
    outer loop
      vertex -1.46722 0.311868 7
      vertex 1.46722 -0.311868 7
      vertex 1.37032 -0.610105 7
    endloop
  endfacet
  facet normal 0 0 -1
    outer loop
      vertex -1.46722 0.311868 7
      vertex 1.37032 -0.610105 7
      vertex 1.21352 -0.881678 7
    endloop
  endfacet
  facet normal 0 0 -1
    outer loop
      vertex -1.46722 0.311868 7
      vertex 1.21352 -0.881678 7
      vertex 1.0037 -1.11472 7
    endloop
  endfacet
  facet normal 0 0 -1
    outer loop
      vertex -1.46722 0.311868 7
      vertex 1.0037 -1.11472 7
      vertex 0.75 -1.29904 7
    endloop
  endfacet
  facet normal 0 0 -1
    outer loop
      vertex -1.46722 0.311868 7
      vertex 0.75 -1.29904 7
      vertex 0.463525 -1.42658 7
    endloop
  endfacet
  facet normal 0 0 -1
    outer loop
      vertex -1.46722 0.311868 7
      vertex 0.463525 -1.42658 7
      vertex 0.156793 -1.49178 7
    endloop
  endfacet
  facet normal 0 0 -1
    outer loop
      vertex -1.46722 0.311868 7
      vertex 0.156793 -1.49178 7
      vertex -0.156793 -1.49178 7
    endloop
  endfacet
  facet normal 0 0 -1
    outer loop
      vertex -1.46722 0.311868 7
      vertex -0.156793 -1.49178 7
      vertex -0.463525 -1.42658 7
    endloop
  endfacet
  facet normal 0 0 -1
    outer loop
      vertex -1.46722 0.311868 7
      vertex -0.463525 -1.42658 7
      vertex -0.75 -1.29904 7
    endloop
  endfacet
  facet normal 0 0 -1
    outer loop
      vertex -1.46722 0.311868 7
      vertex -0.75 -1.29904 7
      vertex -1.0037 -1.11472 7
    endloop
  endfacet
  facet normal 0 0 -1
    outer loop
      vertex -1.46722 0.311868 7
      vertex -1.0037 -1.11472 7
      vertex -1.21352 -0.881678 7
    endloop
  endfacet
  facet normal 0 0 -1
    outer loop
      vertex -1.46722 0.311868 7
      vertex -1.21352 -0.881678 7
      vertex -1.37032 -0.610105 7
    endloop
  endfacet
  facet normal 0 0 -1
    outer loop
      vertex -1.46722 0.311868 7
      vertex -1.37032 -0.610105 7
      vertex -1.46722 -0.311868 7
    endloop
  endfacet
  facet normal 0 0 -1
    outer loop
      vertex -1.46722 0.311868 7
      vertex -1.46722 -0.311868 7
      vertex -1.5 0 7
    endloop
  endfacet
  facet normal 0 0 -1
    outer loop
      vertex 33.6297 0.610105 7
      vertex 33.7865 0.881678 7
      vertex 33.5328 0.311868 7
    endloop
  endfacet
  facet normal 0 0 -1
    outer loop
      vertex 33.5328 0.311868 7
      vertex 33.7865 0.881678 7
      vertex 33.9963 1.11472 7
    endloop
  endfacet
  facet normal 0 0 -1
    outer loop
      vertex 33.5328 0.311868 7
      vertex 33.9963 1.11472 7
      vertex 34.25 1.29904 7
    endloop
  endfacet
  facet normal 0 0 -1
    outer loop
      vertex 33.5328 0.311868 7
      vertex 34.25 1.29904 7
      vertex 34.5365 1.42658 7
    endloop
  endfacet
  facet normal 0 0 -1
    outer loop
      vertex 33.5328 0.311868 7
      vertex 34.5365 1.42658 7
      vertex 34.8432 1.49178 7
    endloop
  endfacet
  facet normal 0 0 -1
    outer loop
      vertex 33.5328 0.311868 7
      vertex 34.8432 1.49178 7
      vertex 35.1568 1.49178 7
    endloop
  endfacet
  facet normal 0 0 -1
    outer loop
      vertex 33.5328 0.311868 7
      vertex 35.1568 1.49178 7
      vertex 35.4635 1.42658 7
    endloop
  endfacet
  facet normal 0 0 -1
    outer loop
      vertex 33.5328 0.311868 7
      vertex 35.4635 1.42658 7
      vertex 35.75 1.29904 7
    endloop
  endfacet
  facet normal 0 0 -1
    outer loop
      vertex 33.5328 0.311868 7
      vertex 35.75 1.29904 7
      vertex 36.0037 1.11472 7
    endloop
  endfacet
  facet normal 0 0 -1
    outer loop
      vertex 33.5328 0.311868 7
      vertex 36.0037 1.11472 7
      vertex 36.2135 0.881678 7
    endloop
  endfacet
  facet normal 0 0 -1
    outer loop
      vertex 33.5328 0.311868 7
      vertex 36.2135 0.881678 7
      vertex 36.3703 0.610105 7
    endloop
  endfacet
  facet normal 0 0 -1
    outer loop
      vertex 33.5328 0.311868 7
      vertex 36.3703 0.610105 7
      vertex 36.4672 0.311868 7
    endloop
  endfacet
  facet normal 0 0 -1
    outer loop
      vertex 33.5328 0.311868 7
      vertex 36.4672 0.311868 7
      vertex 36.5 0 7
    endloop
  endfacet
  facet normal 0 0 -1
    outer loop
      vertex 33.5328 0.311868 7
      vertex 36.5 0 7
      vertex 36.4672 -0.311868 7
    endloop
  endfacet
  facet normal 0 0 -1
    outer loop
      vertex 33.5328 0.311868 7
      vertex 36.4672 -0.311868 7
      vertex 36.3703 -0.610105 7
    endloop
  endfacet
  facet normal 0 0 -1
    outer loop
      vertex 33.5328 0.311868 7
      vertex 36.3703 -0.610105 7
      vertex 36.2135 -0.881678 7
    endloop
  endfacet
  facet normal 0 0 -1
    outer loop
      vertex 33.5328 0.311868 7
      vertex 36.2135 -0.881678 7
      vertex 36.0037 -1.11472 7
    endloop
  endfacet
  facet normal 0 0 -1
    outer loop
      vertex 33.5328 0.311868 7
      vertex 36.0037 -1.11472 7
      vertex 35.75 -1.29904 7
    endloop
  endfacet
  facet normal 0 0 -1
    outer loop
      vertex 33.5328 0.311868 7
      vertex 35.75 -1.29904 7
      vertex 35.4635 -1.42658 7
    endloop
  endfacet
  facet normal 0 0 -1
    outer loop
      vertex 33.5328 0.311868 7
      vertex 35.4635 -1.42658 7
      vertex 35.1568 -1.49178 7
    endloop
  endfacet
  facet normal 0 0 -1
    outer loop
      vertex 33.5328 0.311868 7
      vertex 35.1568 -1.49178 7
      vertex 34.8432 -1.49178 7
    endloop
  endfacet
  facet normal 0 0 -1
    outer loop
      vertex 33.5328 0.311868 7
      vertex 34.8432 -1.49178 7
      vertex 34.5365 -1.42658 7
    endloop
  endfacet
  facet normal 0 0 -1
    outer loop
      vertex 33.5328 0.311868 7
      vertex 34.5365 -1.42658 7
      vertex 34.25 -1.29904 7
    endloop
  endfacet
  facet normal 0 0 -1
    outer loop
      vertex 33.5328 0.311868 7
      vertex 34.25 -1.29904 7
      vertex 33.9963 -1.11472 7
    endloop
  endfacet
  facet normal 0 0 -1
    outer loop
      vertex 33.5328 0.311868 7
      vertex 33.9963 -1.11472 7
      vertex 33.7865 -0.881678 7
    endloop
  endfacet
  facet normal 0 0 -1
    outer loop
      vertex 33.5328 0.311868 7
      vertex 33.7865 -0.881678 7
      vertex 33.6297 -0.610105 7
    endloop
  endfacet
  facet normal 0 0 -1
    outer loop
      vertex 33.5328 0.311868 7
      vertex 33.6297 -0.610105 7
      vertex 33.5328 -0.311868 7
    endloop
  endfacet
  facet normal 0 0 -1
    outer loop
      vertex 33.5328 0.311868 7
      vertex 33.5328 -0.311868 7
      vertex 33.5 0 7
    endloop
  endfacet
  facet normal 0 -1 0
    outer loop
      vertex 19.5 0 21
      vertex 19.5 0 20
      vertex 25.5 0 20
    endloop
  endfacet
  facet normal 0 -1 0
    outer loop
      vertex 25.5 0 21
      vertex 19.5 0 21
      vertex 25.5 0 20
    endloop
  endfacet
  facet normal 0 -0.980581 -0.196116
    outer loop
      vertex 25.5 0 20
      vertex 19.5 0 20
      vertex 19.5 1.8 11
    endloop
  endfacet
  facet normal 0 -0.980581 -0.196116
    outer loop
      vertex 25.5 1.8 11
      vertex 25.5 0 20
      vertex 19.5 1.8 11
    endloop
  endfacet
  facet normal 0.951057 0.309017 0
    outer loop
      vertex 21.0328 2.68813 21
      vertex 21.1297 2.38989 21
      vertex 21.1297 2.38989 15
    endloop
  endfacet
  facet normal 0.951057 0.309017 0
    outer loop
      vertex 21.0328 2.68813 15
      vertex 21.0328 2.68813 21
      vertex 21.1297 2.38989 15
    endloop
  endfacet
  facet normal 0.994522 0.10453 0
    outer loop
      vertex 21 3 21
      vertex 21.0328 2.68813 21
      vertex 21.0328 2.68813 15
    endloop
  endfacet
  facet normal 0.994522 0.10453 0
    outer loop
      vertex 21 3 15
      vertex 21 3 21
      vertex 21.0328 2.68813 15
    endloop
  endfacet
  facet normal 0.866025 0.500001 0
    outer loop
      vertex 21.1297 2.38989 21
      vertex 21.2865 2.11832 21
      vertex 21.2865 2.11832 15
    endloop
  endfacet
  facet normal 0.866025 0.500001 0
    outer loop
      vertex 21.1297 2.38989 15
      vertex 21.1297 2.38989 21
      vertex 21.2865 2.11832 15
    endloop
  endfacet
  facet normal 0.743145 0.66913 0
    outer loop
      vertex 21.2865 2.11832 21
      vertex 21.4963 1.88528 21
      vertex 21.4963 1.88528 15
    endloop
  endfacet
  facet normal 0.743145 0.66913 0
    outer loop
      vertex 21.2865 2.11832 15
      vertex 21.2865 2.11832 21
      vertex 21.4963 1.88528 15
    endloop
  endfacet
  facet normal 0.587785 0.809017 0
    outer loop
      vertex 21.75 1.70096 21
      vertex 21.75 1.70096 15
      vertex 21.4963 1.88528 21
    endloop
  endfacet
  facet normal 0.587785 0.809017 0
    outer loop
      vertex 21.4963 1.88528 21
      vertex 21.75 1.70096 15
      vertex 21.4963 1.88528 15
    endloop
  endfacet
  facet normal 0.406737 0.913545 0
    outer loop
      vertex 22.0365 1.57342 21
      vertex 22.0365 1.57342 15
      vertex 21.75 1.70096 21
    endloop
  endfacet
  facet normal 0.406737 0.913545 0
    outer loop
      vertex 21.75 1.70096 21
      vertex 22.0365 1.57342 15
      vertex 21.75 1.70096 15
    endloop
  endfacet
  facet normal 0.207912 0.978148 0
    outer loop
      vertex 22.3432 1.50822 21
      vertex 22.3432 1.50822 15
      vertex 22.0365 1.57342 21
    endloop
  endfacet
  facet normal 0.207912 0.978148 0
    outer loop
      vertex 22.0365 1.57342 21
      vertex 22.3432 1.50822 15
      vertex 22.0365 1.57342 15
    endloop
  endfacet
  facet normal 0 1 0
    outer loop
      vertex 22.6568 1.50822 21
      vertex 22.6568 1.50822 15
      vertex 22.3432 1.50822 21
    endloop
  endfacet
  facet normal 0 1 0
    outer loop
      vertex 22.3432 1.50822 21
      vertex 22.6568 1.50822 15
      vertex 22.3432 1.50822 15
    endloop
  endfacet
  facet normal -0.207912 0.978148 0
    outer loop
      vertex 22.9635 1.57342 21
      vertex 22.9635 1.57342 15
      vertex 22.6568 1.50822 21
    endloop
  endfacet
  facet normal -0.207912 0.978148 0
    outer loop
      vertex 22.6568 1.50822 21
      vertex 22.9635 1.57342 15
      vertex 22.6568 1.50822 15
    endloop
  endfacet
  facet normal -0.406737 0.913545 0
    outer loop
      vertex 23.25 1.70096 21
      vertex 23.25 1.70096 15
      vertex 22.9635 1.57342 21
    endloop
  endfacet
  facet normal -0.406737 0.913545 0
    outer loop
      vertex 22.9635 1.57342 21
      vertex 23.25 1.70096 15
      vertex 22.9635 1.57342 15
    endloop
  endfacet
  facet normal -0.587785 0.809017 0
    outer loop
      vertex 23.5037 1.88528 21
      vertex 23.5037 1.88528 15
      vertex 23.25 1.70096 21
    endloop
  endfacet
  facet normal -0.587785 0.809017 0
    outer loop
      vertex 23.25 1.70096 21
      vertex 23.5037 1.88528 15
      vertex 23.25 1.70096 15
    endloop
  endfacet
  facet normal -0.743145 0.66913 0
    outer loop
      vertex 23.7135 2.11832 21
      vertex 23.7135 2.11832 15
      vertex 23.5037 1.88528 21
    endloop
  endfacet
  facet normal -0.743145 0.66913 0
    outer loop
      vertex 23.5037 1.88528 21
      vertex 23.7135 2.11832 15
      vertex 23.5037 1.88528 15
    endloop
  endfacet
  facet normal -0.866025 0.500001 0
    outer loop
      vertex 23.8703 2.38989 21
      vertex 23.8703 2.38989 15
      vertex 23.7135 2.11832 21
    endloop
  endfacet
  facet normal -0.866025 0.500001 0
    outer loop
      vertex 23.7135 2.11832 21
      vertex 23.8703 2.38989 15
      vertex 23.7135 2.11832 15
    endloop
  endfacet
  facet normal -0.951057 0.309017 0
    outer loop
      vertex 23.9672 2.68813 21
      vertex 23.9672 2.68813 15
      vertex 23.8703 2.38989 21
    endloop
  endfacet
  facet normal -0.951057 0.309017 0
    outer loop
      vertex 23.8703 2.38989 21
      vertex 23.9672 2.68813 15
      vertex 23.8703 2.38989 15
    endloop
  endfacet
  facet normal -0.994522 0.10453 0
    outer loop
      vertex 24 3 21
      vertex 24 3 15
      vertex 23.9672 2.68813 21
    endloop
  endfacet
  facet normal -0.994522 0.10453 0
    outer loop
      vertex 23.9672 2.68813 21
      vertex 24 3 15
      vertex 23.9672 2.68813 15
    endloop
  endfacet
  facet normal -0.994522 -0.10453 0
    outer loop
      vertex 24 3 21
      vertex 23.9672 3.31187 21
      vertex 24 3 15
    endloop
  endfacet
  facet normal -0.994522 -0.10453 0
    outer loop
      vertex 24 3 15
      vertex 23.9672 3.31187 21
      vertex 23.9672 3.31187 15
    endloop
  endfacet
  facet normal -0.951057 -0.309017 0
    outer loop
      vertex 23.9672 3.31187 21
      vertex 23.8703 3.6101 21
      vertex 23.9672 3.31187 15
    endloop
  endfacet
  facet normal -0.951057 -0.309017 0
    outer loop
      vertex 23.9672 3.31187 15
      vertex 23.8703 3.6101 21
      vertex 23.8703 3.6101 15
    endloop
  endfacet
  facet normal -0.866025 -0.500001 0
    outer loop
      vertex 23.8703 3.6101 21
      vertex 23.7135 3.88168 21
      vertex 23.8703 3.6101 15
    endloop
  endfacet
  facet normal -0.866025 -0.500001 0
    outer loop
      vertex 23.8703 3.6101 15
      vertex 23.7135 3.88168 21
      vertex 23.7135 3.88168 15
    endloop
  endfacet
  facet normal -0.743145 -0.66913 0
    outer loop
      vertex 23.7135 3.88168 21
      vertex 23.5037 4.11472 21
      vertex 23.7135 3.88168 15
    endloop
  endfacet
  facet normal -0.743145 -0.66913 0
    outer loop
      vertex 23.7135 3.88168 15
      vertex 23.5037 4.11472 21
      vertex 23.5037 4.11472 15
    endloop
  endfacet
  facet normal -0.587785 -0.809017 0
    outer loop
      vertex 23.5037 4.11472 15
      vertex 23.5037 4.11472 21
      vertex 23.25 4.29904 21
    endloop
  endfacet
  facet normal -0.587785 -0.809017 0
    outer loop
      vertex 23.25 4.29904 15
      vertex 23.5037 4.11472 15
      vertex 23.25 4.29904 21
    endloop
  endfacet
  facet normal -0.406737 -0.913545 0
    outer loop
      vertex 23.25 4.29904 15
      vertex 23.25 4.29904 21
      vertex 22.9635 4.42658 21
    endloop
  endfacet
  facet normal -0.406737 -0.913545 0
    outer loop
      vertex 22.9635 4.42658 15
      vertex 23.25 4.29904 15
      vertex 22.9635 4.42658 21
    endloop
  endfacet
  facet normal -0.207912 -0.978148 0
    outer loop
      vertex 22.9635 4.42658 15
      vertex 22.9635 4.42658 21
      vertex 22.6568 4.49178 21
    endloop
  endfacet
  facet normal -0.207912 -0.978148 0
    outer loop
      vertex 22.6568 4.49178 15
      vertex 22.9635 4.42658 15
      vertex 22.6568 4.49178 21
    endloop
  endfacet
  facet normal 0 -1 0
    outer loop
      vertex 22.6568 4.49178 15
      vertex 22.6568 4.49178 21
      vertex 22.3432 4.49178 21
    endloop
  endfacet
  facet normal 0 -1 0
    outer loop
      vertex 22.3432 4.49178 15
      vertex 22.6568 4.49178 15
      vertex 22.3432 4.49178 21
    endloop
  endfacet
  facet normal 0.207912 -0.978148 0
    outer loop
      vertex 22.3432 4.49178 15
      vertex 22.3432 4.49178 21
      vertex 22.0365 4.42658 21
    endloop
  endfacet
  facet normal 0.207912 -0.978148 0
    outer loop
      vertex 22.0365 4.42658 15
      vertex 22.3432 4.49178 15
      vertex 22.0365 4.42658 21
    endloop
  endfacet
  facet normal 0.406737 -0.913545 0
    outer loop
      vertex 22.0365 4.42658 15
      vertex 22.0365 4.42658 21
      vertex 21.75 4.29904 21
    endloop
  endfacet
  facet normal 0.406737 -0.913545 0
    outer loop
      vertex 21.75 4.29904 15
      vertex 22.0365 4.42658 15
      vertex 21.75 4.29904 21
    endloop
  endfacet
  facet normal 0.587785 -0.809017 0
    outer loop
      vertex 21.75 4.29904 15
      vertex 21.75 4.29904 21
      vertex 21.4963 4.11472 21
    endloop
  endfacet
  facet normal 0.587785 -0.809017 0
    outer loop
      vertex 21.4963 4.11472 15
      vertex 21.75 4.29904 15
      vertex 21.4963 4.11472 21
    endloop
  endfacet
  facet normal 0.743145 -0.66913 0
    outer loop
      vertex 21.4963 4.11472 15
      vertex 21.4963 4.11472 21
      vertex 21.2865 3.88168 21
    endloop
  endfacet
  facet normal 0.743145 -0.66913 0
    outer loop
      vertex 21.2865 3.88168 15
      vertex 21.4963 4.11472 15
      vertex 21.2865 3.88168 21
    endloop
  endfacet
  facet normal 0.866025 -0.500001 0
    outer loop
      vertex 21.2865 3.88168 15
      vertex 21.2865 3.88168 21
      vertex 21.1297 3.6101 21
    endloop
  endfacet
  facet normal 0.866025 -0.500001 0
    outer loop
      vertex 21.1297 3.6101 15
      vertex 21.2865 3.88168 15
      vertex 21.1297 3.6101 21
    endloop
  endfacet
  facet normal 0.951057 -0.309017 0
    outer loop
      vertex 21.1297 3.6101 15
      vertex 21.1297 3.6101 21
      vertex 21.0328 3.31187 21
    endloop
  endfacet
  facet normal 0.951057 -0.309017 0
    outer loop
      vertex 21.0328 3.31187 15
      vertex 21.1297 3.6101 15
      vertex 21.0328 3.31187 21
    endloop
  endfacet
  facet normal 0.994522 -0.10453 0
    outer loop
      vertex 21.0328 3.31187 15
      vertex 21.0328 3.31187 21
      vertex 21 3 21
    endloop
  endfacet
  facet normal 0.994522 -0.10453 0
    outer loop
      vertex 21 3 15
      vertex 21.0328 3.31187 15
      vertex 21 3 21
    endloop
  endfacet
  facet normal 0 0 1
    outer loop
      vertex -1.46722 2.68813 15
      vertex -1.37032 2.38989 15
      vertex -1.21352 2.11832 15
    endloop
  endfacet
  facet normal 0 0 1
    outer loop
      vertex -0.75 1.70096 15
      vertex -1.46722 2.68813 15
      vertex -1.0037 1.88528 15
    endloop
  endfacet
  facet normal 0 0 1
    outer loop
      vertex -1.0037 1.88528 15
      vertex -1.46722 2.68813 15
      vertex -1.21352 2.11832 15
    endloop
  endfacet
  facet normal 0 0 1
    outer loop
      vertex -0.463525 1.57342 15
      vertex -1.46722 2.68813 15
      vertex -0.75 1.70096 15
    endloop
  endfacet
  facet normal 0 0 1
    outer loop
      vertex -0.156793 1.50822 15
      vertex -1.46722 2.68813 15
      vertex -0.463525 1.57342 15
    endloop
  endfacet
  facet normal 0 0 1
    outer loop
      vertex 0.156793 1.50822 15
      vertex -1.46722 2.68813 15
      vertex -0.156793 1.50822 15
    endloop
  endfacet
  facet normal 0 0 1
    outer loop
      vertex 0.463525 1.57342 15
      vertex -1.46722 2.68813 15
      vertex 0.156793 1.50822 15
    endloop
  endfacet
  facet normal 0 0 1
    outer loop
      vertex 0.75 1.70096 15
      vertex -1.46722 2.68813 15
      vertex 0.463525 1.57342 15
    endloop
  endfacet
  facet normal 0 0 1
    outer loop
      vertex 1.0037 1.88528 15
      vertex -1.46722 2.68813 15
      vertex 0.75 1.70096 15
    endloop
  endfacet
  facet normal 0 0 1
    outer loop
      vertex 1.21352 2.11832 15
      vertex -1.46722 2.68813 15
      vertex 1.0037 1.88528 15
    endloop
  endfacet
  facet normal 0 0 1
    outer loop
      vertex 1.37032 2.38989 15
      vertex -1.46722 2.68813 15
      vertex 1.21352 2.11832 15
    endloop
  endfacet
  facet normal 0 0 1
    outer loop
      vertex 1.46722 2.68813 15
      vertex -1.46722 2.68813 15
      vertex 1.37032 2.38989 15
    endloop
  endfacet
  facet normal 0 0 1
    outer loop
      vertex 1.5 3 15
      vertex -1.46722 2.68813 15
      vertex 1.46722 2.68813 15
    endloop
  endfacet
  facet normal 0 0 1
    outer loop
      vertex 1.46722 3.31187 15
      vertex -1.46722 2.68813 15
      vertex 1.5 3 15
    endloop
  endfacet
  facet normal 0 0 1
    outer loop
      vertex 1.37032 3.6101 15
      vertex -1.46722 2.68813 15
      vertex 1.46722 3.31187 15
    endloop
  endfacet
  facet normal 0 0 1
    outer loop
      vertex 1.21352 3.88168 15
      vertex -1.46722 2.68813 15
      vertex 1.37032 3.6101 15
    endloop
  endfacet
  facet normal 0 0 1
    outer loop
      vertex 1.0037 4.11472 15
      vertex -1.46722 2.68813 15
      vertex 1.21352 3.88168 15
    endloop
  endfacet
  facet normal 0 0 1
    outer loop
      vertex 0.75 4.29904 15
      vertex -1.46722 2.68813 15
      vertex 1.0037 4.11472 15
    endloop
  endfacet
  facet normal 0 0 1
    outer loop
      vertex 0.463525 4.42658 15
      vertex -1.46722 2.68813 15
      vertex 0.75 4.29904 15
    endloop
  endfacet
  facet normal 0 0 1
    outer loop
      vertex 0.156793 4.49178 15
      vertex -1.46722 2.68813 15
      vertex 0.463525 4.42658 15
    endloop
  endfacet
  facet normal 0 0 1
    outer loop
      vertex -0.156793 4.49178 15
      vertex -1.46722 2.68813 15
      vertex 0.156793 4.49178 15
    endloop
  endfacet
  facet normal 0 0 1
    outer loop
      vertex -0.463525 4.42658 15
      vertex -1.46722 2.68813 15
      vertex -0.156793 4.49178 15
    endloop
  endfacet
  facet normal 0 0 1
    outer loop
      vertex -0.75 4.29904 15
      vertex -1.46722 2.68813 15
      vertex -0.463525 4.42658 15
    endloop
  endfacet
  facet normal 0 0 1
    outer loop
      vertex -1.0037 4.11472 15
      vertex -1.46722 2.68813 15
      vertex -0.75 4.29904 15
    endloop
  endfacet
  facet normal 0 0 1
    outer loop
      vertex -1.21352 3.88168 15
      vertex -1.46722 2.68813 15
      vertex -1.0037 4.11472 15
    endloop
  endfacet
  facet normal 0 0 1
    outer loop
      vertex -1.37032 3.6101 15
      vertex -1.46722 2.68813 15
      vertex -1.21352 3.88168 15
    endloop
  endfacet
  facet normal 0 0 1
    outer loop
      vertex -1.46722 3.31187 15
      vertex -1.46722 2.68813 15
      vertex -1.37032 3.6101 15
    endloop
  endfacet
  facet normal 0 0 1
    outer loop
      vertex -1.5 3 15
      vertex -1.46722 2.68813 15
      vertex -1.46722 3.31187 15
    endloop
  endfacet
  facet normal 0 0 1
    outer loop
      vertex 21.0328 2.68813 15
      vertex 21.1297 2.38989 15
      vertex 21.2865 2.11832 15
    endloop
  endfacet
  facet normal 0 0 1
    outer loop
      vertex 21.75 1.70096 15
      vertex 21.0328 2.68813 15
      vertex 21.4963 1.88528 15
    endloop
  endfacet
  facet normal 0 0 1
    outer loop
      vertex 21.4963 1.88528 15
      vertex 21.0328 2.68813 15
      vertex 21.2865 2.11832 15
    endloop
  endfacet
  facet normal 0 0 1
    outer loop
      vertex 22.0365 1.57342 15
      vertex 21.0328 2.68813 15
      vertex 21.75 1.70096 15
    endloop
  endfacet
  facet normal 0 0 1
    outer loop
      vertex 22.3432 1.50822 15
      vertex 21.0328 2.68813 15
      vertex 22.0365 1.57342 15
    endloop
  endfacet
  facet normal 0 0 1
    outer loop
      vertex 22.6568 1.50822 15
      vertex 21.0328 2.68813 15
      vertex 22.3432 1.50822 15
    endloop
  endfacet
  facet normal 0 0 1
    outer loop
      vertex 22.9635 1.57342 15
      vertex 21.0328 2.68813 15
      vertex 22.6568 1.50822 15
    endloop
  endfacet
  facet normal 0 0 1
    outer loop
      vertex 23.25 1.70096 15
      vertex 21.0328 2.68813 15
      vertex 22.9635 1.57342 15
    endloop
  endfacet
  facet normal 0 0 1
    outer loop
      vertex 23.5037 1.88528 15
      vertex 21.0328 2.68813 15
      vertex 23.25 1.70096 15
    endloop
  endfacet
  facet normal 0 0 1
    outer loop
      vertex 23.7135 2.11832 15
      vertex 21.0328 2.68813 15
      vertex 23.5037 1.88528 15
    endloop
  endfacet
  facet normal 0 0 1
    outer loop
      vertex 23.8703 2.38989 15
      vertex 21.0328 2.68813 15
      vertex 23.7135 2.11832 15
    endloop
  endfacet
  facet normal 0 0 1
    outer loop
      vertex 23.9672 2.68813 15
      vertex 21.0328 2.68813 15
      vertex 23.8703 2.38989 15
    endloop
  endfacet
  facet normal 0 0 1
    outer loop
      vertex 24 3 15
      vertex 21.0328 2.68813 15
      vertex 23.9672 2.68813 15
    endloop
  endfacet
  facet normal 0 0 1
    outer loop
      vertex 23.9672 3.31187 15
      vertex 21.0328 2.68813 15
      vertex 24 3 15
    endloop
  endfacet
  facet normal 0 0 1
    outer loop
      vertex 23.8703 3.6101 15
      vertex 21.0328 2.68813 15
      vertex 23.9672 3.31187 15
    endloop
  endfacet
  facet normal 0 0 1
    outer loop
      vertex 23.7135 3.88168 15
      vertex 21.0328 2.68813 15
      vertex 23.8703 3.6101 15
    endloop
  endfacet
  facet normal 0 0 1
    outer loop
      vertex 23.5037 4.11472 15
      vertex 21.0328 2.68813 15
      vertex 23.7135 3.88168 15
    endloop
  endfacet
  facet normal 0 0 1
    outer loop
      vertex 23.25 4.29904 15
      vertex 21.0328 2.68813 15
      vertex 23.5037 4.11472 15
    endloop
  endfacet
  facet normal 0 0 1
    outer loop
      vertex 22.9635 4.42658 15
      vertex 21.0328 2.68813 15
      vertex 23.25 4.29904 15
    endloop
  endfacet
  facet normal 0 0 1
    outer loop
      vertex 22.6568 4.49178 15
      vertex 21.0328 2.68813 15
      vertex 22.9635 4.42658 15
    endloop
  endfacet
  facet normal 0 0 1
    outer loop
      vertex 22.3432 4.49178 15
      vertex 21.0328 2.68813 15
      vertex 22.6568 4.49178 15
    endloop
  endfacet
  facet normal 0 0 1
    outer loop
      vertex 22.0365 4.42658 15
      vertex 21.0328 2.68813 15
      vertex 22.3432 4.49178 15
    endloop
  endfacet
  facet normal 0 0 1
    outer loop
      vertex 21.75 4.29904 15
      vertex 21.0328 2.68813 15
      vertex 22.0365 4.42658 15
    endloop
  endfacet
  facet normal 0 0 1
    outer loop
      vertex 21.4963 4.11472 15
      vertex 21.0328 2.68813 15
      vertex 21.75 4.29904 15
    endloop
  endfacet
  facet normal 0 0 1
    outer loop
      vertex 21.2865 3.88168 15
      vertex 21.0328 2.68813 15
      vertex 21.4963 4.11472 15
    endloop
  endfacet
  facet normal 0 0 1
    outer loop
      vertex 21.1297 3.6101 15
      vertex 21.0328 2.68813 15
      vertex 21.2865 3.88168 15
    endloop
  endfacet
  facet normal 0 0 1
    outer loop
      vertex 21.0328 3.31187 15
      vertex 21.0328 2.68813 15
      vertex 21.1297 3.6101 15
    endloop
  endfacet
  facet normal 0 0 1
    outer loop
      vertex 21 3 15
      vertex 21.0328 2.68813 15
      vertex 21.0328 3.31187 15
    endloop
  endfacet
endsolid OpenSCAD_Model
